<svg id="Layer_1" data-name="Layer 1" xmlns="http://www.w3.org/2000/svg" xmlns:xlink="http://www.w3.org/1999/xlink" viewBox="0 0 1088 687.96"><defs><style>.cls-1{fill:#f15931;}.cls-2{fill:url(#linear-gradient);}.cls-16,.cls-3{fill:#f0806f;}.cls-4{fill:url(#linear-gradient-2);}.cls-5{fill:url(#linear-gradient-3);}.cls-6{fill:url(#linear-gradient-4);}.cls-7{fill:url(#linear-gradient-5);}.cls-8{fill:url(#linear-gradient-6);}.cls-9{fill:#f18170;}.cls-10{fill:#f49e95;}.cls-11{fill:#3a374f;}.cls-12{fill:#534e66;}.cls-13{fill:#53506d;}.cls-14{fill:#437dc0;}.cls-15{fill:#20b24d;}.cls-16{opacity:0.63;}.cls-17{opacity:0.7;}.cls-18,.cls-28,.cls-30{fill:#fff;}.cls-19{fill:url(#linear-gradient-7);}.cls-20{fill:#403d58;}.cls-21{fill:url(#linear-gradient-8);}.cls-22{fill:url(#linear-gradient-9);}.cls-23{fill:url(#linear-gradient-10);}.cls-24{fill:url(#linear-gradient-11);}.cls-25{fill:url(#linear-gradient-12);}.cls-26{fill:#73c37b;}.cls-27{fill:#72acdb;}.cls-28{opacity:0.39;}.cls-29{fill:#24b24c;}.cls-30{opacity:0.78;}</style><linearGradient id="linear-gradient" x1="373.69" y1="210.48" x2="352.18" y2="897.43" gradientUnits="userSpaceOnUse"><stop offset="0" stop-color="#f15931"/><stop offset="1" stop-color="#f15931"/></linearGradient><linearGradient id="linear-gradient-2" x1="372.3" y1="210.44" x2="350.79" y2="897.38" xlink:href="#linear-gradient"/><linearGradient id="linear-gradient-3" x1="370.9" y1="210.4" x2="349.39" y2="897.34" xlink:href="#linear-gradient"/><linearGradient id="linear-gradient-4" x1="369.51" y1="210.35" x2="348" y2="897.29" xlink:href="#linear-gradient"/><linearGradient id="linear-gradient-5" x1="368.12" y1="210.31" x2="346.61" y2="897.25" xlink:href="#linear-gradient"/><linearGradient id="linear-gradient-6" x1="366.72" y1="210.27" x2="345.21" y2="897.21" xlink:href="#linear-gradient"/><linearGradient id="linear-gradient-7" x1="-4185.6" y1="417.71" x2="-4171.65" y2="556.24" gradientTransform="translate(4953.49)" gradientUnits="userSpaceOnUse"><stop offset="0" stop-color="#f5928f"/><stop offset="1" stop-color="#f8b2b1"/></linearGradient><linearGradient id="linear-gradient-8" x1="-4181.72" y1="328.91" x2="-4175.24" y2="403.66" xlink:href="#linear-gradient-7"/><linearGradient id="linear-gradient-9" x1="-4135.36" y1="290.71" x2="-4120.91" y2="337.06" xlink:href="#linear-gradient-7"/><linearGradient id="linear-gradient-10" x1="-5910.68" y1="-9468.85" x2="-5947.06" y2="-9468.35" gradientTransform="matrix(0.72, -0.69, 0.69, 0.72, 15555.44, -813.62)" xlink:href="#linear-gradient-7"/><linearGradient id="linear-gradient-11" x1="-5910.64" y1="-9464.97" x2="-5947.02" y2="-9464.47" gradientTransform="matrix(0.72, -0.69, 0.69, 0.72, 15555.44, -813.62)" xlink:href="#linear-gradient-7"/><linearGradient id="linear-gradient-12" x1="-4104.48" y1="302.12" x2="-4116.44" y2="381.85" xlink:href="#linear-gradient-7"/></defs><path class="cls-1" d="M523.79,492.58V516h0c-1.43,14.16-60.65,40.16-146.65,40.64-126.46.71-169.16-27.53-171.15-42h0V493.08Z"/><path class="cls-2" d="M205.9,493.16c0,14.58,73,26.1,161.52,25.73,87-.37,156.37-12.11,156.37-26.22S454.4,467,367.42,466.94C278.87,466.84,205.9,478.58,205.9,493.16Z"/><path class="cls-1" d="M207.13,491.39c0,14.47,72.41,25.92,160.31,25.58,86.36-.33,155.27-12,155.27-26S453.8,465.52,367.44,465.4C279.54,465.28,207.13,476.92,207.13,491.39Z"/><polygon class="cls-1" points="205.9 514.69 205.9 493.08 523.79 492.58 523.79 516.04 205.9 514.69"/><path class="cls-3" d="M205.9,493.16c0,14.58,73,26.1,161.52,25.73,87-.37,156.37-12.11,156.37-26.22S454.4,467,367.42,466.94C278.87,466.84,205.9,478.58,205.9,493.16Z"/><path class="cls-1" d="M523.79,448.13v23.45h0c-1.43,14.15-60.65,38.92-146.65,38.48-136.29-.7-169.16-25.38-171.15-39.84h0V448.62Z"/><path class="cls-4" d="M205.9,448.71c0,14.58,73,26.09,161.52,25.72,87-.37,156.37-12.1,156.37-26.22s-69.39-25.63-156.37-25.73C278.87,422.39,205.9,434.13,205.9,448.71Z"/><path class="cls-1" d="M207.13,446.93c0,14.47,72.41,25.92,160.31,25.58,86.36-.33,155.27-12,155.27-26s-68.91-25.47-155.27-25.59C279.54,420.83,207.13,432.46,207.13,446.93Z"/><polygon class="cls-1" points="205.9 470.23 205.9 448.62 523.79 448.13 523.79 471.58 205.9 470.23"/><path class="cls-3" d="M205.9,448.71c0,14.58,73,26.09,161.52,25.72,87-.37,156.37-12.1,156.37-26.22s-69.39-25.63-156.37-25.73C278.87,422.39,205.9,434.13,205.9,448.71Z"/><path class="cls-1" d="M523.79,403.56V427h0C522.32,441.18,463.1,466,377.1,465.5c-136.29-.7-169.16-25.37-171.15-39.83h0V404.05Z"/><path class="cls-5" d="M205.9,404.14c0,14.58,73,26.1,161.52,25.72,87-.36,156.37-12.1,156.37-26.21S454.4,378,367.42,377.92C278.87,377.82,205.9,389.56,205.9,404.14Z"/><path class="cls-1" d="M207.13,402.37c0,14.47,72.41,25.92,160.31,25.58,86.36-.33,155.27-12,155.27-26s-68.91-25.48-155.27-25.59C279.54,376.26,207.13,387.9,207.13,402.37Z"/><polygon class="cls-1" points="205.9 425.67 205.9 404.05 523.79 403.56 523.79 427.02 205.9 425.67"/><path class="cls-3" d="M205.9,404.14c0,14.58,73,26.1,161.52,25.72,87-.36,156.37-12.1,156.37-26.21S454.4,378,367.42,377.92C278.87,377.82,205.9,389.56,205.9,404.14Z"/><path class="cls-1" d="M523.79,359v23.45h0c-1.43,14.16-60.65,38.93-146.65,38.49-136.29-.7-169.16-25.38-171.15-39.84h0V359.49Z"/><path class="cls-6" d="M205.9,359.58c0,14.58,73,26.09,161.52,25.72,87-.37,156.37-12.1,156.37-26.22s-69.39-25.64-156.37-25.73C278.87,333.25,205.9,345,205.9,359.58Z"/><path class="cls-1" d="M207.13,357.8c0,14.47,72.41,25.92,160.31,25.58,86.36-.33,155.27-12,155.27-26s-68.91-25.47-155.27-25.59C279.54,331.7,207.13,343.33,207.13,357.8Z"/><polygon class="cls-1" points="205.9 381.1 205.9 359.49 523.79 359 523.79 382.45 205.9 381.1"/><path class="cls-3" d="M205.9,359.58c0,14.58,73,26.09,161.52,25.72,87-.37,156.37-12.1,156.37-26.22s-69.39-25.64-156.37-25.73C278.87,333.25,205.9,345,205.9,359.58Z"/><path class="cls-1" d="M523.79,314.43v23.46h0c-1.43,14.16-60.65,38.92-146.65,38.48C240.81,375.67,207.94,351,206,336.54h0V314.92Z"/><path class="cls-7" d="M205.9,315c0,14.58,73,26.09,161.52,25.72,87-.36,156.37-12.1,156.37-26.22s-69.39-25.63-156.37-25.73C278.87,288.69,205.9,300.43,205.9,315Z"/><path class="cls-1" d="M207.13,313.24c0,14.47,72.41,25.92,160.31,25.58,86.36-.34,155.27-12,155.27-26s-68.91-25.48-155.27-25.59C279.54,287.13,207.13,298.76,207.13,313.24Z"/><polygon class="cls-1" points="205.9 336.54 205.9 314.92 523.79 314.43 523.79 337.89 205.9 336.54"/><path class="cls-3" d="M205.9,315c0,14.58,73,26.09,161.52,25.72,87-.36,156.37-12.1,156.37-26.22s-69.39-25.63-156.37-25.73C278.87,288.69,205.9,300.43,205.9,315Z"/><path class="cls-1" d="M523.79,269.86v23.46h0c-1.43,14.16-60.65,38.93-146.65,38.49C240.81,331.11,207.94,306.43,206,292h0V270.36Z"/><path class="cls-8" d="M205.9,270.44c0,14.58,73,26.1,161.52,25.73,87-.37,156.37-12.1,156.37-26.22s-69.39-25.64-156.37-25.73C278.87,244.12,205.9,255.86,205.9,270.44Z"/><path class="cls-1" d="M207.13,268.67c0,14.47,72.41,25.92,160.31,25.58,86.36-.33,155.27-12,155.27-26S453.8,242.8,367.44,242.68C279.54,242.56,207.13,254.2,207.13,268.67Z"/><polygon class="cls-1" points="205.9 291.97 205.9 270.36 523.79 269.87 523.79 293.32 205.9 291.97"/><path class="cls-9" d="M205.9,270.44c0,14.58,73,26.1,161.52,25.73,87-.37,156.37-12.1,156.37-26.22s-69.39-25.64-156.37-25.73C278.87,244.12,205.9,255.86,205.9,270.44Z"/><path class="cls-9" d="M730.61,93.66a1.87,1.87,0,0,1-1.81-1.82c-.18-10.16-3.35-60.62-47.79-71.16C631.54,8.94,608.9,59.25,608.9,59.25S547.69,35.77,536,98.66c-38.38,9.21-48.36,59.33-23.39,83.82a21.41,21.41,0,0,0,14.84,6.15l240.35,2.16a15.83,15.83,0,0,0,15.32-11.32C790.58,154.13,800.42,95.29,730.61,93.66Z"/><path class="cls-10" d="M725.12,94.74a1.87,1.87,0,0,1-1.81-1.82c-.2-9.74-3.33-56.53-45.19-66.34-46.77-11-68.18,36-68.18,36s-57.88-21.92-69,36.8C505,107.92,495.43,153.92,518.18,177a21.44,21.44,0,0,0,15.1,6.4l226.26,2a15.82,15.82,0,0,0,15.33-11.36C781.92,150,790.3,96.3,725.12,94.74Z"/><polygon class="cls-11" points="550.77 524.43 542.02 602.93 643.58 602.93 630.35 524.43 550.77 524.43"/><path class="cls-12" d="M374.06,325.4v185a28.07,28.07,0,0,0,27.34,28.06c67.58,1.74,303.92,6,368.25,5A20.65,20.65,0,0,0,790,523.42c1.24-43,3.26-146.33-4.2-194.31a21.25,21.25,0,0,0-20.32-18C708.84,309.31,458.3,303.56,394,305A20.41,20.41,0,0,0,374.06,325.4Z"/><path class="cls-11" d="M385.67,324.5V500.27a16.26,16.26,0,0,0,16,16.26L760.4,521a15.82,15.82,0,0,0,16.06-15.76l.6-174.21a11.58,11.58,0,0,0-11.29-11.61L398.52,312A12.54,12.54,0,0,0,385.67,324.5Z"/><path class="cls-12" d="M665.45,619H516.82c-4,0-7.07-2.87-6.29-6l1.91-7.54c.57-2.27,3.07-3.93,6-4L661.76,597c3.09-.09,5.83,1.55,6.51,3.91l3.44,12C672.6,616,669.55,619,665.45,619Z"/><circle class="cls-13" cx="606.2" cy="413.81" r="58.54"/><path class="cls-11" d="M602,449.47a7.33,7.33,0,0,1-6.28-3.59l-17.4-18.11a7.48,7.48,0,0,1,2.51-10.18c3.47-2.11,7-1.19,10,2.54l9.14,9.79,21.87-43.77a7.28,7.28,0,0,1,9.85-3.24,7.46,7.46,0,0,1,3.2,10l-26.41,52.54a7.34,7.34,0,0,1-6.27,4.05Z"/><path class="cls-12" d="M217.72,642.63a5.69,5.69,0,0,0,5.67,5.68h307a5.69,5.69,0,0,0,5.67-5.68l2.56-176.41c0-3.12-3.68-9.21-10.41-8.75l-300-7.76a14.3,14.3,0,0,0-14.68,14.63Z"/><rect class="cls-12" x="192.81" y="647.45" width="361.92" height="15.5" rx="5.65" transform="translate(747.55 1310.4) rotate(180)"/><path class="cls-11" d="M223.32,637.19a5.38,5.38,0,0,0,5.37,5.37H523a5.38,5.38,0,0,0,5.37-5.37L530.75,477c-.28-9.64-8.73-13.1-13.85-12.89l-287.54-7.72a10,10,0,0,0-10.31,10.29Z"/><path class="cls-14" d="M728.24,438.3h0a2.47,2.47,0,0,1-2.41-2.51,2.51,2.51,0,0,1,2.51-2.45,2.42,2.42,0,0,1,2.41,2.47v.08A2.46,2.46,0,0,1,728.24,438.3Zm.16-7.46h0a2.46,2.46,0,0,1-2.41-2.51l.16-7.38a2.46,2.46,0,0,1,2.46-2.4h.05a2.46,2.46,0,0,1,2.41,2.51l-.16,7.38A2.47,2.47,0,0,1,728.4,430.84Zm.32-14.75h-.05a2.46,2.46,0,0,1-2.41-2.51l.16-7.37a2.46,2.46,0,0,1,2.46-2.41h0a2.45,2.45,0,0,1,2.4,2.51l-.15,7.38A2.47,2.47,0,0,1,728.72,416.09Zm.32-14.75H729a2.46,2.46,0,0,1-2.4-2.51l.16-7.37a2.45,2.45,0,0,1,2.45-2.41h.06a2.46,2.46,0,0,1,2.4,2.51l-.16,7.38A2.45,2.45,0,0,1,729,401.34Zm.31-14.75h-.05a2.46,2.46,0,0,1-2.41-2.51l.16-7.37a2.47,2.47,0,0,1,2.46-2.41h0a2.46,2.46,0,0,1,2.41,2.51l-.16,7.38A2.45,2.45,0,0,1,729.35,386.59Zm.32-14.75h0a2.46,2.46,0,0,1-2.41-2.51l.16-7.37a2.46,2.46,0,0,1,4.92.1l-.16,7.38A2.46,2.46,0,0,1,729.67,371.84Zm.32-14.75h-.06a2.46,2.46,0,0,1-2.4-2.51l.16-7.37a2.46,2.46,0,0,1,2.45-2.41h.06a2.45,2.45,0,0,1,2.4,2.51l-.15,7.38A2.46,2.46,0,0,1,730,357.09Zm.31-14.75h0a2.45,2.45,0,0,1-2.4-2.51l.15-7.37a2.47,2.47,0,0,1,2.46-2.41h.06a2.46,2.46,0,0,1,2.4,2.51l-.16,7.38A2.45,2.45,0,0,1,730.3,342.34Zm.32-14.75h0a2.46,2.46,0,0,1-2.41-2.51l.16-7.37a2.46,2.46,0,0,1,4.92.1l-.16,7.38A2.45,2.45,0,0,1,730.62,327.59Zm.32-14.75h-.05a2.46,2.46,0,0,1-2.41-2.51l.16-7.37a2.46,2.46,0,0,1,2.46-2.41h0a2.47,2.47,0,0,1,2.41,2.51l-.16,7.38A2.46,2.46,0,0,1,730.94,312.84Zm.32-14.75h-.06a2.45,2.45,0,0,1-2.4-2.51l.16-7.37a2.45,2.45,0,0,1,2.45-2.41h.06a2.46,2.46,0,0,1,2.4,2.51l-.16,7.38A2.45,2.45,0,0,1,731.26,298.09ZM729,285.76h-.09l-7.37-.25a2.46,2.46,0,0,1,.17-4.92l7.37.26a2.46,2.46,0,0,1-.08,4.91Zm-14.75-.51h-.08l-7.37-.25a2.46,2.46,0,1,1,.17-4.92l7.37.26a2.46,2.46,0,0,1-.09,4.91Zm-14.74-.5h-.09l-7.37-.25a2.46,2.46,0,0,1,.17-4.92l7.37.26a2.46,2.46,0,0,1-.08,4.92Zm-14.74-.51h-.09l-.8,0a2.47,2.47,0,0,1-2.38-2.51l.14-6.57a2.46,2.46,0,0,1,2.46-2.41h0a2.46,2.46,0,0,1,2.4,2.51l-.09,4.76a2.47,2.47,0,0,1-1.69,4.25Zm-.52-14h0a2.46,2.46,0,0,1-2.41-2.51l.15-7.37a2.46,2.46,0,0,1,2.46-2.41h.05a2.46,2.46,0,0,1,2.4,2.51l-.15,7.37A2.45,2.45,0,0,1,684.27,270.26Zm.3-14.75h-.05a2.46,2.46,0,0,1-2.41-2.51l.15-7.37a2.43,2.43,0,0,1,2.51-2.41,2.47,2.47,0,0,1,2.41,2.51L687,253.1A2.47,2.47,0,0,1,684.57,255.51Zm.3-14.75h0a2.46,2.46,0,0,1-2.41-2.51l.15-7.37a2.46,2.46,0,0,1,2.46-2.41h.05a2.47,2.47,0,0,1,2.41,2.51l-.15,7.37A2.47,2.47,0,0,1,684.87,240.76Zm.3-14.75h0a2.46,2.46,0,0,1-2.41-2.51l.15-7.37a2.46,2.46,0,0,1,2.46-2.41h0a2.46,2.46,0,0,1,2.41,2.51l-.15,7.37A2.46,2.46,0,0,1,685.17,226Zm.3-14.75h-.05a2.46,2.46,0,0,1-2.41-2.51l.15-7.37a2.43,2.43,0,0,1,2.51-2.41,2.46,2.46,0,0,1,2.41,2.51l-.15,7.37A2.46,2.46,0,0,1,685.47,211.26Z"/><path class="cls-14" d="M530.56,441.2h0a2.45,2.45,0,0,1-2.41-2.5l.12-7.37a2.46,2.46,0,0,1,2.46-2.42h0a2.47,2.47,0,0,1,2.42,2.5l-.13,7.37A2.45,2.45,0,0,1,530.56,441.2Zm.24-14.75h0a2.46,2.46,0,0,1-2.42-2.5l.12-7.37a2.46,2.46,0,0,1,2.46-2.42h0a2.46,2.46,0,0,1,2.42,2.5l-.12,7.37A2.46,2.46,0,0,1,530.8,426.45ZM531,411.7h0a2.46,2.46,0,0,1-2.42-2.5l.12-7.37a2.46,2.46,0,0,1,4.92.08l-.12,7.37A2.46,2.46,0,0,1,531,411.7Zm.24-14.75h0a2.46,2.46,0,0,1-2.42-2.5l.13-7.38a2.46,2.46,0,0,1,4.91.09l-.12,7.37A2.46,2.46,0,0,1,531.28,397Zm.25-14.75h0a2.46,2.46,0,0,1-2.42-2.5l.12-7.38a2.46,2.46,0,0,1,4.92.08l-.13,7.38A2.45,2.45,0,0,1,531.53,382.2Zm.24-14.75h0a2.46,2.46,0,0,1-2.42-2.5l.12-7.38a2.46,2.46,0,1,1,4.92.08l-.12,7.38A2.47,2.47,0,0,1,531.77,367.45ZM532,352.7h0a2.47,2.47,0,0,1-2.42-2.5l.12-7.38a2.46,2.46,0,1,1,4.92.08l-.12,7.38A2.46,2.46,0,0,1,532,352.7Zm.24-14.76h0a2.46,2.46,0,0,1-2.42-2.49l.13-7.38a2.45,2.45,0,0,1,2.45-2.42h0a2.45,2.45,0,0,1,2.41,2.5l-.12,7.38A2.45,2.45,0,0,1,532.25,337.94Zm.25-14.75h0a2.45,2.45,0,0,1-2.41-2.5l.12-7.37a2.46,2.46,0,0,1,2.46-2.42h0a2.46,2.46,0,0,1,2.42,2.5l-.13,7.38A2.45,2.45,0,0,1,532.5,323.19Zm.24-14.75h0a2.46,2.46,0,0,1-2.42-2.5l.12-7.37a2.46,2.46,0,0,1,2.46-2.42h0a2.46,2.46,0,0,1,2.42,2.5L535.2,306A2.46,2.46,0,0,1,532.74,308.44Zm.24-14.75h0a2.46,2.46,0,0,1-2.42-2.5l.12-7.37a2.46,2.46,0,0,1,2.46-2.42h0a2.46,2.46,0,0,1,2.42,2.5l-.12,7.37A2.46,2.46,0,0,1,533,293.69ZM536.26,282a2.46,2.46,0,0,1,0-4.91l7.38-.1a2.5,2.5,0,0,1,2.49,2.43,2.46,2.46,0,0,1-2.43,2.49l-7.37.09ZM551,281.8a2.46,2.46,0,0,1,0-4.92l7.37-.09a2.46,2.46,0,1,1,.06,4.91l-7.37.1Zm14.75-.19a2.46,2.46,0,0,1,0-4.92H567l0-1.31a2.46,2.46,0,1,1,4.92.08l-.06,3.69a2.45,2.45,0,0,1-2.43,2.42l-3.68.05Zm3.86-11.11h0a2.45,2.45,0,0,1-2.42-2.49l.12-7.38a2.42,2.42,0,0,1,2.49-2.42,2.46,2.46,0,0,1,2.42,2.5l-.11,7.38A2.47,2.47,0,0,1,569.62,270.5Zm.23-14.76h0a2.46,2.46,0,0,1-2.42-2.49l.12-7.38a2.44,2.44,0,0,1,2.5-2.42,2.47,2.47,0,0,1,2.42,2.5l-.12,7.37A2.46,2.46,0,0,1,569.85,255.74Zm.24-14.75h0a2.46,2.46,0,0,1-2.42-2.49l.11-7.38a2.46,2.46,0,0,1,4.92.08l-.12,7.37A2.45,2.45,0,0,1,570.09,241Zm.23-14.75h0a2.46,2.46,0,0,1-2.42-2.5l.12-7.37a2.46,2.46,0,0,1,4.92.08l-.12,7.37A2.46,2.46,0,0,1,570.32,226.24Zm.23-14.75h0a2.45,2.45,0,0,1-2.41-2.5l.11-7.37a2.46,2.46,0,0,1,4.92.08l-.12,7.37A2.46,2.46,0,0,1,570.55,211.49Z"/><path class="cls-14" d="M620.6,352h0a2.45,2.45,0,0,1-2.45-2.46v-2.19a2.45,2.45,0,0,1,2.46-2.45h0a2.46,2.46,0,0,1,2.45,2.47v2.18A2.46,2.46,0,0,1,620.6,352Zm0-9.56h0a2.46,2.46,0,0,1-2.45-2.47l0-7.37a2.46,2.46,0,0,1,2.46-2.45h0a2.46,2.46,0,0,1,2.45,2.46l0,7.38A2.45,2.45,0,0,1,620.63,342.4Zm.06-14.75h0a2.46,2.46,0,0,1-2.45-2.47l0-7.38a2.47,2.47,0,0,1,2.46-2.45h0a2.46,2.46,0,0,1,2.45,2.47l0,7.38A2.47,2.47,0,0,1,620.69,327.65Zm0-14.76h0a2.46,2.46,0,0,1-2.45-2.46l0-7.38a2.46,2.46,0,0,1,2.46-2.45h0a2.46,2.46,0,0,1,2.45,2.47l0,7.37A2.46,2.46,0,0,1,620.74,312.89Zm0-14.75h0a2.45,2.45,0,0,1-2.45-2.47l0-7.37a2.46,2.46,0,0,1,2.46-2.45h0a2.45,2.45,0,0,1,2.45,2.47l0,7.37A2.45,2.45,0,0,1,620.79,298.14Zm.06-14.75h0a2.46,2.46,0,0,1-2.45-2.47l0-7.38a2.46,2.46,0,0,1,2.46-2.45h0a2.46,2.46,0,0,1,2.45,2.47l0,7.38A2.47,2.47,0,0,1,620.85,283.39Zm0-14.75h0a2.47,2.47,0,0,1-2.45-2.47l0-7.38a2.46,2.46,0,0,1,2.46-2.45h0a2.46,2.46,0,0,1,2.45,2.47l0,7.38A2.46,2.46,0,0,1,620.9,268.64Zm.06-14.76h0a2.45,2.45,0,0,1-2.45-2.46l0-7.38a2.48,2.48,0,0,1,2.47-2.45,2.45,2.45,0,0,1,2.45,2.47l0,7.37A2.45,2.45,0,0,1,621,253.88Zm0-14.75h0a2.46,2.46,0,0,1-2.45-2.47l0-7.37a2.45,2.45,0,0,1,2.46-2.45h0a2.46,2.46,0,0,1,2.45,2.46l0,7.38A2.47,2.47,0,0,1,621,239.13Zm0-14.75h0a2.47,2.47,0,0,1-2.45-2.47l0-7.38a2.47,2.47,0,0,1,2.46-2.45h0a2.46,2.46,0,0,1,2.45,2.47l0,7.38A2.46,2.46,0,0,1,621.06,224.38Zm.06-14.76h0a2.45,2.45,0,0,1-2.45-2.46l0-7.38a2.45,2.45,0,0,1,2.45-2.45h0a2.46,2.46,0,0,1,2.45,2.47l0,7.37A2.46,2.46,0,0,1,621.12,209.62Z"/><path class="cls-1" d="M716.37,418c-1.15,41.14-4.89,183.06-3.11,233.35.19,5.33,5,9.61,11,9.78,29.77.86,138.88,3,187.56,1.24,10.14-.38,18.21-7.65,18.42-16.63,1-43.19,3.24-164.65-2.06-220.29-.64-6.67-6.55-12-14.07-12.64-32.41-2.87-142-9.89-184.06-7.48C722.5,405.76,716.56,411.26,716.37,418Z"/><path class="cls-9" d="M729.65,427.57c-1.6,9.62-6.66,41.61-5,53.44.23,1.73,5.55,3.13,12.28,3.23,27.74.42,122.38,1.33,163.06.5,7.33-.15,13.08-1.67,13.48-3.55,2.06-9.81,8-39.6,6.44-51.3-.25-1.86-5.88-3.39-13.14-3.56-30-.69-130.57-2.33-165.14-1.85C735.09,424.57,729.93,425.91,729.65,427.57Z"/><path class="cls-10" d="M907.22,435.93a8,8,0,0,0-5.61-2.43L745.73,431a8,8,0,0,0-8.07,7.24l-3.24,34.58c-.26,2.83,4.39,5.21,10.33,5.29L898,480c5.93.08,10.84-2.19,10.89-5l.57-33.34A8,8,0,0,0,907.22,435.93Z"/><rect class="cls-9" x="729.42" y="507.03" width="36.03" height="22.52" rx="11.14"/><rect class="cls-9" x="780.09" y="507.03" width="36.03" height="22.52" rx="11.14"/><rect class="cls-9" x="828.5" y="507.03" width="36.03" height="22.52" rx="11.14"/><path class="cls-15" d="M914.44,520.09a11.31,11.31,0,0,1-11.31,11.32H890a11.32,11.32,0,0,1-11.32-11.32h0A11.32,11.32,0,0,1,890,508.77h13.11a11.31,11.31,0,0,1,11.31,11.32Z"/><rect class="cls-16" x="729.42" y="541.93" width="36.03" height="22.52" rx="11.14"/><rect class="cls-16" x="780.09" y="541.93" width="36.03" height="22.52" rx="11.14"/><rect class="cls-16" x="828.5" y="541.93" width="36.03" height="22.52" rx="11.14"/><rect class="cls-9" x="879.16" y="541.93" width="36.03" height="22.52" rx="11.14"/><rect class="cls-16" x="729.42" y="575.71" width="36.03" height="22.52" rx="11.14"/><rect class="cls-16" x="780.09" y="575.71" width="36.03" height="22.52" rx="11.14"/><rect class="cls-16" x="828.5" y="575.71" width="36.03" height="22.52" rx="11.14"/><rect class="cls-16" x="729.42" y="609.48" width="36.03" height="22.52" rx="11.14"/><rect class="cls-16" x="780.09" y="609.48" width="36.03" height="22.52" rx="11.14"/><rect class="cls-16" x="828.5" y="609.48" width="36.03" height="22.52" rx="11.14"/><rect class="cls-3" x="881.41" y="576.83" width="29.27" height="55.17" rx="14.1"/><g class="cls-17"><path class="cls-18" d="M890.42,440.61a2.25,2.25,0,0,1-2.25,2.25h-6.76a2.25,2.25,0,0,1-2.25-2.25h0a2.25,2.25,0,0,1,2.25-2.25h6.76a2.25,2.25,0,0,1,2.25,2.25Z"/><path class="cls-18" d="M890.42,474.38a2.25,2.25,0,0,1-2.25,2.25h-6.76a2.25,2.25,0,0,1-2.25-2.25h0a2.25,2.25,0,0,1,2.25-2.25h6.76a2.25,2.25,0,0,1,2.25,2.25Z"/><path class="cls-18" d="M879.16,454.12a2.25,2.25,0,0,1-2.25,2.25h0a2.25,2.25,0,0,1-2.25-2.25v-6.76a2.25,2.25,0,0,1,2.25-2.25h0a2.25,2.25,0,0,1,2.25,2.25Z"/><path class="cls-18" d="M879.16,467.63a2.25,2.25,0,0,1-2.25,2.25h0a2.25,2.25,0,0,1-2.25-2.25v-6.76a2.25,2.25,0,0,1,2.25-2.25h0a2.25,2.25,0,0,1,2.25,2.25Z"/><path class="cls-18" d="M896.05,454.12a2.25,2.25,0,0,1-2.25,2.25h0a2.26,2.26,0,0,1-2.26-2.25v-6.76a2.26,2.26,0,0,1,2.26-2.25h0a2.25,2.25,0,0,1,2.25,2.25Z"/><path class="cls-18" d="M896.05,467.63a2.25,2.25,0,0,1-2.25,2.25h0a2.26,2.26,0,0,1-2.26-2.25v-6.76a2.26,2.26,0,0,1,2.26-2.25h0a2.25,2.25,0,0,1,2.25,2.25Z"/></g><path class="cls-19" d="M726.58,461.78c.09,0,48.26-84.4,54.77-92.34a5.08,5.08,0,0,1,4.51-1.81l13.44,1.6,15.8,34.18-26.32-15.33c2.61,18-31.2,44.78-42.79,54.54a2.66,2.66,0,0,0-.21,3.88l4.62,4.85a53.17,53.17,0,0,1-26.26,14.93Z"/><path class="cls-20" d="M747.73,448.73a6.79,6.79,0,0,1,3.95,3.59,3,3,0,0,1-1.13,3.46c-4.87,3.49-20.91,14.74-28.32,16.94a.83.83,0,0,1-1-1c.38-1.72,1.61-5.16,5.57-10.19l-.36.72a1,1,0,0,0,1.42,1.36C732.78,460.83,742.86,454.72,747.73,448.73Z"/><path class="cls-21" d="M745.34,482.49c.08-.06,7.31-17.47,7.39-17.52,6.63-40.35,22.8-74.9,27.56-84a5.09,5.09,0,0,1,4.05-2.68l13.49-1.15,22.39,30.27-28.88-9.69c6.2,17.11-21.49,50.17-30.87,62.08a2.66,2.66,0,0,0,.58,3.84l5.51,3.8a53.15,53.15,0,0,1-22.7,19.95Z"/><path class="cls-20" d="M763.41,465.43a6.79,6.79,0,0,1,4.6,2.71,3,3,0,0,1-.41,3.62c-4.06,4.4-17.49,18.67-24.3,22.32a.83.83,0,0,1-1.22-.75c0-1.76.53-5.38,3.39-11.1l-.2.77a1,1,0,0,0,1.67,1.05C751.22,480.31,759.86,472.27,763.41,465.43Z"/><path class="cls-20" d="M861,370.76s12.2,18.16,13.2,26.44-3.37,11.14-16.15,12.2c-38,3.14-56.75-8.25-56.75-8.25-2.6-16.58-4.45-20.8-26.17-29.82,0,0,27.47,2.18,33,0S861,370.76,861,370.76Z"/><path class="cls-14" d="M828,368.36s-14.21-13.53-21.21-22.5a19,19,0,0,1-3.22-17.12c3.19-10.76,8.87-21.9,9.39-23.64.79-2.66,16.73-2.55,16.73-2.55s31.36,20.36,43.68,54.83l-13.84,4.31s-8.19-13.74-16.28-22.47c0,0,14,18.49,14.5,26.07Z"/><path class="cls-22" d="M811,290.24c.17.55,4.33,14.34,4.65,14.63s9.12.76,13.26-2.07l-8.45-18.7Z"/><path class="cls-23" d="M799.57,274.75s-3,6.84.52,17.24,9.16,11.31,12.76,8.73,8.27-7.16,8.86-16.58S803.65,266.1,799.57,274.75Z"/><path class="cls-20" d="M814.68,283.53s-6.29-14.08-15.71-5.31l-.73,3.62s-9-2.55-6-10.69a16.48,16.48,0,0,1,23.27-8.38c9.6,5.28,12.86,11.48,12.35,18.89s-6.07,4.87-6.07,4.87-1.06-5.45-3.67-6.41-2.55,3.15-2.55,3.15Z"/><path class="cls-24" d="M816.84,283.7s-3.27-7.22,1.31-7.48,2.72,7,1.81,9.59Z"/><path class="cls-25" d="M800.9,373.7l10.68-11.62,12.33,3.32s14.38,2.23,22.61,0l8.23-2.23,18.6-5.79,2.92,8.26a5,5,0,0,1-1.82,5.71,33.17,33.17,0,0,1-4.69,2.93c-2.45,1.07-56.42.33-56.42.33Z"/><path class="cls-20" d="M819.44,268a3.21,3.21,0,0,1-1.85-5.39c5.64-6.16,16.28-13,31.44-2.51,17.08,11.81,26.32,17.16,30.52,16a3.24,3.24,0,0,1,3.85,4.53c-1,1.87-2.92,3.83-6.54,5.62C848.94,300.05,834.5,269.82,819.44,268Z"/><path class="cls-15" d="M836.25,378.3h-.11L787,378.25a2.2,2.2,0,0,1,0-4.4l49.12,0a2.2,2.2,0,0,1,.11,4.4Z"/><path class="cls-15" d="M742.86,333.7h40.91a7.8,7.8,0,0,1,7.05,4.47l18.91,40.1H758.89a4.76,4.76,0,0,1-4.41-3l-14.66-37.11A3.27,3.27,0,0,1,742.86,333.7Z"/><path class="cls-26" d="M771.68,354.26c.88,2.76.23,5.43-1.47,6s-3.78-1.25-4.67-4-.23-5.43,1.46-6S770.79,351.51,771.68,354.26Z"/><path class="cls-27" d="M450.17,380.14l-177.89-1.08a10.18,10.18,0,0,0-10.23,10.68l12.24,252.73h198l11-225.8Z"/><path class="cls-14" d="M457.56,415.59a10.19,10.19,0,0,1-9.79-11l1.91-24.13,33.59,36Z"/><path class="cls-28" d="M451,508.43H296.69c-4.66,0-8.47-2.12-8.61-4.8l-3.23-60.87c-.14-2.79,3.75-5.1,8.61-5.1H451c4.75,0,8.61,2.22,8.61,4.95v60.87C459.61,506.22,455.75,508.43,451,508.43Z"/><path class="cls-18" d="M450.75,509H296.44c-5,0-9-2.34-9.15-5.32l-3.23-60.87a4,4,0,0,1,1.19-2.92c1.62-1.7,4.67-2.75,8-2.75H450.75c5.13,0,9.16,2.41,9.16,5.49v60.87C459.91,506.56,455.88,509,450.75,509ZM293.22,438.2c-3,0-5.76.93-7.18,2.42a2.84,2.84,0,0,0-.89,2.12l3.22,60.86c.13,2.37,3.75,4.29,8.07,4.29H450.75c4.37,0,8.07-2,8.07-4.41V442.61c0-2.39-3.7-4.41-8.07-4.41Z"/><rect class="cls-18" x="294.41" y="472.26" width="71.26" height="1.09" transform="translate(-144.37 800.53) rotate(-89.72)"/><rect class="cls-18" x="385.14" y="472.26" width="71.26" height="1.09" transform="translate(-54.08 891.26) rotate(-89.72)"/><rect class="cls-18" x="394.25" y="392.8" width="1.09" height="129.15" transform="translate(-64.51 849.92) rotate(-89.72)"/><rect class="cls-18" x="329.86" y="484.51" width="129.49" height="1.09"/><path class="cls-28" d="M451.26,626.75H297c-4.65,0-8.47-2.13-8.61-4.81l-3.22-60.86c-.15-2.8,3.75-5.11,8.61-5.11H451.26c4.76,0,8.62,2.22,8.62,5v60.86C459.88,624.53,456,626.75,451.26,626.75Z"/><path class="cls-18" d="M451,627.29H296.71c-5,0-9-2.33-9.16-5.32l-3.22-60.86a3.85,3.85,0,0,1,1.19-2.92c1.61-1.7,4.66-2.76,8-2.76H451c5.14,0,9.16,2.41,9.16,5.5v60.86C460.17,624.88,456.15,627.29,451,627.29ZM293.48,556.52c-3,0-5.76.92-7.17,2.41a2.86,2.86,0,0,0-.9,2.12l3.23,60.86c.12,2.37,3.74,4.29,8.07,4.29H451c4.38,0,8.07-2,8.07-4.41V560.93c0-2.39-3.69-4.41-8.07-4.41Z"/><rect class="cls-18" x="294.67" y="590.57" width="71.26" height="1.09" transform="translate(-262.42 918.54) rotate(-89.72)"/><rect class="cls-18" x="385.41" y="590.57" width="71.26" height="1.09" transform="translate(-172.13 1009.27) rotate(-89.72)"/><rect class="cls-18" x="394.51" y="511.12" width="1.09" height="129.15" transform="translate(-182.56 967.92) rotate(-89.72)"/><rect class="cls-18" x="330.13" y="602.82" width="129.49" height="1.09"/><rect class="cls-14" x="297.42" y="413.09" width="145.9" height="12.53" rx="6.26"/><rect class="cls-14" x="288.53" y="520.23" width="168.9" height="9.44" rx="4.72"/><rect class="cls-14" x="288.04" y="534.75" width="168.9" height="9.44" rx="4.72"/><circle class="cls-29" cx="170.44" cy="424.29" r="13.92" transform="translate(-284.99 383.64) rotate(-63.01)"/><circle class="cls-29" cx="170.44" cy="424.29" r="13.46" transform="translate(-125.43 75.67) rotate(-18.43)"/><circle class="cls-30" cx="170.73" cy="424.58" r="11.39" transform="translate(-225.13 194.99) rotate(-37.98)"/><path class="cls-29" d="M169.61,433.05v-1.24a10.17,10.17,0,0,1-3.47-.75.72.72,0,0,1-.4-.85l.31-1.15a.73.73,0,0,1,1-.48,8.33,8.33,0,0,0,3.21.68c1.24,0,2.17-.42,2.17-1.29s-.72-1.24-2.45-1.71c-2.47-.67-4.24-1.75-4.24-3.92,0-2,1.44-3.46,3.93-3.86v-1.24a.72.72,0,0,1,.72-.72h.73a.72.72,0,0,1,.72.72v1.12a9.06,9.06,0,0,1,2.75.49.72.72,0,0,1,.45.87l-.29,1.07a.72.72,0,0,1-1,.48,7.48,7.48,0,0,0-2.7-.49c-1.48,0-1.9.61-1.9,1.16s.89,1.14,2.81,1.73c2.74.82,3.88,2,3.88,4,0,1.87-1.39,3.56-4.09,4v1.39a.73.73,0,0,1-.73.72h-.72A.73.73,0,0,1,169.61,433.05Z"/><circle class="cls-29" cx="199.06" cy="387.78" r="24.23" transform="translate(-215.9 254.34) rotate(-45)"/><circle class="cls-29" cx="199.06" cy="387.78" r="23.43" transform="translate(-228.57 472.23) rotate(-74)"/><circle class="cls-30" cx="199.57" cy="388.29" r="19.83"/><path class="cls-29" d="M197.63,403v-2.15a17.66,17.66,0,0,1-6.06-1.32,1.25,1.25,0,0,1-.69-1.47l.55-2a1.26,1.26,0,0,1,1.71-.82,14.74,14.74,0,0,0,5.59,1.17c2.17,0,3.78-.73,3.78-2.24,0-1.35-1.25-2.16-4.26-3-4.29-1.17-7.38-3.05-7.38-6.83,0-3.41,2.5-6,6.83-6.72v-2.15a1.25,1.25,0,0,1,1.26-1.26h1.27a1.25,1.25,0,0,1,1.25,1.26v1.93a16.35,16.35,0,0,1,4.8.86,1.25,1.25,0,0,1,.78,1.51l-.5,1.86a1.26,1.26,0,0,1-1.66.85,13,13,0,0,0-4.7-.86c-2.57,0-3.31,1.07-3.31,2,0,1.18,1.55,2,4.89,3,4.77,1.44,6.75,3.42,6.75,7,0,3.27-2.42,6.2-7.12,6.94V403a1.25,1.25,0,0,1-1.26,1.26h-1.27A1.25,1.25,0,0,1,197.63,403Z"/><circle class="cls-29" cx="215.78" cy="441.91" r="24.94" transform="translate(-269.7 520.37) rotate(-73.15)"/><circle class="cls-29" cx="215.78" cy="441.91" r="24.11" transform="translate(-270.34 367.55) rotate(-55.28)"/><circle class="cls-30" cx="216.3" cy="442.43" r="20.4" transform="translate(-263.99 551.3) rotate(-76.72)"/><path class="cls-29" d="M214.3,457.6v-2.22a18.08,18.08,0,0,1-6.23-1.35,1.28,1.28,0,0,1-.71-1.52l.56-2.06a1.3,1.3,0,0,1,1.76-.85,14.93,14.93,0,0,0,5.75,1.21c2.23,0,3.89-.76,3.89-2.3s-1.28-2.23-4.38-3.06c-4.42-1.21-7.59-3.14-7.59-7,0-3.51,2.57-6.2,7-6.91v-2.22a1.3,1.3,0,0,1,1.3-1.3H217a1.3,1.3,0,0,1,1.3,1.3v2a16.06,16.06,0,0,1,4.93.89,1.28,1.28,0,0,1,.81,1.55l-.52,1.91a1.29,1.29,0,0,1-1.7.87,13.5,13.5,0,0,0-4.85-.88c-2.64,0-3.4,1.1-3.4,2.08,0,1.21,1.59,2,5,3.1,4.91,1.47,7,3.51,7,7.18,0,3.36-2.49,6.38-7.33,7.14v2.48a1.29,1.29,0,0,1-1.29,1.29h-1.31A1.29,1.29,0,0,1,214.3,457.6Z"/><circle class="cls-29" cx="247.76" cy="407.94" r="18.27"/><circle class="cls-29" cx="247.76" cy="407.94" r="17.66" transform="translate(-228.34 441.58) rotate(-62.77)"/><circle class="cls-30" cx="248.15" cy="408.33" r="14.95" transform="translate(-87.18 67.94) rotate(-13.28)"/><path class="cls-29" d="M246.68,419.44v-1.63a13.35,13.35,0,0,1-4.56-1,.93.93,0,0,1-.52-1.11l.41-1.51a.94.94,0,0,1,1.29-.62,11.1,11.1,0,0,0,4.21.88c1.64,0,2.85-.55,2.85-1.69s-.94-1.63-3.21-2.24c-3.24-.88-5.56-2.29-5.56-5.15,0-2.57,1.88-4.54,5.15-5.06v-1.63a1,1,0,0,1,.95-.95h.95a1,1,0,0,1,1,.95v1.46a12.31,12.31,0,0,1,3.62.65,1,1,0,0,1,.59,1.14l-.38,1.4a1,1,0,0,1-1.25.64,9.84,9.84,0,0,0-3.55-.64c-1.94,0-2.49.8-2.49,1.52,0,.88,1.16,1.49,3.68,2.27,3.6,1.08,5.09,2.57,5.09,5.26,0,2.46-1.82,4.67-5.37,5.23v1.82a1,1,0,0,1-.94.95h-1A1,1,0,0,1,246.68,419.44Z"/></svg>