<svg id="Layer_1" data-name="Layer 1" xmlns="http://www.w3.org/2000/svg" xmlns:xlink="http://www.w3.org/1999/xlink" viewBox="0 0 1088 687.96"><defs><style>.cls-1{fill:#534e66;}.cls-2{fill:#3a374f;}.cls-3{fill:#53506d;}.cls-4{fill:#8193ca;}.cls-5{fill:url(#linear-gradient);}.cls-6{fill:#437dc0;}.cls-7{fill:url(#linear-gradient-2);}.cls-8{fill:#f15832;}.cls-9{fill:#403d58;}.cls-10{fill:url(#linear-gradient-3);}.cls-11{fill:url(#linear-gradient-4);}.cls-12{fill:url(#linear-gradient-5);}.cls-13{fill:url(#linear-gradient-6);}.cls-14{fill:#20b24d;}.cls-15{fill:#73c37b;}.cls-16{fill:#c0cfeb;}.cls-17{fill:url(#linear-gradient-7);}.cls-18{fill:url(#linear-gradient-8);}.cls-19{fill:url(#linear-gradient-9);}.cls-20{fill:#4f4c66;}.cls-21{fill:#65637c;}.cls-22{fill:#7a7a91;}.cls-23{fill:url(#linear-gradient-10);}.cls-24{fill:url(#linear-gradient-11);}.cls-25{fill:url(#linear-gradient-12);}.cls-26{fill:#f18170;}.cls-27{fill:#d84427;}.cls-28{fill:#b02c25;}</style><linearGradient id="linear-gradient" x1="-9576.92" y1="599.92" x2="-9533.08" y2="599.92" gradientTransform="matrix(-1, 0, 0, 1, -9364, 0)" gradientUnits="userSpaceOnUse"><stop offset="0" stop-color="#f5928f"/><stop offset="1" stop-color="#f8b2b1"/></linearGradient><linearGradient id="linear-gradient-2" x1="300.52" y1="526.64" x2="264.87" y2="561.85" gradientTransform="matrix(1, 0, 0, 1, 0, 0)" xlink:href="#linear-gradient"/><linearGradient id="linear-gradient-3" x1="179.01" y1="425.18" x2="155.24" y2="470.1" gradientTransform="matrix(1, 0, 0, 1, 0, 0)" xlink:href="#linear-gradient"/><linearGradient id="linear-gradient-4" x1="172.98" y1="499.92" x2="154.14" y2="517.31" gradientTransform="matrix(1, 0, 0, 1, 0, 0)" xlink:href="#linear-gradient"/><linearGradient id="linear-gradient-5" x1="-11001.08" y1="-411.49" x2="-11031.51" y2="-446.27" gradientTransform="matrix(-1, -0.06, -0.06, 1, -10900.63, 283.58)" xlink:href="#linear-gradient"/><linearGradient id="linear-gradient-6" x1="-10271.33" y1="3355.58" x2="-10301.76" y2="3320.8" gradientTransform="matrix(-0.91, 0.41, 0.41, 0.91, -10701.17, 1900.24)" xlink:href="#linear-gradient"/><linearGradient id="linear-gradient-7" x1="940.69" y1="283.44" x2="913.08" y2="368.09" gradientUnits="userSpaceOnUse"><stop offset="0" stop-color="#f9baba"/><stop offset="1" stop-color="#f5928f"/></linearGradient><linearGradient id="linear-gradient-8" x1="909.75" y1="368.15" x2="930.37" y2="368.15" xlink:href="#linear-gradient-7"/><linearGradient id="linear-gradient-9" x1="942.52" y1="341.5" x2="1092.6" y2="351.71" xlink:href="#linear-gradient-7"/><linearGradient id="linear-gradient-10" x1="934.84" y1="584.23" x2="993.03" y2="584.23" xlink:href="#linear-gradient-7"/><linearGradient id="linear-gradient-11" x1="899.54" y1="588.55" x2="933.23" y2="588.55" xlink:href="#linear-gradient-7"/><linearGradient id="linear-gradient-12" x1="826.96" y1="335.76" x2="892.92" y2="335.76" xlink:href="#linear-gradient-7"/></defs><path class="cls-1" d="M193.06,625.26a12.45,12.45,0,0,0,12.42,12.41H877.2a12.45,12.45,0,0,0,12.43-12.41l5.59-386c0-6.82-8.05-20.15-22.78-19.15L216,203.11a31.29,31.29,0,0,0-32.12,32Z"/><path class="cls-2" d="M205.32,613.36a11.79,11.79,0,0,0,11.76,11.75H861a11.79,11.79,0,0,0,11.75-11.75L878,262.92c-.62-21.09-19.11-28.66-30.31-28.22L218.54,217.82A22,22,0,0,0,196,240.34Z"/><path class="cls-2" d="M844.39,593.92c-.68-29-.42-285.45,1.24-307.6s-32.84-26.31-85.8-28.8S260,245.16,248.46,244.23c-25.86-2.1-35.85,8.79-28.63,120.48,4.07,63,5.17,166.92,6.65,214.69A26.37,26.37,0,0,0,252.78,605c107.54.29,519.71,1.47,547.15,2.29C831.5,608.18,844.66,605.4,844.39,593.92Z"/><rect class="cls-1" x="138.57" y="623.46" width="791.93" height="33.92" rx="7.51" transform="translate(1069.07 1280.83) rotate(180)"/><rect class="cls-3" x="245" y="277.53" width="524.26" height="43.76" rx="9"/><rect class="cls-3" x="245" y="339.67" width="242.44" height="11.38"/><rect class="cls-3" x="245" y="358.92" width="242.44" height="11.38"/><rect class="cls-3" x="245" y="378.18" width="242.44" height="11.38"/><rect class="cls-3" x="262.46" y="473.61" width="28.31" height="108"/><rect class="cls-3" x="309.77" y="510.73" width="28.31" height="70.89"/><rect class="cls-3" x="357.08" y="418.99" width="28.31" height="162.62"/><rect class="cls-3" x="404.39" y="542.54" width="28.31" height="39.07"/><rect class="cls-3" x="451.7" y="440.73" width="28.31" height="140.88"/><rect class="cls-3" x="499.01" y="465.12" width="28.31" height="116.49"/><rect class="cls-3" x="546.32" y="491.64" width="28.31" height="89.98"/><rect class="cls-3" x="593.63" y="386.11" width="28.31" height="195.5"/><rect class="cls-3" x="640.94" y="406.79" width="28.31" height="174.82"/><rect class="cls-3" x="688.25" y="438.08" width="28.31" height="143.53"/><rect class="cls-3" x="735.56" y="546.17" width="28.31" height="35.44"/><rect class="cls-3" x="782.87" y="477.32" width="28.31" height="104.29"/><rect class="cls-4" x="142.55" y="589.68" width="6.17" height="66.67"/><path class="cls-4" d="M118.64,657.64h54a4,4,0,0,0-4-4h-46a4,4,0,0,0-4,4Z"/><rect class="cls-4" x="110.62" y="574.74" width="67.89" height="19.26" rx="6.63"/><path class="cls-5" d="M191.15,545.22a53.62,53.62,0,0,1,19.46,8.31,5.14,5.14,0,0,1,2.27,4.91c-1.23,9.77-6.31,41.39-23,72.27a7.79,7.79,0,0,0-.74,5.34l2.9,13.52,5.39,5H183.52l-9.24-25,3.95-1.24a7.46,7.46,0,0,0,5.22-7l.47-26.83c-.4-11.95,7.32-20.19,7.32-20.19l-22.16-1.08Z"/><path class="cls-6" d="M202.82,657.06c1.26,1.65-13.6,3.84-21.12.22,0,0-10.41-18.12-10.41-27.44,0,0,.83-1.91,6.94-1.47,0,0,3.5,21.44,7.19,23.85s10.33.24,10.33.24S201,654.62,202.82,657.06Z"/><path class="cls-7" d="M171.89,574.74c.11-.2,23.86-2.85,23.86-2.85A54.75,54.75,0,0,0,197.4,589c2.43,9.94,37.29,53,37.29,53L231,653.63a58.85,58.85,0,0,0,33.36,2L241.74,642s-21.2-72.25-34.19-85.14l-23.8-8.23Z"/><path class="cls-8" d="M118.64,532.7S105,553.05,103.83,562.33s3.75,13,18.11,13.68,52.67.61,52.67.61l32.7-28s-23.83-8.51-30-10.91S118.64,532.7,118.64,532.7Z"/><path class="cls-6" d="M232.41,649.72s-3.93,3.81-1.27,8.06c0,0,31.17,5.52,39.64,3,0,0-1.76-4-11.29-8.57l.7.54a1.14,1.14,0,0,1-.75,2C253.16,654.44,240.16,653.29,232.41,649.72Z"/><path class="cls-9" d="M180.7,436.29c0,1.9-17.08,72.1-17.08,72.1L115,522.7a21.86,21.86,0,0,1-24.67-9.33h0a44,44,0,0,1,13.81-60.65l6.89-4.33a129.5,129.5,0,0,0,37.29-35.56l2.59-3.73Z"/><path class="cls-8" d="M155.63,530s15.93-15.17,23.77-25.22A21.31,21.31,0,0,0,183,485.61c-3.58-12.06-9.94-24.56-10.52-26.5-.89-3-18.75-2.86-18.75-2.86s-35.15,22.82-49,61.46l15.51,4.83s9.18-15.4,18.25-25.19c0,0-15.69,20.73-16.25,29.21Z"/><path class="cls-10" d="M177.29,438.36c-.18.62-7.49,20.17-7.85,20.49s-10.23.85-14.87-2.32L166.09,434Z"/><path class="cls-11" d="M188.09,531.13l-11.71-11.28-16.19,6.84s-16.12,2.5-25.34,0l-9.22-2.49-20.85-6.49L101.51,527a5.57,5.57,0,0,0,2,6.4,37.23,37.23,0,0,0,5.27,3.28c2.74,1.2,67.67-.83,67.67-.83Z"/><path class="cls-12" d="M175.4,406s8.44,4.15,13.61,17,.46,18.36-5.11,18.84-13.81-.11-22.08-8.68S164.4,401.06,175.4,406Z"/><path class="cls-9" d="M168.07,426.83s-5.49-18.66,10.74-18l3.67,2.88s6.52-9.8-3-15.19a20.8,20.8,0,0,0-29.21,11c-4.9,12.93-3,21.56,3.6,28.25s9.81-.29,9.81-.29-3.43-6.1-1.71-9.17,5,.94,5,.94Z"/><path class="cls-13" d="M168,427.92s-7.55-8-10.32-2.28,7.52,7.19,11.39,7.41Z"/><path class="cls-14" d="M143.79,536.45H144l67.89-.08a3,3,0,0,0,0-6.08l-67.9.08a3,3,0,0,0-.15,6.07Z"/><path class="cls-14" d="M272.88,474.81H216.34a10.78,10.78,0,0,0-9.75,6.18l-26.14,55.43h70.27a6.57,6.57,0,0,0,6.09-4.15L277.08,481A4.52,4.52,0,0,0,272.88,474.81Z"/><path class="cls-15" d="M233,503.23c-1.22,3.81-.32,7.5,2,8.26s5.24-1.72,6.46-5.53.32-7.51-2-8.26S234.27,499.42,233,503.23Z"/><path class="cls-16" d="M357,663a2.1,2.1,0,0,0,.87-.19,2.5,2.5,0,0,0,1.15-3.16L312.92,542.55A2.13,2.13,0,0,0,310,541.3a2.49,2.49,0,0,0-1.15,3.15L355,661.51A2.19,2.19,0,0,0,357,663Z"/><path class="cls-16" d="M305.07,663a2.2,2.2,0,0,0,2-1.45l46.13-117.06a2.48,2.48,0,0,0-1.15-3.15,2.12,2.12,0,0,0-2.89,1.25L303.05,659.61a2.49,2.49,0,0,0,1.15,3.16A2.07,2.07,0,0,0,305.07,663Z"/><path class="cls-16" d="M232.81,663a2.07,2.07,0,0,0,.87-.19,2.49,2.49,0,0,0,1.15-3.16L188.7,542.55a2.13,2.13,0,0,0-2.89-1.25,2.48,2.48,0,0,0-1.16,3.15l46.14,117.06A2.2,2.2,0,0,0,232.81,663Z"/><path class="cls-16" d="M180.84,663a2.2,2.2,0,0,0,2-1.45L229,544.45a2.48,2.48,0,0,0-1.16-3.15,2.13,2.13,0,0,0-2.89,1.25L178.82,659.61a2.49,2.49,0,0,0,1.15,3.16A2.07,2.07,0,0,0,180.84,663Z"/><path class="cls-16" d="M137.4,532.56a2.55,2.55,0,0,1,.61-2.23,3,3,0,0,1,2.25-1H359.94a3.4,3.4,0,0,1,2.82,1.44,2.91,2.91,0,0,1,.22,3l-3.19,6.41a4.5,4.5,0,0,1-4.06,2.41H142.28A3.31,3.31,0,0,1,139,540Z"/><path class="cls-17" d="M913.8,289.7s-38.41,49.19,5.42,99.21l16.48-1.53S904,336.45,918.1,295.85l23.35,1.7,12.9-8.41Z"/><path class="cls-18" d="M909.75,376.47c-.11-.15,6.82-20.92,6.82-20.92l9.92.9L930.37,380S914.82,383.15,909.75,376.47Z"/><path class="cls-19" d="M924.12,322.8c-.66.41-21.21,8.9-16.8,30.23a4,4,0,0,0,2.28,2.85,34.76,34.76,0,0,0,17.27,2.86c10.77-1.09,17.82-19.87,17.52-25.34S930.68,318.71,924.12,322.8Z"/><path class="cls-20" d="M769.87,119.33l243.66-4.12a17.09,17.09,0,0,1,17.11,18.27l-8.39,144.24a14.85,14.85,0,0,1-14.53,14.15l-234.23,2.32a10.8,10.8,0,0,1-10.78-10.53L757.1,133.13A13.17,13.17,0,0,1,769.87,119.33Z"/><path class="cls-21" d="M761.17,136.13A12.65,12.65,0,0,1,773.6,123l237.31-3.91a16.42,16.42,0,0,1,16.66,17.38L1019.4,273.7a14.31,14.31,0,0,1-14.16,13.46l-228.11,2.2a10.41,10.41,0,0,1-10.5-10Z"/><path class="cls-21" d="M766.2,140.23A12.06,12.06,0,0,1,778,127.73L1004,124a15.63,15.63,0,0,1,15.86,16.56l-7.77,130.67a13.64,13.64,0,0,1-13.48,12.82l-217.22,2.1a9.92,9.92,0,0,1-10-9.54Z"/><path class="cls-20" d="M1011.46,119l-238.3,3.94a12.7,12.7,0,0,0-12.49,13.18l.39,10.1H1027.6l.58-9.76A16.48,16.48,0,0,0,1011.46,119Z"/><path class="cls-22" d="M780.65,127.79a2.15,2.15,0,1,1-2.14-2.15A2.14,2.14,0,0,1,780.65,127.79Z"/><path class="cls-22" d="M780.65,134.07a2.15,2.15,0,1,1-2.14-2.15A2.14,2.14,0,0,1,780.65,134.07Z"/><path class="cls-22" d="M780.65,140.35a2.15,2.15,0,1,1-2.14-2.15A2.14,2.14,0,0,1,780.65,140.35Z"/><circle class="cls-22" cx="818.56" cy="199.92" r="33.97" transform="translate(435.92 950.65) rotate(-76.72)"/><circle class="cls-20" cx="818.56" cy="199.92" r="7.49"/><path class="cls-20" d="M836.77,212.18a21.82,21.82,0,1,1-18-34.08c.37,0,.74,0,1.1,0V172.6c-.36,0-.73,0-1.1,0a27.35,27.35,0,1,0,22.52,42.86Z"/><path class="cls-22" d="M878.48,174.08a5,5,0,1,1-5-5A5,5,0,0,1,878.48,174.08Z"/><path class="cls-22" d="M869.07,173.79a3.43,3.43,0,0,1,.07-.56Z"/><path class="cls-22" d="M878.48,204.26a5,5,0,1,1-5-5A5,5,0,0,1,878.48,204.26Z"/><path class="cls-22" d="M869.07,204a3.43,3.43,0,0,1,.07-.56Z"/><path class="cls-22" d="M878.48,234.43a5,5,0,1,1-5-5A5,5,0,0,1,878.48,234.43Z"/><path class="cls-22" d="M869.07,234.13a3.31,3.31,0,0,1,.07-.55Z"/><path class="cls-22" d="M886.14,173.82l0,.85c.06,2.3,1.49,4.12,3.25,4.13l96.84.2c1.81,0,3.28-1.91,3.28-4.28h0c0-2.33-1.43-4.23-3.2-4.27l-96.87-1C887.59,169.35,886.07,171.37,886.14,173.82Z"/><path class="cls-22" d="M886.14,203.85l0,.85c.06,2.29,1.49,4.11,3.25,4.12l96.84.21c1.81,0,3.28-1.92,3.28-4.29h0c0-2.32-1.43-4.22-3.2-4.27l-96.87-1.05C887.59,199.37,886.07,201.4,886.14,203.85Z"/><path class="cls-22" d="M886.14,233.88l0,.84c.06,2.3,1.49,4.12,3.25,4.13l96.84.2c1.81,0,3.28-1.91,3.28-4.28h0c0-2.33-1.43-4.22-3.2-4.27l-96.87-1.05C887.59,229.4,886.07,231.42,886.14,233.88Z"/><path class="cls-22" d="M1001.55,260.18a6,6,0,0,0-6.08-6.64l-207.9,3.69a6,6,0,0,0-5.83,7l.92,5.73a6,6,0,0,0,6,5.06l206.08-.81a6,6,0,0,0,5.94-5.37Z"/><path class="cls-23" d="M934.84,530.51S966,598.35,982.3,626.45c0,0,3.24,17.68,0,23.24l-2.76,1.23,12.9-.38s1.14-23.79.25-25.11a3.29,3.29,0,0,0-2.69-1.24s-5.53-43.83-21.55-53.18l-15.52-53.47Z"/><path class="cls-6" d="M974,654.25c0,.31,10.07.17,15.55.07a4.36,4.36,0,0,0,4.18-3.44l4.14-21.75a3.89,3.89,0,0,0-3-4.54l-2.31-.53s-3.29,4.52-2.26,8.78,2,15.29-.66,16.57-10.16,1.51-10.16,1.51S974.2,651.45,974,654.25Z"/><path class="cls-6" d="M905.34,654.65a1.13,1.13,0,0,0,.58,2.12c9.17-.09,29.73-.38,31.56-1.14,2.36-1-.86-9.45-4.25-12.32l-18.7,6.1Z"/><path class="cls-24" d="M899.54,526.19s20.11,97.3,25.8,116.28l-13.46,8.45s6.75-1.15,11.75-1.51,9.6-6.1,9.6-6.1l-1.61-2.57S926.58,544,927.8,533Z"/><path class="cls-25" d="M849.61,299.23s-2.78,50.61,43.31,76.48L881.82,401S840.1,375.78,841.64,307a7.94,7.94,0,0,0-1.95-5.39l-8.87-10.29A15.94,15.94,0,0,1,827.43,277l1.17-4.66a2.42,2.42,0,0,1,3.56-1.51l.93.54a16.32,16.32,0,0,1,6.68,7.43l4.36,9.74c1.62,3.63,5.48,3.38,9.45,3l6.36,1.5Z"/><path class="cls-6" d="M891.31,371.91c7.71,2.14,33.83,9,50.14,8.73l-10,56.5.79,9.21-32.64-.14s-9.19-21.34-16.44-32c-2.09-3.08-.53-6.74.65-10.26l-1.63-1.09a4.46,4.46,0,0,1-1.76-5.07l8-24.32A2.44,2.44,0,0,1,891.31,371.91Z"/><path class="cls-8" d="M897,441.39l.64,5.58s-9.23,27.62,4.61,92.15c0,0,30,8.48,54.6-11.83,0,0-7-60.9-8.85-63.74-9.45-14.12-15.75-17.2-15.75-17.2l-.28-6.1S905.61,445,897,441.39Z"/><path class="cls-9" d="M930.37,314.5c-.54.07-11.87,4-6.25,12.23s7.73,13,5.07,16.66c-2.42,3.28-7.79,1.41-7.32,8.25a3.85,3.85,0,0,1-1.63,3.46c-5.06,3.42-17.4,14-5.17,29a3.84,3.84,0,0,1,.43,4.28c-3.58,6.42-11.1,25.23,16.12,35.66,26.9,10.31,36.61-7.27,39.32-14.3a3.75,3.75,0,0,1,3.71-2.37c3,.14,7.15-.35,7-4.3-.11-2.4-1.61-4.55-3.38-6.28a3.75,3.75,0,0,1,.72-5.9,7.31,7.31,0,0,0,3.63-4.56c1.63-6-1.63-24.1-18.94-27.16a4.08,4.08,0,0,1-3.16-3.06V356a3.72,3.72,0,0,1,1.39-3.68c2.76-2,6.3-6.11,3.43-12.66a14.19,14.19,0,0,0-11.09-8.39,3.77,3.77,0,0,1-3.09-4.51C952.32,321,951.25,311.76,930.37,314.5Z"/><path class="cls-8" d="M779.24,157.55a46.54,46.54,0,0,0-26.51-39L555.2,24.73a46.6,46.6,0,0,0-40,0L317.68,118.54a46.54,46.54,0,0,0-26.51,39C272.64,444,456.28,548.31,516.48,574.67a46.66,46.66,0,0,0,37.45,0C614.13,548.31,797.77,444,779.24,157.55Z"/><path class="cls-26" d="M475.45,64.4a3,3,0,0,1-1.27-5.62l46.68-22.17A3,3,0,1,1,523.39,42L476.72,64.12A3,3,0,0,1,475.45,64.4Z"/><path class="cls-26" d="M306.28,219a3,3,0,0,1-2.95-2.85c-.63-18.63-.3-38.06,1-57.74a33.4,33.4,0,0,1,19-28L456.21,67.32a2.95,2.95,0,0,1,2.53,5.33L325.86,135.76a27.5,27.5,0,0,0-15.66,23c-1.26,19.49-1.59,38.72-1,57.16a3,3,0,0,1-2.85,3.05Z"/><path class="cls-26" d="M731.47,168.73a11.64,11.64,0,0,0-6.62-9.92L540.19,71.11a11.61,11.61,0,0,0-10,0l-184.66,87.7a11.64,11.64,0,0,0-6.62,9.92c-5.46,106.84,19.22,196,73.4,265.07a327.55,327.55,0,0,0,118,94.08,11.65,11.65,0,0,0,9.83,0,327.55,327.55,0,0,0,118-94.08C712.25,364.71,736.93,275.56,731.47,168.73Z"/><path class="cls-27" d="M480.61,283.51H462.2V210.17a57.09,57.09,0,0,1,50.16-56.62L550,149a57,57,0,0,1,63.93,56.63v64H595.51v-64a38.65,38.65,0,0,0-43.3-38.36l-37.63,4.58a38.66,38.66,0,0,0-34,38.35Z"/><path class="cls-27" d="M456.76,267.05l161.33-8.94a11.44,11.44,0,0,1,12.07,11.42v127.8a11.44,11.44,0,0,1-11.44,11.44H461.27a11.44,11.44,0,0,1-11.43-11.06L446,278.84A11.43,11.43,0,0,1,456.76,267.05Z"/><path class="cls-28" d="M564.36,372.15l-9.76-28.07a9.38,9.38,0,0,1,2.13-9.69,26.59,26.59,0,1,0-35.66,2,9.47,9.47,0,0,1,3.08,10.47l-8.8,25.31a9.48,9.48,0,0,0,8.94,12.59h31.12A9.48,9.48,0,0,0,564.36,372.15Z"/></svg>