<svg width="1088" height="688" viewBox="0 0 1088 688" fill="none" xmlns="http://www.w3.org/2000/svg">
<path d="M292.7 72C292.12 165.79 290.53 489.3 295.32 603.86C295.83 616 304.32 625.62 314.68 625.86C366.04 627.06 554.29 629.21 638.19 623.86C655.67 622.74 669.33 605.96 669.38 585.48C669.65 487.04 669.38 210.19 658.29 83.48C657 68.28 646.59 56.33 633.6 55C577.6 49.29 388.37 36.14 315.92 42.73C302.85 43.93 292.79 56.62 292.7 72Z" fill="#534E66"/>
<path d="M316 100.38C314.37 176.1 309.44 428 313.6 521.05C314.21 534.65 323.54 545.52 335.17 546.14C383.06 548.7 546.38 553.47 616.45 545.84C629.07 544.47 638.8 532.37 639.26 517.55C641.66 440.29 648.35 205.71 644.32 113.69C643.7 99 633.8 87.17 621.27 86C569.43 81.34 395.81 71 336.27 75.71C325.06 76.63 316.31 87.27 316 100.38Z" fill="#3A374F"/>
<path d="M419.37 57.58C419.37 60.46 421.37 62.8 423.82 62.91C435.96 63.47 470.14 65.06 485.42 65.91C488.42 66.07 490.75 62.91 490.13 59.41L490.02 58.83C489.882 57.7577 489.4 56.759 488.646 55.9838C487.893 55.2085 486.908 54.6985 485.84 54.53C475.51 53.53 444.33 50.98 423.71 52.15C421.24 52.25 419.32 54.68 419.37 57.58Z" fill="#3A374F"/>
<path d="M499.15 254.64L378.52 253.4C377.06 253.4 375.85 254.98 375.83 256.96L375.78 262.02C375.78 264.02 376.93 265.62 378.39 265.64L499 266.88C500.46 266.88 501.66 265.3 501.69 263.32L501.74 258.26C501.78 256.28 500.61 254.66 499.15 254.64Z" fill="#20B24D"/>
<path d="M523.948 254.901L511.149 254.769C508.735 254.744 506.759 256.681 506.734 259.094L506.698 262.594C506.673 265.007 508.609 266.984 511.023 267.009L523.822 267.14C526.236 267.165 528.212 265.229 528.237 262.816L528.273 259.316C528.298 256.903 526.362 254.926 523.948 254.901Z" fill="#20B24D"/>
<path d="M534.734 256.005L534.628 266.245C534.623 266.797 535.066 267.249 535.618 267.255L599.154 267.909C599.707 267.915 600.159 267.472 600.165 266.92L600.27 256.68C600.276 256.128 599.833 255.676 599.281 255.67L535.744 255.016C535.192 255.01 534.739 255.453 534.734 256.005Z" fill="#20B24D"/>
<path d="M376.073 233.788L375.968 244.028C375.962 244.58 376.405 245.032 376.958 245.038L464.103 245.935C464.655 245.941 465.108 245.498 465.113 244.946L465.219 234.706C465.224 234.154 464.781 233.702 464.229 233.696L377.084 232.799C376.531 232.793 376.079 233.236 376.073 233.788Z" fill="#20B24D"/>
<path d="M479.637 233.856L473.127 233.789C470.714 233.764 468.737 235.7 468.712 238.114L468.676 241.614C468.652 244.027 470.588 246.003 473.001 246.028L479.511 246.095C481.924 246.12 483.901 244.184 483.926 241.771L483.962 238.271C483.986 235.857 482.05 233.881 479.637 233.856Z" fill="#20B24D"/>
<path d="M488.55 234.943L488.445 245.182C488.439 245.735 488.882 246.187 489.434 246.193L533.832 246.65C534.384 246.656 534.837 246.213 534.842 245.66L534.948 235.421C534.953 234.869 534.51 234.416 533.958 234.411L489.56 233.953C489.008 233.948 488.556 234.391 488.55 234.943Z" fill="#20B24D"/>
<path d="M534.63 205.37L414 204.13C412.54 204.13 411.34 205.71 411.32 207.69L411.26 212.75C411.26 214.75 412.41 216.35 413.87 216.36L534.5 217.61C535.97 217.61 537.17 216.03 537.19 214.04V209.04C537.26 207 536.09 205.38 534.63 205.37Z" fill="#53506D"/>
<path d="M559.434 205.639L546.634 205.507C544.221 205.482 542.244 207.419 542.22 209.832L542.184 213.332C542.159 215.745 544.095 217.722 546.508 217.747L559.308 217.878C561.721 217.903 563.698 215.967 563.722 213.554L563.758 210.054C563.783 207.64 561.847 205.664 559.434 205.639Z" fill="#53506D"/>
<path d="M570.202 206.73L570.096 216.969C570.09 217.521 570.534 217.974 571.086 217.979L634.622 218.634C635.175 218.639 635.627 218.196 635.633 217.644L635.738 207.405C635.744 206.852 635.301 206.4 634.749 206.394L571.212 205.74C570.66 205.734 570.207 206.178 570.202 206.73Z" fill="#53506D"/>
<path d="M515.742 184.59L509.233 184.523C506.819 184.498 504.843 186.435 504.818 188.848L504.782 192.348C504.757 194.761 506.693 196.738 509.107 196.763L515.616 196.83C518.03 196.854 520.006 194.918 520.031 192.505L520.067 189.005C520.092 186.592 518.156 184.615 515.742 184.59Z" fill="#53506D"/>
<path d="M386.171 162.714L386.066 172.953C386.06 173.505 386.503 173.958 387.055 173.963L441.342 174.522C441.895 174.528 442.347 174.085 442.353 173.533L442.458 163.293C442.464 162.741 442.021 162.289 441.468 162.283L387.181 161.724C386.629 161.718 386.177 162.161 386.171 162.714Z" fill="#53506D"/>
<path d="M449.954 162.364L449.064 162.355C446.651 162.33 444.674 164.266 444.65 166.68L444.614 170.179C444.589 172.593 446.525 174.569 448.938 174.594L449.828 174.603C452.242 174.628 454.218 172.692 454.243 170.279L454.279 166.779C454.304 164.365 452.368 162.389 449.954 162.364Z" fill="#53506D"/>
<path d="M500.45 127.91L379.82 126.67C378.36 126.67 377.16 128.25 377.14 130.24L377.09 135.24C377.09 137.24 378.23 138.84 379.7 138.86L500.33 140.1C501.79 140.1 502.99 138.52 503.01 136.54L503.06 131.48C503.08 129.55 501.91 127.93 500.45 127.91Z" fill="#F15931"/>
<path d="M500.45 127.91L379.82 126.67C378.36 126.67 377.16 128.25 377.14 130.24L377.09 135.24C377.09 137.24 378.23 138.84 379.7 138.86L500.33 140.1C501.79 140.1 502.99 138.52 503.01 136.54L503.06 131.48C503.08 129.55 501.91 127.93 500.45 127.91Z" fill="#F15931"/>
<path d="M500.45 127.91L379.82 126.67C378.36 126.67 377.16 128.25 377.14 130.24L377.09 135.24C377.09 137.24 378.23 138.84 379.7 138.86L500.33 140.1C501.79 140.1 502.99 138.52 503.01 136.54L503.06 131.48C503.08 129.55 501.91 127.93 500.45 127.91Z" fill="#F15931"/>
<path d="M525.253 128.171L512.454 128.039C510.04 128.015 508.064 129.951 508.039 132.364L508.003 135.864C507.978 138.277 509.914 140.254 512.328 140.279L525.127 140.411C527.54 140.435 529.517 138.499 529.542 136.086L529.578 132.586C529.603 130.173 527.666 128.196 525.253 128.171Z" fill="#53506D"/>
<path d="M536.034 129.28L535.928 139.52C535.923 140.072 536.366 140.524 536.918 140.53L600.455 141.184C601.007 141.19 601.459 140.747 601.465 140.195L601.57 129.955C601.576 129.403 601.133 128.951 600.581 128.945L537.044 128.291C536.492 128.285 536.039 128.728 536.034 129.28Z" fill="#53506D"/>
<path d="M360.259 253.816L333.95 253.545C331.537 253.52 329.56 255.456 329.535 257.869L329.499 261.369C329.474 263.783 331.411 265.759 333.824 265.784L360.133 266.055C362.546 266.08 364.523 264.144 364.547 261.73L364.583 258.23C364.608 255.817 362.672 253.84 360.259 253.816Z" fill="#F15931"/>
<path d="M360.259 253.816L333.95 253.545C331.537 253.52 329.56 255.456 329.535 257.869L329.499 261.369C329.474 263.783 331.411 265.759 333.824 265.784L360.133 266.055C362.546 266.08 364.523 264.144 364.547 261.73L364.583 258.23C364.608 255.817 362.672 253.84 360.259 253.816Z" fill="#F15931"/>
<path d="M360.259 253.816L333.95 253.545C331.537 253.52 329.56 255.456 329.535 257.869L329.499 261.369C329.474 263.783 331.411 265.759 333.824 265.784L360.133 266.055C362.546 266.08 364.523 264.144 364.547 261.73L364.583 258.23C364.608 255.817 362.672 253.84 360.259 253.816Z" fill="#F15931"/>
<path d="M360.471 233.229L334.162 232.958C331.749 232.933 329.772 234.869 329.747 237.283L329.711 240.783C329.686 243.196 331.623 245.172 334.036 245.197L360.345 245.468C362.758 245.493 364.735 243.557 364.759 241.143L364.795 237.644C364.82 235.23 362.884 233.254 360.471 233.229Z" fill="#F15931"/>
<path d="M360.471 233.229L334.162 232.958C331.749 232.933 329.772 234.869 329.747 237.283L329.711 240.783C329.686 243.196 331.623 245.172 334.036 245.197L360.345 245.468C362.758 245.493 364.735 243.557 364.759 241.143L364.795 237.644C364.82 235.23 362.884 233.254 360.471 233.229Z" fill="#F15931"/>
<path d="M360.471 233.229L334.162 232.958C331.749 232.933 329.772 234.869 329.747 237.283L329.711 240.783C329.686 243.196 331.623 245.172 334.036 245.197L360.345 245.468C362.758 245.493 364.735 243.557 364.759 241.143L364.795 237.644C364.82 235.23 362.884 233.254 360.471 233.229Z" fill="#F15931"/>
<path d="M361.202 162.17L334.894 161.899C332.48 161.874 330.504 163.811 330.479 166.224L330.443 169.724C330.418 172.137 332.354 174.114 334.768 174.139L361.076 174.41C363.49 174.434 365.466 172.498 365.491 170.085L365.527 166.585C365.552 164.172 363.616 162.195 361.202 162.17Z" fill="#53506D"/>
<path d="M361.564 127.086L335.255 126.815C332.842 126.79 330.865 128.726 330.84 131.14L330.804 134.639C330.779 137.053 332.716 139.029 335.129 139.054L361.438 139.325C363.851 139.35 365.827 137.414 365.852 135L365.888 131.5C365.913 129.087 363.977 127.111 361.564 127.086Z" fill="#F15931"/>
<path d="M361.564 127.086L335.255 126.815C332.842 126.79 330.865 128.726 330.84 131.14L330.804 134.639C330.779 137.053 332.716 139.029 335.129 139.054L361.438 139.325C363.851 139.35 365.827 137.414 365.852 135L365.888 131.5C365.913 129.087 363.977 127.111 361.564 127.086Z" fill="#F15931"/>
<path d="M361.564 127.086L335.255 126.815C332.842 126.79 330.865 128.726 330.84 131.14L330.804 134.639C330.779 137.053 332.716 139.029 335.129 139.054L361.438 139.325C363.851 139.35 365.827 137.414 365.852 135L365.888 131.5C365.913 129.087 363.977 127.111 361.564 127.086Z" fill="#F15931"/>
<path d="M514.26 485.33L393.63 484.09C392.17 484.09 390.97 485.67 390.95 487.65L390.9 492.71C390.9 494.71 392.04 496.31 393.51 496.32L514.14 497.56C515.6 497.56 516.8 495.98 516.82 494V488.94C516.89 487 515.72 485.34 514.26 485.33Z" fill="#F15931"/>
<path d="M514.26 485.33L393.63 484.09C392.17 484.09 390.97 485.67 390.95 487.65L390.9 492.71C390.9 494.71 392.04 496.31 393.51 496.32L514.14 497.56C515.6 497.56 516.8 495.98 516.82 494V488.94C516.89 487 515.72 485.34 514.26 485.33Z" fill="#F15931"/>
<path d="M353.543 484.554L327.235 484.283C324.821 484.259 322.845 486.195 322.82 488.608L322.784 492.108C322.759 494.521 324.695 496.498 327.109 496.523L353.417 496.794C355.83 496.819 357.807 494.882 357.832 492.469L357.868 488.969C357.893 486.556 355.956 484.579 353.543 484.554Z" fill="#F15931"/>
<path d="M353.543 484.554L327.235 484.283C324.821 484.259 322.845 486.195 322.82 488.608L322.784 492.108C322.759 494.521 324.695 496.498 327.109 496.523L353.417 496.794C355.83 496.819 357.807 494.882 357.832 492.469L357.868 488.969C357.893 486.556 355.956 484.579 353.543 484.554Z" fill="#F15931"/>
<path d="M353.543 484.554L327.235 484.283C324.821 484.259 322.845 486.195 322.82 488.608L322.784 492.108C322.759 494.521 324.695 496.498 327.109 496.523L353.417 496.794C355.83 496.819 357.807 494.882 357.832 492.469L357.868 488.969C357.893 486.556 355.956 484.579 353.543 484.554Z" fill="#F15931"/>
<path d="M353.755 463.958L327.447 463.687C325.033 463.662 323.057 465.598 323.032 468.011L322.996 471.511C322.971 473.925 324.907 475.901 327.321 475.926L353.629 476.197C356.042 476.222 358.019 474.285 358.044 471.872L358.08 468.372C358.105 465.959 356.169 463.982 353.755 463.958Z" fill="#53506D"/>
<path d="M354.05 435.342L327.741 435.071C325.328 435.046 323.351 436.983 323.326 439.396L323.29 442.896C323.266 445.309 325.202 447.286 327.615 447.31L353.924 447.581C356.337 447.606 358.314 445.67 358.339 443.257L358.375 439.757C358.399 437.343 356.463 435.367 354.05 435.342Z" fill="#53506D"/>
<path d="M236.79 563.07H228.92V648.21H236.79V563.07Z" fill="#669CD3"/>
<path d="M198.37 649.86H267.37V646.16C267.37 645.782 267.221 645.42 266.955 645.152C266.689 644.884 266.328 644.733 265.95 644.73H199.95C199.542 644.73 199.15 644.892 198.861 645.181C198.572 645.47 198.41 645.862 198.41 646.27L198.37 649.86Z" fill="#669CD3"/>
<path d="M268.47 542.8H194.33C189.359 542.8 185.33 546.829 185.33 551.8V559.93C185.33 564.901 189.359 568.93 194.33 568.93H268.47C273.441 568.93 277.47 564.901 277.47 559.93V551.8C277.47 546.829 273.441 542.8 268.47 542.8Z" fill="#669CD3"/>
<path d="M276.7 633.13C276.7 633.13 299.19 649.34 295.28 660.22C295.28 660.22 270.68 649.61 267.71 641.22C264.74 632.83 268.22 629.22 268.22 629.22L276.7 633.13Z" fill="#2C2B3F"/>
<path d="M273.33 619.55L269.65 630.18C269.37 630.959 269.358 631.81 269.618 632.596C269.877 633.383 270.391 634.06 271.08 634.52C272.023 635.081 273.054 635.476 274.13 635.69C275.051 635.903 276.016 635.807 276.876 635.416C277.736 635.026 278.444 634.363 278.89 633.53L283.28 625.25L273.33 619.55Z" fill="url(#paint0_linear)"/>
<path d="M237.55 523.89C237.55 523.89 283.73 531.89 303.55 550.2C323.37 568.51 285.37 626.87 285.37 626.87C285.37 626.87 279.14 626.87 271.6 620.36C271.6 620.36 294.12 576.46 274.71 563.66C252.89 549.27 227.71 546.03 227.71 546.03L237.08 525.31L237.55 523.89Z" fill="#437DC0"/>
<path d="M291.38 654.2C286.43 651.91 272.43 642.12 270.07 641.68C267.71 641.24 263.62 644.02 263.62 644.02C263.62 644.02 262.62 645.82 263.69 648.94C266.97 652.94 274.27 660.49 284.08 663.32C291.29 665.4 296.34 663.46 299.48 661.19C297.431 658.198 294.64 655.789 291.38 654.2V654.2Z" fill="#403D58"/>
<path d="M284.08 663.32C274.27 660.49 266.97 652.91 263.69 648.94C264.41 651.05 266.07 653.77 269.61 656.94C278.41 664.85 295.2 667.7 298.78 667.15C301.64 666.71 301.37 664.06 299.48 661.15C296.34 663.46 291.29 665.4 284.08 663.32Z" fill="#403D58"/>
<path d="M259.43 637.11C259.48 638.47 262.27 643.11 263.89 645.76C264.271 646.372 264.801 646.877 265.431 647.226C266.061 647.576 266.769 647.76 267.49 647.76C268.502 647.788 269.512 647.67 270.49 647.41C271.189 647.199 271.777 646.72 272.124 646.077C272.471 645.434 272.548 644.68 272.34 643.98L269.16 633.12L259.43 637.11Z" fill="url(#paint1_linear)"/>
<path d="M193.1 510C193.1 510 182.85 537.43 193.1 545.76C203.35 554.09 227.82 563.49 233.29 580.1C238.76 596.71 248 629 260.44 640.45C260.44 640.45 269.16 639.61 272.44 636.13C272.44 636.13 265.37 587.95 260.71 575.58C256.71 564.87 250.71 549.42 239.32 540.78C236.06 538.31 236.63 534.39 238.14 530.58L240.9 523.66L193.1 510Z" fill="#437DC0"/>
<path d="M300.06 488.54C282.86 489.54 288.22 462.11 288.53 461.01L262.43 479.45C262.43 479.45 263.81 494.14 285.51 501.84C290.291 503.607 295.474 503.985 300.46 502.93C298.837 498.291 298.697 493.262 300.06 488.54V488.54Z" fill="#F15931"/>
<path d="M333.31 480.27C326.9 475.82 319.64 480.27 319.64 480.27C311.07 485.88 304.73 488.27 300.06 488.54C298.697 493.262 298.837 498.291 300.46 502.93C310.05 500.86 316.92 493.93 319.9 490.35C320.415 489.732 321.15 489.337 321.95 489.25C322.75 489.162 323.553 489.388 324.19 489.88C325.53 490.94 326.82 492.38 326.59 493.88C326.13 496.88 329.59 497.82 329.86 496.74C330.13 495.66 328.67 489.22 328.67 489.22C328.67 489.22 335.62 496.22 338.34 498.89C341.06 501.56 344.46 498.89 344.46 498.89C344.46 498.89 339.71 484.73 333.31 480.27Z" fill="url(#paint2_linear)"/>
<path d="M219.88 418.59C219.88 418.59 244.88 408.59 291.45 447.01C291.45 447.01 295.34 455.06 291.1 462.22C286.86 469.38 246.43 504.3 240.88 523.66C240.88 523.66 216.8 531.48 191.88 512.93C191.89 512.93 194.09 459.05 219.88 418.59Z" fill="#F15931"/>
<path d="M269.33 409.65L257 424.58C256.399 425.304 256.018 426.186 255.903 427.12C255.788 428.054 255.943 429.001 256.35 429.85C258.06 433.34 262.12 438.41 271.11 437.71C272.427 437.608 273.694 437.163 274.785 436.419C275.877 435.675 276.754 434.659 277.33 433.47L285.94 415.67L269.33 409.65Z" fill="url(#paint3_linear)"/>
<path d="M200.51 482.53C197.61 470.7 227.02 444.33 227.02 444.33L219.88 418.59C219.88 418.59 156.36 460.87 172.55 494.88C174.481 499.189 177.604 502.857 181.55 505.45C186.64 491.68 194.79 485.37 200.51 482.53Z" fill="#F15931"/>
<path d="M200.49 480.81C200.335 480.81 200.185 480.757 200.063 480.661C199.942 480.565 199.856 480.431 199.82 480.28C196.82 468.18 225.33 442.49 226.54 441.4C226.602 441.323 226.68 441.26 226.768 441.216C226.857 441.171 226.954 441.146 227.053 441.143C227.152 441.139 227.25 441.157 227.342 441.195C227.433 441.233 227.516 441.29 227.583 441.362C227.65 441.435 227.701 441.521 227.733 441.615C227.764 441.709 227.774 441.809 227.764 441.907C227.753 442.005 227.721 442.1 227.671 442.186C227.62 442.271 227.551 442.344 227.47 442.4C227.18 442.67 198.39 468.63 201.17 479.92C201.212 480.099 201.183 480.287 201.087 480.445C200.992 480.602 200.838 480.715 200.66 480.76L200.49 480.81Z" fill="#D84427"/>
<path d="M245.07 481.51C245.07 481.51 210.19 495.05 201.68 484.87C201.113 484.192 200.713 483.39 200.51 482.53C194.79 485.37 186.64 491.68 181.51 505.45C199.86 517.17 231.21 498.93 239.69 493.55C241.08 492.669 242.757 492.36 244.37 492.69C247.64 493.37 253.29 494.37 256.37 493.9C260.82 493.21 267.22 508.9 274.45 504.08C274.43 504.08 268.24 476.76 245.07 481.51Z" fill="url(#paint4_linear)"/>
<path d="M296.13 387.72C296.25 388.2 293.24 420.84 293.24 420.84L274.64 418.72L272.9 387.37C272.9 387.37 294.05 379.69 296.13 387.72Z" fill="url(#paint5_linear)"/>
<path d="M277.75 393.87L277.37 410.44C277.368 410.652 277.392 410.864 277.44 411.07C277.77 412.33 279.2 416.58 283.44 414.85C287.31 413.29 290.87 411.91 293.44 412.41C294.006 412.515 294.513 412.827 294.86 413.286C295.208 413.745 295.372 414.317 295.32 414.89C294.866 420.061 294.014 425.19 292.77 430.23C292.617 430.786 292.261 431.265 291.772 431.573C291.284 431.88 290.698 431.993 290.13 431.89C286.58 431.26 279.13 429.73 273.42 427.1C273.035 426.921 272.705 426.64 272.467 426.287C272.229 425.935 272.092 425.525 272.07 425.1C271.79 420.96 270.9 408.36 270.07 404.89C269.32 401.64 265.07 400.11 263.22 399.59C262.922 399.506 262.645 399.362 262.404 399.168C262.164 398.974 261.965 398.733 261.82 398.46C260.82 396.51 259.14 391.91 264.88 389.32C265.164 389.192 265.419 389.009 265.631 388.78C265.842 388.552 266.006 388.283 266.111 387.99C266.217 387.697 266.262 387.385 266.245 387.075C266.227 386.764 266.147 386.459 266.01 386.18C264.86 383.82 264.08 380.12 268.46 377.55C272.84 374.98 276.68 377.05 278.79 378.87C279.207 379.229 279.74 379.426 280.29 379.426C280.84 379.426 281.373 379.229 281.79 378.87C282.08 378.636 282.435 378.496 282.807 378.47C283.178 378.443 283.549 378.53 283.87 378.72C284.16 378.852 284.474 378.922 284.792 378.925C285.11 378.929 285.426 378.866 285.718 378.741C286.011 378.616 286.274 378.431 286.492 378.198C286.709 377.966 286.875 377.69 286.98 377.39C287.85 374.97 289.86 372.25 294.53 372.53C302.81 373.03 304.72 381.94 303.16 387.46C301.6 392.98 292.71 392 288 389.81C284.45 388.15 280.36 390.75 278.61 392.09C278.341 392.302 278.124 392.573 277.975 392.881C277.826 393.189 277.749 393.527 277.75 393.87V393.87Z" fill="#403D58"/>
<path d="M270.09 411C270.09 411 272.4 401.27 268.72 399.36C265.04 397.45 260.08 399.19 261.94 405.85C264.26 414.11 270.09 411 270.09 411Z" fill="url(#paint6_linear)"/>
<path d="M262.93 508.21H263.1L336.28 508.13C336.725 508.155 337.171 508.088 337.59 507.935C338.008 507.781 338.391 507.544 338.715 507.237C339.039 506.931 339.297 506.562 339.474 506.152C339.65 505.742 339.741 505.301 339.741 504.855C339.741 504.409 339.65 503.968 339.474 503.558C339.297 503.148 339.039 502.779 338.715 502.472C338.391 502.166 338.008 501.929 337.59 501.775C337.171 501.622 336.725 501.555 336.28 501.58L263.1 501.66C262.233 501.639 261.393 501.963 260.764 502.561C260.136 503.159 259.771 503.983 259.75 504.85C259.729 505.717 260.053 506.557 260.651 507.186C261.249 507.814 262.073 508.179 262.94 508.2L262.93 508.21Z" fill="#20B24D"/>
<path d="M402.06 441.77H341.12C338.917 441.771 336.76 442.397 334.899 443.576C333.039 444.755 331.551 446.439 330.61 448.43L302.44 508.17H378.17C379.586 508.178 380.971 507.755 382.143 506.959C383.314 506.163 384.216 505.03 384.73 503.71L406.58 448.43C406.872 447.692 406.979 446.894 406.891 446.106C406.804 445.317 406.526 444.562 406.081 443.905C405.635 443.249 405.036 442.711 404.335 442.339C403.634 441.967 402.853 441.772 402.06 441.77V441.77Z" fill="#20B24D"/>
<path d="M359.12 472.4C357.8 476.51 358.78 480.49 361.3 481.3C363.82 482.11 366.94 479.45 368.3 475.35C369.66 471.25 368.65 467.26 366.12 466.45C363.59 465.64 360.44 468.3 359.12 472.4Z" fill="#73C37B"/>
<path d="M392.18 665.16C392.596 665.159 393.008 665.074 393.39 664.91C393.757 664.764 394.09 664.547 394.371 664.269C394.652 663.992 394.874 663.661 395.025 663.297C395.175 662.932 395.25 662.54 395.246 662.146C395.242 661.751 395.158 661.362 395 661L330.51 515.86C330.17 515.137 329.565 514.573 328.821 514.283C328.077 513.992 327.25 513.999 326.51 514.3C325.777 514.607 325.196 515.192 324.894 515.927C324.593 516.662 324.595 517.487 324.9 518.22L389.39 663.36C389.636 663.894 390.028 664.348 390.523 664.667C391.017 664.985 391.592 665.157 392.18 665.16V665.16Z" fill="#C0CFEB"/>
<path d="M319.53 665.16C320.124 665.163 320.705 664.996 321.206 664.676C321.706 664.357 322.103 663.9 322.35 663.36L386.84 518.22C387.145 517.486 387.147 516.662 386.846 515.927C386.544 515.192 385.963 514.607 385.23 514.3C384.491 513.996 383.662 513.988 382.918 514.279C382.173 514.569 381.568 515.136 381.23 515.86L316.7 661C316.542 661.361 316.458 661.751 316.454 662.146C316.45 662.54 316.525 662.932 316.676 663.296C316.826 663.661 317.048 663.992 317.329 664.269C317.609 664.547 317.943 664.764 318.31 664.91C318.696 665.075 319.111 665.16 319.53 665.16V665.16Z" fill="#C0CFEB"/>
<path d="M192.55 665.16C192.969 665.16 193.384 665.075 193.77 664.91C194.137 664.764 194.471 664.547 194.751 664.269C195.032 663.992 195.254 663.661 195.405 663.297C195.555 662.932 195.63 662.54 195.626 662.146C195.622 661.751 195.538 661.362 195.38 661L130.89 515.86C130.548 515.139 129.943 514.576 129.2 514.286C128.456 513.996 127.63 514.001 126.89 514.3C126.157 514.607 125.576 515.192 125.274 515.927C124.973 516.662 124.975 517.487 125.28 518.22L189.77 663.36C190.014 663.894 190.405 664.347 190.897 664.665C191.39 664.984 191.963 665.156 192.55 665.16Z" fill="#C0CFEB"/>
<path d="M119.9 665.16C120.495 665.163 121.078 664.995 121.579 664.676C122.081 664.357 122.481 663.9 122.73 663.36L187.22 518.22C187.525 517.486 187.527 516.662 187.226 515.927C186.924 515.192 186.343 514.607 185.61 514.3C184.871 513.996 184.042 513.988 183.298 514.279C182.553 514.569 181.948 515.136 181.61 515.86L117.08 661C116.922 661.361 116.838 661.751 116.834 662.146C116.83 662.54 116.905 662.932 117.055 663.296C117.206 663.661 117.428 663.992 117.709 664.269C117.989 664.547 118.323 664.764 118.69 664.91C119.072 665.075 119.484 665.16 119.9 665.16Z" fill="#C0CFEB"/>
<path d="M112.34 511.38C112.256 510.915 112.267 510.438 112.372 509.978C112.477 509.517 112.673 509.083 112.95 508.7C113.203 508.34 113.538 508.045 113.928 507.84C114.317 507.635 114.75 507.525 115.19 507.52H408.57C409.149 507.531 409.714 507.697 410.208 507.999C410.702 508.301 411.107 508.73 411.38 509.24C411.683 509.782 411.861 510.385 411.899 511.005C411.937 511.625 411.835 512.245 411.6 512.82L408.42 520.53C408.112 521.352 407.568 522.065 406.856 522.579C406.145 523.093 405.297 523.385 404.42 523.42H117.2C116.376 523.384 115.591 523.056 114.985 522.496C114.379 521.936 113.991 521.179 113.89 520.36L112.34 511.38Z" fill="#C0CFEB"/>
<path d="M795.21 293.21H568.46C564.025 293.21 559.749 291.556 556.468 288.571C553.188 285.586 551.138 281.485 550.72 277.07L536.43 125.45C536.204 123.011 536.483 120.552 537.251 118.226C538.018 115.9 539.257 113.758 540.89 111.932C542.523 110.107 544.515 108.638 546.742 107.617C548.968 106.596 551.381 106.046 553.83 106L794.83 101.41C797.196 101.362 799.549 101.786 801.749 102.658C803.95 103.53 805.954 104.832 807.646 106.487C809.338 108.142 810.683 110.118 811.602 112.299C812.521 114.481 812.996 116.823 813 119.19V275.39C813.003 280.112 811.13 284.641 807.794 287.983C804.458 291.325 799.932 293.205 795.21 293.21Z" fill="#656075"/>
<path d="M550.92 139L561.06 270.11C561.268 272.859 562.5 275.43 564.513 277.313C566.526 279.196 569.173 280.255 571.93 280.28L789.56 282.56C791.015 282.577 792.46 282.305 793.809 281.76C795.159 281.215 796.387 280.408 797.422 279.384C798.458 278.361 799.279 277.143 799.84 275.8C800.401 274.457 800.69 273.016 800.69 271.56V130.35C800.691 128.872 800.394 127.409 799.817 126.048C799.24 124.688 798.395 123.457 797.332 122.431C796.268 121.404 795.009 120.602 793.629 120.073C792.249 119.543 790.777 119.298 789.3 119.35L561.53 127.1C560.04 127.148 558.574 127.498 557.224 128.13C555.873 128.761 554.665 129.661 553.672 130.774C552.68 131.887 551.924 133.19 551.451 134.604C550.978 136.018 550.797 137.514 550.92 139V139Z" fill="#7B7B8E"/>
<path d="M667.11 137.77L789.83 134.09C790.129 134.082 790.427 134.134 790.706 134.243C790.984 134.352 791.238 134.516 791.453 134.724C791.667 134.933 791.838 135.183 791.954 135.459C792.07 135.734 792.13 136.031 792.13 136.33V138.33C792.13 138.916 791.899 139.479 791.488 139.896C791.076 140.314 790.516 140.552 789.93 140.56L667.2 142.26C666.905 142.263 666.612 142.207 666.339 142.096C666.066 141.985 665.817 141.822 665.607 141.615C665.397 141.407 665.23 141.161 665.115 140.889C665.001 140.617 664.941 140.325 664.94 140.03V140.03C664.932 139.444 665.155 138.878 665.561 138.455C665.967 138.032 666.524 137.786 667.11 137.77V137.77Z" fill="#9393A3"/>
<path d="M789.9 148.05H667.17C665.938 148.05 664.94 149.048 664.94 150.28V151.13C664.94 152.362 665.938 153.36 667.17 153.36H789.9C791.132 153.36 792.13 152.362 792.13 151.13V150.28C792.13 149.048 791.132 148.05 789.9 148.05Z" fill="#9393A3"/>
<path d="M702.19 161.29V161.66C702.19 162.251 702.425 162.819 702.843 163.237C703.261 163.655 703.829 163.89 704.42 163.89H789.9C790.491 163.89 791.059 163.655 791.477 163.237C791.895 162.819 792.13 162.251 792.13 161.66V159.92C792.13 159.624 792.071 159.33 791.956 159.057C791.842 158.784 791.674 158.536 791.463 158.329C791.251 158.121 791.001 157.958 790.726 157.848C790.45 157.738 790.156 157.685 789.86 157.69L704.39 159.06C703.804 159.068 703.244 159.306 702.833 159.724C702.421 160.141 702.19 160.704 702.19 161.29V161.29Z" fill="#9393A3"/>
<path d="M759.59 228.18C759.477 228.184 759.366 228.144 759.28 228.07L722.16 197.92L685.55 224.73C685.448 224.803 685.323 224.835 685.199 224.82C685.075 224.805 684.962 224.745 684.88 224.65L634.05 163.65C629.76 167.42 590.82 201.57 585.77 205.97C585.678 206.061 585.554 206.112 585.425 206.112C585.296 206.112 585.172 206.061 585.08 205.97C584.988 205.877 584.937 205.751 584.937 205.62C584.937 205.489 584.988 205.363 585.08 205.27C590.39 200.63 633.31 163 633.74 162.62C633.79 162.576 633.849 162.542 633.913 162.522C633.976 162.501 634.043 162.494 634.11 162.5C634.241 162.511 634.363 162.572 634.45 162.67L685.3 223.67L721.84 196.9C721.928 196.834 722.035 196.799 722.145 196.799C722.255 196.799 722.362 196.834 722.45 196.9L759.58 227L779.58 209.53C779.628 209.487 779.684 209.454 779.745 209.433C779.807 209.412 779.871 209.403 779.936 209.408C780 209.413 780.063 209.43 780.12 209.46C780.178 209.49 780.229 209.53 780.27 209.58C780.361 209.672 780.412 209.796 780.412 209.925C780.412 210.054 780.361 210.178 780.27 210.27L759.96 228.02C759.912 228.07 759.855 228.11 759.791 228.137C759.728 228.165 759.659 228.179 759.59 228.18V228.18Z" fill="#9393A3"/>
<path d="M634.87 265.19C634.782 265.19 634.699 265.155 634.637 265.093C634.575 265.031 634.54 264.948 634.54 264.86V263.86C634.54 263.817 634.549 263.775 634.565 263.735C634.582 263.696 634.606 263.66 634.637 263.63C634.668 263.6 634.704 263.577 634.744 263.561C634.784 263.546 634.827 263.539 634.87 263.54C634.913 263.539 634.956 263.546 634.996 263.561C635.036 263.577 635.072 263.6 635.103 263.63C635.134 263.66 635.158 263.696 635.175 263.735C635.191 263.775 635.2 263.817 635.2 263.86V264.86C635.2 264.903 635.191 264.946 635.175 264.986C635.158 265.026 635.134 265.063 635.103 265.093C635.073 265.124 635.036 265.148 634.996 265.165C634.956 265.181 634.913 265.19 634.87 265.19V265.19ZM634.87 261.9C634.782 261.9 634.699 261.865 634.637 261.803C634.575 261.741 634.54 261.658 634.54 261.57V260.57C634.54 260.527 634.549 260.485 634.565 260.445C634.582 260.406 634.606 260.37 634.637 260.34C634.668 260.31 634.704 260.287 634.744 260.271C634.784 260.256 634.827 260.249 634.87 260.25C634.913 260.249 634.956 260.256 634.996 260.271C635.036 260.287 635.072 260.31 635.103 260.34C635.134 260.37 635.158 260.406 635.175 260.445C635.191 260.485 635.2 260.527 635.2 260.57V261.57C635.2 261.613 635.191 261.656 635.175 261.696C635.158 261.736 635.134 261.773 635.103 261.803C635.073 261.834 635.036 261.858 634.996 261.875C634.956 261.891 634.913 261.9 634.87 261.9V261.9ZM634.87 258.61C634.782 258.61 634.699 258.575 634.637 258.513C634.575 258.451 634.54 258.368 634.54 258.28V257.28C634.54 257.237 634.549 257.195 634.565 257.155C634.582 257.116 634.606 257.08 634.637 257.05C634.668 257.02 634.704 256.997 634.744 256.981C634.784 256.966 634.827 256.959 634.87 256.96C634.913 256.959 634.956 256.966 634.996 256.981C635.036 256.997 635.072 257.02 635.103 257.05C635.134 257.08 635.158 257.116 635.175 257.155C635.191 257.195 635.2 257.237 635.2 257.28V258.28C635.2 258.323 635.191 258.366 635.175 258.406C635.158 258.446 635.134 258.483 635.103 258.513C635.073 258.544 635.036 258.568 634.996 258.585C634.956 258.601 634.913 258.61 634.87 258.61V258.61ZM634.87 255.32C634.782 255.32 634.699 255.285 634.637 255.223C634.575 255.161 634.54 255.078 634.54 254.99V253.99C634.54 253.947 634.549 253.905 634.565 253.865C634.582 253.826 634.606 253.79 634.637 253.76C634.668 253.73 634.704 253.707 634.744 253.691C634.784 253.676 634.827 253.669 634.87 253.67C634.913 253.669 634.956 253.676 634.996 253.691C635.036 253.707 635.072 253.73 635.103 253.76C635.134 253.79 635.158 253.826 635.175 253.865C635.191 253.905 635.2 253.947 635.2 253.99V254.99C635.2 255.033 635.191 255.076 635.175 255.116C635.158 255.156 635.134 255.193 635.103 255.223C635.073 255.254 635.036 255.278 634.996 255.295C634.956 255.311 634.913 255.32 634.87 255.32V255.32ZM634.87 252.03C634.782 252.03 634.699 251.995 634.637 251.933C634.575 251.871 634.54 251.788 634.54 251.7V250.7C634.539 250.656 634.546 250.613 634.562 250.572C634.578 250.531 634.603 250.495 634.634 250.464C634.664 250.433 634.701 250.408 634.742 250.392C634.783 250.376 634.826 250.369 634.87 250.37C634.913 250.37 634.956 250.379 634.996 250.395C635.036 250.412 635.073 250.436 635.103 250.467C635.134 250.497 635.158 250.534 635.175 250.574C635.191 250.614 635.2 250.657 635.2 250.7V251.7C635.192 251.782 635.154 251.859 635.093 251.914C635.032 251.97 634.953 252 634.87 252V252.03ZM634.87 248.74C634.782 248.74 634.699 248.705 634.637 248.643C634.575 248.581 634.54 248.498 634.54 248.41V247.41C634.539 247.366 634.546 247.323 634.562 247.282C634.578 247.241 634.603 247.205 634.634 247.174C634.664 247.143 634.701 247.118 634.742 247.102C634.783 247.086 634.826 247.079 634.87 247.08C634.913 247.08 634.956 247.089 634.996 247.105C635.036 247.122 635.073 247.146 635.103 247.177C635.134 247.207 635.158 247.244 635.175 247.284C635.191 247.324 635.2 247.367 635.2 247.41V248.41C635.2 248.453 635.191 248.496 635.175 248.536C635.158 248.576 635.134 248.613 635.103 248.643C635.073 248.674 635.036 248.698 634.996 248.715C634.956 248.731 634.913 248.74 634.87 248.74V248.74ZM634.87 245.45C634.782 245.45 634.699 245.415 634.637 245.353C634.575 245.291 634.54 245.208 634.54 245.12V244.12C634.539 244.076 634.546 244.033 634.562 243.992C634.578 243.951 634.603 243.915 634.634 243.884C634.664 243.853 634.701 243.828 634.742 243.812C634.783 243.796 634.826 243.789 634.87 243.79C634.913 243.79 634.956 243.799 634.996 243.815C635.036 243.832 635.073 243.856 635.103 243.887C635.134 243.917 635.158 243.954 635.175 243.994C635.191 244.034 635.2 244.077 635.2 244.12V245.12C635.2 245.163 635.191 245.206 635.175 245.246C635.158 245.286 635.134 245.323 635.103 245.353C635.073 245.384 635.036 245.408 634.996 245.425C634.956 245.441 634.913 245.45 634.87 245.45V245.45ZM634.87 242.16C634.782 242.16 634.699 242.125 634.637 242.063C634.575 242.001 634.54 241.918 634.54 241.83V240.83C634.539 240.786 634.546 240.743 634.562 240.702C634.578 240.661 634.603 240.625 634.634 240.594C634.664 240.563 634.701 240.538 634.742 240.522C634.783 240.506 634.826 240.499 634.87 240.5C634.913 240.5 634.956 240.509 634.996 240.525C635.036 240.542 635.073 240.566 635.103 240.597C635.134 240.627 635.158 240.664 635.175 240.704C635.191 240.744 635.2 240.787 635.2 240.83V241.83C635.2 241.873 635.191 241.916 635.175 241.956C635.158 241.996 635.134 242.033 635.103 242.063C635.073 242.094 635.036 242.118 634.996 242.135C634.956 242.151 634.913 242.16 634.87 242.16V242.16ZM634.87 238.87C634.782 238.87 634.699 238.835 634.637 238.773C634.575 238.711 634.54 238.628 634.54 238.54V237.54C634.539 237.496 634.546 237.453 634.562 237.412C634.578 237.371 634.603 237.334 634.634 237.304C634.664 237.273 634.701 237.248 634.742 237.232C634.783 237.216 634.826 237.209 634.87 237.21C634.913 237.21 634.956 237.219 634.996 237.235C635.036 237.252 635.073 237.276 635.103 237.307C635.134 237.337 635.158 237.374 635.175 237.414C635.191 237.454 635.2 237.497 635.2 237.54V238.54C635.2 238.583 635.191 238.626 635.175 238.666C635.158 238.706 635.134 238.743 635.103 238.773C635.073 238.804 635.036 238.828 634.996 238.845C634.956 238.861 634.913 238.87 634.87 238.87V238.87ZM634.87 235.58C634.782 235.58 634.699 235.545 634.637 235.483C634.575 235.421 634.54 235.338 634.54 235.25V234.25C634.539 234.206 634.546 234.163 634.562 234.122C634.578 234.081 634.603 234.045 634.634 234.014C634.664 233.983 634.701 233.958 634.742 233.942C634.783 233.926 634.826 233.919 634.87 233.92C634.913 233.92 634.956 233.929 634.996 233.945C635.036 233.962 635.073 233.986 635.103 234.017C635.134 234.047 635.158 234.084 635.175 234.124C635.191 234.164 635.2 234.207 635.2 234.25V235.25C635.2 235.293 635.191 235.336 635.175 235.376C635.158 235.416 635.134 235.453 635.103 235.483C635.073 235.514 635.036 235.538 634.996 235.555C634.956 235.571 634.913 235.58 634.87 235.58V235.58ZM634.87 232.29C634.827 232.29 634.784 232.281 634.744 232.265C634.704 232.248 634.667 232.224 634.637 232.193C634.606 232.163 634.582 232.126 634.565 232.086C634.549 232.046 634.54 232.003 634.54 231.96V230.96C634.539 230.916 634.546 230.873 634.562 230.832C634.578 230.791 634.603 230.755 634.634 230.724C634.664 230.693 634.701 230.668 634.742 230.652C634.783 230.636 634.826 230.629 634.87 230.63C634.913 230.63 634.956 230.639 634.996 230.655C635.036 230.672 635.073 230.696 635.103 230.727C635.134 230.757 635.158 230.794 635.175 230.834C635.191 230.874 635.2 230.917 635.2 230.96V231.96C635.2 232.003 635.191 232.046 635.175 232.086C635.158 232.126 635.134 232.163 635.103 232.193C635.073 232.224 635.036 232.248 634.996 232.265C634.956 232.281 634.913 232.29 634.87 232.29V232.29ZM634.87 229C634.826 229.001 634.783 228.994 634.742 228.978C634.701 228.962 634.664 228.937 634.634 228.906C634.603 228.876 634.578 228.839 634.562 228.798C634.546 228.757 634.539 228.714 634.54 228.67V227.67C634.539 227.626 634.546 227.583 634.562 227.542C634.578 227.501 634.603 227.465 634.634 227.434C634.664 227.403 634.701 227.378 634.742 227.362C634.783 227.346 634.826 227.339 634.87 227.34C634.913 227.34 634.956 227.349 634.996 227.365C635.036 227.382 635.073 227.406 635.103 227.437C635.134 227.467 635.158 227.504 635.175 227.544C635.191 227.584 635.2 227.627 635.2 227.67V228.67C635.2 228.713 635.191 228.756 635.175 228.796C635.158 228.836 635.134 228.873 635.103 228.903C635.073 228.934 635.036 228.958 634.996 228.975C634.956 228.991 634.913 229 634.87 229V229ZM634.87 225.71C634.826 225.711 634.783 225.704 634.742 225.688C634.701 225.672 634.664 225.647 634.634 225.616C634.603 225.586 634.578 225.549 634.562 225.508C634.546 225.467 634.539 225.424 634.54 225.38V224.38C634.539 224.336 634.546 224.293 634.562 224.252C634.578 224.211 634.603 224.175 634.634 224.144C634.664 224.113 634.701 224.088 634.742 224.072C634.783 224.056 634.826 224.049 634.87 224.05C634.913 224.05 634.956 224.059 634.996 224.075C635.036 224.092 635.073 224.116 635.103 224.147C635.134 224.177 635.158 224.214 635.175 224.254C635.191 224.294 635.2 224.337 635.2 224.38V225.38C635.2 225.423 635.191 225.466 635.175 225.506C635.158 225.546 635.134 225.583 635.103 225.613C635.073 225.644 635.036 225.668 634.996 225.685C634.956 225.701 634.913 225.71 634.87 225.71V225.71ZM634.87 222.42C634.826 222.421 634.783 222.414 634.742 222.398C634.701 222.382 634.664 222.357 634.634 222.326C634.603 222.296 634.578 222.259 634.562 222.218C634.546 222.177 634.539 222.134 634.54 222.09V221.09C634.54 221.047 634.549 221.004 634.565 220.964C634.582 220.924 634.606 220.887 634.637 220.857C634.667 220.826 634.704 220.802 634.744 220.785C634.784 220.769 634.827 220.76 634.87 220.76C634.913 220.76 634.956 220.769 634.996 220.785C635.036 220.802 635.073 220.826 635.103 220.857C635.134 220.887 635.158 220.924 635.175 220.964C635.191 221.004 635.2 221.047 635.2 221.09V222.09C635.2 222.133 635.191 222.176 635.175 222.216C635.158 222.256 635.134 222.293 635.103 222.323C635.073 222.354 635.036 222.378 634.996 222.395C634.956 222.411 634.913 222.42 634.87 222.42V222.42ZM634.87 219.13C634.826 219.131 634.783 219.124 634.742 219.108C634.701 219.092 634.664 219.067 634.634 219.036C634.603 219.006 634.578 218.969 634.562 218.928C634.546 218.887 634.539 218.844 634.54 218.8V217.8C634.54 217.712 634.575 217.629 634.637 217.567C634.699 217.505 634.782 217.47 634.87 217.47C634.913 217.47 634.956 217.479 634.996 217.495C635.036 217.512 635.073 217.536 635.103 217.567C635.134 217.597 635.158 217.634 635.175 217.674C635.191 217.714 635.2 217.757 635.2 217.8V218.8C635.2 218.843 635.191 218.886 635.175 218.926C635.158 218.966 635.134 219.003 635.103 219.033C635.073 219.064 635.036 219.088 634.996 219.105C634.956 219.121 634.913 219.13 634.87 219.13V219.13ZM634.87 215.84C634.826 215.841 634.783 215.834 634.742 215.818C634.701 215.802 634.664 215.777 634.634 215.746C634.603 215.716 634.578 215.679 634.562 215.638C634.546 215.597 634.539 215.554 634.54 215.51V214.51C634.54 214.422 634.575 214.339 634.637 214.277C634.699 214.215 634.782 214.18 634.87 214.18C634.913 214.18 634.956 214.189 634.996 214.205C635.036 214.222 635.073 214.246 635.103 214.277C635.134 214.307 635.158 214.344 635.175 214.384C635.191 214.424 635.2 214.467 635.2 214.51V215.51C635.2 215.553 635.191 215.596 635.175 215.636C635.158 215.676 635.134 215.713 635.103 215.743C635.073 215.774 635.036 215.798 634.996 215.815C634.956 215.831 634.913 215.84 634.87 215.84V215.84ZM634.87 212.55C634.826 212.551 634.783 212.544 634.742 212.528C634.701 212.512 634.664 212.487 634.634 212.456C634.603 212.426 634.578 212.389 634.562 212.348C634.546 212.307 634.539 212.264 634.54 212.22V211.22C634.54 211.132 634.575 211.049 634.637 210.987C634.699 210.925 634.782 210.89 634.87 210.89C634.913 210.89 634.956 210.899 634.996 210.915C635.036 210.932 635.073 210.956 635.103 210.987C635.134 211.017 635.158 211.054 635.175 211.094C635.191 211.134 635.2 211.177 635.2 211.22V212.22C635.2 212.263 635.191 212.306 635.175 212.346C635.158 212.386 635.134 212.423 635.103 212.453C635.073 212.484 635.036 212.508 634.996 212.525C634.956 212.541 634.913 212.55 634.87 212.55V212.55ZM634.87 209.26C634.826 209.261 634.783 209.254 634.742 209.238C634.701 209.222 634.664 209.197 634.634 209.166C634.603 209.136 634.578 209.099 634.562 209.058C634.546 209.017 634.539 208.974 634.54 208.93V207.93C634.54 207.842 634.575 207.759 634.637 207.697C634.699 207.635 634.782 207.6 634.87 207.6C634.913 207.6 634.956 207.609 634.996 207.625C635.036 207.642 635.073 207.666 635.103 207.697C635.134 207.727 635.158 207.764 635.175 207.804C635.191 207.844 635.2 207.887 635.2 207.93V208.93C635.2 208.973 635.191 209.016 635.175 209.056C635.158 209.096 635.134 209.133 635.103 209.163C635.073 209.194 635.036 209.218 634.996 209.235C634.956 209.251 634.913 209.26 634.87 209.26V209.26ZM634.87 205.97C634.826 205.971 634.783 205.964 634.742 205.948C634.701 205.932 634.664 205.907 634.634 205.876C634.603 205.846 634.578 205.809 634.562 205.768C634.546 205.727 634.539 205.684 634.54 205.64V204.64C634.54 204.597 634.549 204.554 634.565 204.514C634.582 204.474 634.606 204.437 634.637 204.407C634.667 204.376 634.704 204.352 634.744 204.335C634.784 204.319 634.827 204.31 634.87 204.31C634.913 204.31 634.956 204.319 634.996 204.335C635.036 204.352 635.073 204.376 635.103 204.407C635.134 204.437 635.158 204.474 635.175 204.514C635.191 204.554 635.2 204.597 635.2 204.64V205.64C635.204 205.686 635.199 205.732 635.184 205.776C635.169 205.819 635.146 205.859 635.115 205.893C635.084 205.927 635.046 205.954 635.004 205.972C634.961 205.991 634.916 206 634.87 206V205.97ZM634.87 202.68C634.826 202.681 634.783 202.674 634.742 202.658C634.701 202.642 634.664 202.617 634.634 202.586C634.603 202.556 634.578 202.519 634.562 202.478C634.546 202.437 634.539 202.394 634.54 202.35V201.35C634.54 201.262 634.575 201.179 634.637 201.117C634.699 201.055 634.782 201.02 634.87 201.02C634.913 201.02 634.956 201.029 634.996 201.045C635.036 201.062 635.073 201.086 635.103 201.117C635.134 201.147 635.158 201.184 635.175 201.224C635.191 201.264 635.2 201.307 635.2 201.35V202.35C635.2 202.393 635.191 202.436 635.175 202.476C635.158 202.516 635.134 202.553 635.103 202.583C635.073 202.614 635.036 202.638 634.996 202.655C634.956 202.671 634.913 202.68 634.87 202.68V202.68ZM634.87 199.39C634.827 199.391 634.784 199.384 634.744 199.369C634.704 199.353 634.668 199.33 634.637 199.3C634.606 199.27 634.582 199.234 634.565 199.195C634.549 199.155 634.54 199.113 634.54 199.07V198.07C634.54 197.983 634.575 197.899 634.637 197.837C634.699 197.775 634.782 197.74 634.87 197.74C634.913 197.74 634.956 197.749 634.996 197.765C635.036 197.782 635.073 197.806 635.103 197.837C635.134 197.867 635.158 197.904 635.175 197.944C635.191 197.984 635.2 198.027 635.2 198.07V199.07C635.2 199.113 635.191 199.155 635.175 199.195C635.158 199.234 635.134 199.27 635.103 199.3C635.072 199.33 635.036 199.353 634.996 199.369C634.956 199.384 634.913 199.391 634.87 199.39V199.39ZM634.87 196.1C634.827 196.101 634.784 196.094 634.744 196.079C634.704 196.063 634.668 196.04 634.637 196.01C634.606 195.98 634.582 195.944 634.565 195.905C634.549 195.865 634.54 195.823 634.54 195.78V194.78C634.54 194.692 634.575 194.609 634.637 194.547C634.699 194.485 634.782 194.45 634.87 194.45C634.913 194.45 634.956 194.459 634.996 194.475C635.036 194.492 635.073 194.516 635.103 194.547C635.134 194.577 635.158 194.614 635.175 194.654C635.191 194.694 635.2 194.737 635.2 194.78V195.78C635.2 195.823 635.191 195.865 635.175 195.905C635.158 195.944 635.134 195.98 635.103 196.01C635.072 196.04 635.036 196.063 634.996 196.079C634.956 196.094 634.913 196.101 634.87 196.1V196.1ZM634.87 192.81C634.827 192.811 634.784 192.804 634.744 192.789C634.704 192.773 634.668 192.75 634.637 192.72C634.606 192.69 634.582 192.654 634.565 192.615C634.549 192.575 634.54 192.533 634.54 192.49V191.49C634.54 191.402 634.575 191.319 634.637 191.257C634.699 191.195 634.782 191.16 634.87 191.16C634.913 191.16 634.956 191.169 634.996 191.185C635.036 191.202 635.073 191.226 635.103 191.257C635.134 191.287 635.158 191.324 635.175 191.364C635.191 191.404 635.2 191.447 635.2 191.49V192.49C635.2 192.533 635.191 192.575 635.175 192.615C635.158 192.654 635.134 192.69 635.103 192.72C635.072 192.75 635.036 192.773 634.996 192.789C634.956 192.804 634.913 192.811 634.87 192.81V192.81ZM634.87 189.52C634.827 189.521 634.784 189.514 634.744 189.499C634.704 189.483 634.668 189.46 634.637 189.43C634.606 189.4 634.582 189.364 634.565 189.325C634.549 189.285 634.54 189.243 634.54 189.2V188.2C634.54 188.112 634.575 188.029 634.637 187.967C634.699 187.905 634.782 187.87 634.87 187.87C634.913 187.87 634.956 187.879 634.996 187.895C635.036 187.912 635.073 187.936 635.103 187.967C635.134 187.997 635.158 188.034 635.175 188.074C635.191 188.114 635.2 188.157 635.2 188.2V189.2C635.2 189.243 635.191 189.285 635.175 189.325C635.158 189.364 635.134 189.4 635.103 189.43C635.072 189.46 635.036 189.483 634.996 189.499C634.956 189.514 634.913 189.521 634.87 189.52V189.52ZM634.87 186.23C634.827 186.231 634.784 186.224 634.744 186.209C634.704 186.193 634.668 186.17 634.637 186.14C634.606 186.11 634.582 186.074 634.565 186.035C634.549 185.995 634.54 185.953 634.54 185.91V184.91C634.54 184.822 634.575 184.739 634.637 184.677C634.699 184.615 634.782 184.58 634.87 184.58C634.913 184.58 634.956 184.589 634.996 184.605C635.036 184.622 635.073 184.646 635.103 184.677C635.134 184.707 635.158 184.744 635.175 184.784C635.191 184.824 635.2 184.867 635.2 184.91V185.91C635.2 185.953 635.191 185.995 635.175 186.035C635.158 186.074 635.134 186.11 635.103 186.14C635.072 186.17 635.036 186.193 634.996 186.209C634.956 186.224 634.913 186.231 634.87 186.23V186.23ZM634.87 182.95C634.782 182.95 634.699 182.915 634.637 182.853C634.575 182.791 634.54 182.708 634.54 182.62V181.62C634.54 181.532 634.575 181.449 634.637 181.387C634.699 181.325 634.782 181.29 634.87 181.29C634.913 181.29 634.956 181.299 634.996 181.315C635.036 181.332 635.073 181.356 635.103 181.387C635.134 181.417 635.158 181.454 635.175 181.494C635.191 181.534 635.2 181.577 635.2 181.62V182.62C635.207 182.667 635.204 182.716 635.191 182.762C635.178 182.808 635.154 182.85 635.123 182.886C635.092 182.923 635.053 182.951 635.009 182.971C634.965 182.991 634.918 183.001 634.87 183V182.95ZM634.87 179.66C634.782 179.66 634.699 179.625 634.637 179.563C634.575 179.501 634.54 179.418 634.54 179.33V178.33C634.54 178.242 634.575 178.159 634.637 178.097C634.699 178.035 634.782 178 634.87 178C634.913 178 634.956 178.009 634.996 178.025C635.036 178.042 635.073 178.066 635.103 178.097C635.134 178.127 635.158 178.164 635.175 178.204C635.191 178.244 635.2 178.287 635.2 178.33V179.33C635.2 179.418 635.165 179.501 635.103 179.563C635.041 179.625 634.957 179.66 634.87 179.66V179.66ZM634.87 176.37C634.827 176.37 634.784 176.361 634.744 176.345C634.704 176.328 634.667 176.304 634.637 176.273C634.606 176.243 634.582 176.206 634.565 176.166C634.549 176.126 634.54 176.083 634.54 176.04V175.04C634.54 174.952 634.575 174.869 634.637 174.807C634.699 174.745 634.782 174.71 634.87 174.71C634.913 174.71 634.956 174.719 634.996 174.735C635.036 174.752 635.073 174.776 635.103 174.807C635.134 174.837 635.158 174.874 635.175 174.914C635.191 174.954 635.2 174.997 635.2 175.04V176.04C635.2 176.128 635.165 176.211 635.103 176.273C635.041 176.335 634.957 176.37 634.87 176.37V176.37Z" fill="#65637C"/>
<path d="M685.26 261.9C685.217 261.901 685.174 261.894 685.134 261.879C685.094 261.863 685.058 261.84 685.027 261.81C684.996 261.78 684.972 261.744 684.955 261.705C684.939 261.665 684.93 261.623 684.93 261.58V260.58C684.93 260.492 684.965 260.409 685.027 260.347C685.089 260.285 685.172 260.25 685.26 260.25C685.348 260.25 685.431 260.285 685.493 260.347C685.555 260.409 685.59 260.492 685.59 260.58V261.58C685.59 261.623 685.581 261.665 685.565 261.705C685.548 261.744 685.524 261.78 685.493 261.81C685.462 261.84 685.426 261.863 685.386 261.879C685.346 261.894 685.303 261.901 685.26 261.9ZM685.26 258.61C685.217 258.611 685.174 258.604 685.134 258.589C685.094 258.573 685.058 258.55 685.027 258.52C684.996 258.49 684.972 258.454 684.955 258.415C684.939 258.375 684.93 258.333 684.93 258.29V257.29C684.93 257.202 684.965 257.118 685.027 257.057C685.089 256.995 685.172 256.96 685.26 256.96C685.348 256.96 685.431 256.995 685.493 257.057C685.555 257.118 685.59 257.202 685.59 257.29V258.29C685.59 258.333 685.581 258.375 685.565 258.415C685.548 258.454 685.524 258.49 685.493 258.52C685.462 258.55 685.426 258.573 685.386 258.589C685.346 258.604 685.303 258.611 685.26 258.61V258.61ZM685.26 255.32C685.217 255.321 685.174 255.314 685.134 255.299C685.094 255.283 685.058 255.26 685.027 255.23C684.996 255.2 684.972 255.164 684.955 255.125C684.939 255.085 684.93 255.043 684.93 255V254C684.93 253.912 684.965 253.829 685.027 253.767C685.089 253.705 685.172 253.67 685.26 253.67C685.348 253.67 685.431 253.705 685.493 253.767C685.555 253.829 685.59 253.912 685.59 254V255C685.59 255.043 685.581 255.085 685.565 255.125C685.548 255.164 685.524 255.2 685.493 255.23C685.462 255.26 685.426 255.283 685.386 255.299C685.346 255.314 685.303 255.321 685.26 255.32V255.32ZM685.26 252.03C685.217 252.031 685.174 252.024 685.134 252.009C685.094 251.993 685.058 251.97 685.027 251.94C684.996 251.91 684.972 251.874 684.955 251.835C684.939 251.795 684.93 251.753 684.93 251.71V250.71C684.93 250.622 684.965 250.539 685.027 250.477C685.089 250.415 685.172 250.38 685.26 250.38C685.348 250.38 685.431 250.415 685.493 250.477C685.555 250.539 685.59 250.622 685.59 250.71V251.71C685.582 251.791 685.544 251.867 685.483 251.921C685.421 251.974 685.342 252.003 685.26 252V252.03ZM685.26 248.74C685.217 248.741 685.174 248.734 685.134 248.719C685.094 248.703 685.058 248.68 685.027 248.65C684.996 248.62 684.972 248.584 684.955 248.545C684.939 248.505 684.93 248.463 684.93 248.42V247.42C684.93 247.332 684.965 247.249 685.027 247.187C685.089 247.125 685.172 247.09 685.26 247.09C685.348 247.09 685.431 247.125 685.493 247.187C685.555 247.249 685.59 247.332 685.59 247.42V248.42C685.59 248.463 685.581 248.505 685.565 248.545C685.548 248.584 685.524 248.62 685.493 248.65C685.462 248.68 685.426 248.703 685.386 248.719C685.346 248.734 685.303 248.741 685.26 248.74V248.74ZM685.26 245.46C685.172 245.46 685.089 245.425 685.027 245.363C684.965 245.301 684.93 245.217 684.93 245.13V244.13C684.93 244.042 684.965 243.959 685.027 243.897C685.089 243.835 685.172 243.8 685.26 243.8C685.348 243.8 685.431 243.835 685.493 243.897C685.555 243.959 685.59 244.042 685.59 244.13V245.13C685.59 245.217 685.555 245.301 685.493 245.363C685.431 245.425 685.348 245.46 685.26 245.46V245.46ZM685.26 242.17C685.172 242.17 685.089 242.135 685.027 242.073C684.965 242.011 684.93 241.927 684.93 241.84V240.84C684.93 240.752 684.965 240.669 685.027 240.607C685.089 240.545 685.172 240.51 685.26 240.51C685.348 240.51 685.431 240.545 685.493 240.607C685.555 240.669 685.59 240.752 685.59 240.84V241.84C685.59 241.927 685.555 242.011 685.493 242.073C685.431 242.135 685.348 242.17 685.26 242.17ZM685.26 238.88C685.172 238.88 685.089 238.845 685.027 238.783C684.965 238.721 684.93 238.637 684.93 238.55V237.55C684.93 237.462 684.965 237.379 685.027 237.317C685.089 237.255 685.172 237.22 685.26 237.22C685.348 237.22 685.431 237.255 685.493 237.317C685.555 237.379 685.59 237.462 685.59 237.55V238.55C685.59 238.637 685.555 238.721 685.493 238.783C685.431 238.845 685.348 238.88 685.26 238.88V238.88ZM685.26 235.59C685.172 235.59 685.089 235.555 685.027 235.493C684.965 235.431 684.93 235.347 684.93 235.26V234.26C684.93 234.172 684.965 234.089 685.027 234.027C685.089 233.965 685.172 233.93 685.26 233.93C685.348 233.93 685.431 233.965 685.493 234.027C685.555 234.089 685.59 234.172 685.59 234.26V235.26C685.59 235.347 685.555 235.431 685.493 235.493C685.431 235.555 685.348 235.59 685.26 235.59ZM685.26 232.3C685.217 232.3 685.174 232.291 685.134 232.275C685.094 232.258 685.057 232.234 685.027 232.203C684.996 232.173 684.972 232.136 684.955 232.096C684.939 232.056 684.93 232.013 684.93 231.97V230.97C684.93 230.882 684.965 230.799 685.027 230.737C685.089 230.675 685.172 230.64 685.26 230.64C685.348 230.64 685.431 230.675 685.493 230.737C685.555 230.799 685.59 230.882 685.59 230.97V231.97C685.59 232.013 685.581 232.056 685.565 232.096C685.548 232.136 685.524 232.173 685.493 232.203C685.463 232.234 685.426 232.258 685.386 232.275C685.346 232.291 685.303 232.3 685.26 232.3ZM685.26 229.01C685.172 229.01 685.089 228.975 685.027 228.913C684.965 228.851 684.93 228.767 684.93 228.68V227.68C684.93 227.592 684.965 227.509 685.027 227.447C685.089 227.385 685.172 227.35 685.26 227.35C685.348 227.35 685.431 227.385 685.493 227.447C685.555 227.509 685.59 227.592 685.59 227.68V228.68C685.587 228.766 685.551 228.847 685.49 228.907C685.428 228.967 685.346 229 685.26 229V229.01Z" fill="#65637C"/>
<path d="M723.56 263.73C723.474 263.73 723.392 263.697 723.33 263.637C723.269 263.577 723.233 263.496 723.23 263.41V262.41C723.23 262.367 723.239 262.324 723.255 262.284C723.272 262.244 723.296 262.207 723.327 262.177C723.357 262.146 723.394 262.122 723.434 262.105C723.474 262.089 723.517 262.08 723.56 262.08C723.603 262.08 723.646 262.089 723.686 262.105C723.726 262.122 723.763 262.146 723.793 262.177C723.824 262.207 723.848 262.244 723.865 262.284C723.881 262.324 723.89 262.367 723.89 262.41V263.41C723.891 263.453 723.884 263.497 723.869 263.537C723.853 263.578 723.83 263.615 723.8 263.646C723.771 263.678 723.735 263.703 723.696 263.721C723.656 263.739 723.613 263.749 723.57 263.75L723.56 263.73ZM723.46 260.44C723.374 260.44 723.292 260.407 723.23 260.347C723.169 260.287 723.133 260.206 723.13 260.12V259.12C723.129 259.077 723.136 259.034 723.151 258.994C723.167 258.954 723.19 258.918 723.22 258.887C723.25 258.856 723.286 258.832 723.325 258.815C723.365 258.799 723.407 258.79 723.45 258.79C723.536 258.787 723.619 258.818 723.683 258.876C723.746 258.934 723.785 259.014 723.79 259.1V260.1C723.79 260.187 723.757 260.27 723.698 260.334C723.638 260.397 723.557 260.435 723.47 260.44H723.46ZM723.36 257.15C723.317 257.151 723.274 257.144 723.235 257.129C723.195 257.113 723.158 257.09 723.127 257.06C723.096 257.03 723.072 256.994 723.055 256.955C723.039 256.915 723.03 256.873 723.03 256.83V255.83C723.027 255.786 723.033 255.743 723.048 255.701C723.063 255.66 723.086 255.623 723.116 255.591C723.146 255.559 723.183 255.533 723.223 255.516C723.263 255.499 723.306 255.49 723.35 255.49C723.393 255.489 723.437 255.496 723.477 255.511C723.518 255.527 723.555 255.55 723.586 255.58C723.618 255.609 723.643 255.645 723.661 255.684C723.679 255.724 723.689 255.767 723.69 255.81V256.81C723.691 256.853 723.684 256.897 723.669 256.937C723.653 256.978 723.63 257.015 723.6 257.046C723.571 257.078 723.535 257.103 723.496 257.121C723.456 257.139 723.413 257.149 723.37 257.15H723.36ZM723.26 253.86C723.217 253.861 723.174 253.854 723.134 253.839C723.094 253.823 723.058 253.8 723.027 253.77C722.996 253.74 722.972 253.704 722.955 253.665C722.939 253.625 722.93 253.583 722.93 253.54V252.54C722.927 252.497 722.933 252.454 722.948 252.414C722.962 252.373 722.984 252.336 723.013 252.304C723.042 252.273 723.077 252.247 723.116 252.229C723.155 252.211 723.197 252.201 723.24 252.2C723.284 252.197 723.327 252.204 723.369 252.218C723.41 252.233 723.447 252.256 723.479 252.286C723.511 252.316 723.537 252.353 723.554 252.393C723.571 252.433 723.58 252.476 723.58 252.52V253.52C723.584 253.563 723.579 253.607 723.566 253.648C723.552 253.689 723.53 253.727 723.501 253.759C723.471 253.791 723.436 253.816 723.396 253.834C723.356 253.851 723.313 253.86 723.27 253.86H723.26ZM723.15 250.58C723.066 250.575 722.986 250.541 722.925 250.482C722.864 250.423 722.827 250.344 722.82 250.26V249.26C722.82 249.173 722.853 249.09 722.912 249.026C722.972 248.963 723.053 248.925 723.14 248.92C723.184 248.917 723.227 248.924 723.269 248.938C723.31 248.953 723.347 248.976 723.379 249.006C723.411 249.036 723.437 249.073 723.454 249.113C723.471 249.153 723.48 249.196 723.48 249.24V250.24C723.481 250.283 723.474 250.327 723.459 250.367C723.443 250.408 723.42 250.445 723.39 250.476C723.361 250.508 723.325 250.533 723.286 250.551C723.246 250.569 723.203 250.579 723.16 250.58H723.15ZM723.05 247.29C722.964 247.29 722.882 247.257 722.82 247.197C722.759 247.137 722.723 247.056 722.72 246.97V245.97C722.72 245.883 722.753 245.8 722.812 245.736C722.872 245.673 722.953 245.635 723.04 245.63C723.083 245.629 723.127 245.636 723.167 245.651C723.208 245.667 723.245 245.69 723.276 245.72C723.308 245.749 723.333 245.785 723.351 245.824C723.369 245.864 723.379 245.907 723.38 245.95V246.95C723.381 246.993 723.374 247.037 723.359 247.077C723.343 247.118 723.32 247.155 723.29 247.186C723.261 247.218 723.225 247.243 723.186 247.261C723.146 247.279 723.103 247.289 723.06 247.29H723.05ZM723 244C722.914 244 722.832 243.967 722.77 243.907C722.709 243.847 722.673 243.766 722.67 243.68V242.68C722.669 242.637 722.676 242.593 722.691 242.553C722.707 242.512 722.73 242.475 722.76 242.444C722.789 242.412 722.825 242.387 722.864 242.369C722.904 242.351 722.947 242.341 722.99 242.34C723.077 242.34 723.16 242.373 723.224 242.432C723.287 242.492 723.325 242.573 723.33 242.66V243.66C723.33 243.747 723.297 243.83 723.238 243.894C723.178 243.957 723.097 243.995 723.01 244H723ZM722.9 240.71C722.857 240.711 722.814 240.704 722.774 240.689C722.734 240.673 722.698 240.65 722.667 240.62C722.636 240.59 722.612 240.554 722.595 240.515C722.579 240.475 722.57 240.433 722.57 240.39V239.39C722.567 239.346 722.574 239.303 722.588 239.261C722.603 239.22 722.626 239.183 722.656 239.151C722.686 239.119 722.723 239.093 722.763 239.076C722.803 239.059 722.846 239.05 722.89 239.05C722.933 239.049 722.977 239.056 723.017 239.071C723.058 239.087 723.095 239.11 723.126 239.14C723.158 239.169 723.183 239.205 723.201 239.244C723.219 239.284 723.229 239.327 723.23 239.37V240.37C723.231 240.413 723.224 240.457 723.209 240.497C723.193 240.538 723.17 240.575 723.14 240.606C723.111 240.638 723.075 240.663 723.036 240.681C722.996 240.699 722.953 240.709 722.91 240.71H722.9ZM722.8 237.42C722.757 237.421 722.714 237.414 722.674 237.399C722.634 237.383 722.598 237.36 722.567 237.33C722.536 237.3 722.512 237.264 722.495 237.225C722.479 237.185 722.47 237.143 722.47 237.1V236.1C722.467 236.057 722.473 236.014 722.487 235.974C722.502 235.933 722.524 235.896 722.553 235.864C722.582 235.833 722.617 235.807 722.656 235.789C722.695 235.771 722.737 235.761 722.78 235.76C722.823 235.759 722.867 235.766 722.907 235.781C722.948 235.797 722.985 235.82 723.016 235.85C723.048 235.879 723.073 235.915 723.091 235.954C723.109 235.994 723.119 236.037 723.12 236.08V237.08C723.123 237.123 723.117 237.166 723.103 237.206C723.088 237.247 723.066 237.284 723.037 237.316C723.008 237.347 722.973 237.373 722.934 237.391C722.895 237.409 722.853 237.419 722.81 237.42H722.8ZM722.69 234.13C722.607 234.128 722.527 234.095 722.466 234.038C722.405 233.981 722.367 233.903 722.36 233.82V232.82C722.36 232.733 722.393 232.65 722.452 232.586C722.512 232.523 722.593 232.485 722.68 232.48C722.723 232.479 722.767 232.486 722.807 232.501C722.848 232.517 722.885 232.54 722.916 232.57C722.948 232.599 722.973 232.635 722.991 232.674C723.009 232.714 723.019 232.757 723.02 232.8V233.8C723.023 233.843 723.017 233.887 723.002 233.927C722.987 233.968 722.963 234.005 722.933 234.036C722.903 234.067 722.867 234.091 722.827 234.108C722.786 234.124 722.743 234.131 722.7 234.13H722.69ZM722.59 230.85C722.504 230.85 722.422 230.817 722.36 230.757C722.299 230.697 722.263 230.616 722.26 230.53V229.53C722.26 229.443 722.293 229.36 722.352 229.296C722.412 229.233 722.493 229.195 722.58 229.19C722.623 229.189 722.667 229.196 722.707 229.211C722.748 229.227 722.785 229.25 722.816 229.28C722.848 229.309 722.873 229.345 722.891 229.384C722.909 229.424 722.919 229.467 722.92 229.51V230.51C722.921 230.553 722.914 230.597 722.899 230.637C722.883 230.678 722.86 230.715 722.83 230.746C722.801 230.778 722.765 230.803 722.726 230.821C722.686 230.839 722.643 230.849 722.6 230.85H722.59ZM722.49 227.56C722.404 227.56 722.322 227.527 722.26 227.467C722.199 227.407 722.163 227.326 722.16 227.24V226.24C722.16 226.152 722.195 226.069 722.257 226.007C722.319 225.945 722.402 225.91 722.49 225.91C722.578 225.91 722.661 225.945 722.723 226.007C722.785 226.069 722.82 226.152 722.82 226.24V227.24C722.82 227.327 722.787 227.41 722.728 227.474C722.668 227.537 722.587 227.575 722.5 227.58L722.49 227.56ZM722.39 224.27C722.347 224.28 722.301 224.281 722.257 224.273C722.214 224.264 722.172 224.247 722.135 224.221C722.098 224.196 722.067 224.163 722.044 224.125C722.021 224.087 722.006 224.044 722 224V223C721.997 222.957 722.003 222.913 722.018 222.873C722.033 222.832 722.057 222.795 722.087 222.764C722.117 222.733 722.153 222.708 722.193 222.692C722.234 222.676 722.277 222.668 722.32 222.67C722.363 222.667 722.406 222.673 722.446 222.687C722.487 222.702 722.524 222.724 722.556 222.753C722.587 222.782 722.613 222.817 722.631 222.856C722.649 222.895 722.659 222.937 722.66 222.98V223.98C722.66 224.067 722.627 224.15 722.568 224.214C722.508 224.277 722.427 224.315 722.34 224.32L722.39 224.27ZM722.28 220.98C722.195 220.98 722.114 220.946 722.054 220.886C721.994 220.826 721.96 220.745 721.96 220.66V219.66C721.956 219.617 721.961 219.573 721.974 219.532C721.988 219.491 722.01 219.453 722.039 219.421C722.069 219.389 722.104 219.364 722.144 219.346C722.184 219.329 722.227 219.32 722.27 219.32C722.314 219.317 722.357 219.323 722.399 219.338C722.44 219.353 722.477 219.376 722.509 219.406C722.541 219.436 722.567 219.473 722.584 219.513C722.601 219.553 722.61 219.596 722.61 219.64V220.64C722.613 220.683 722.607 220.726 722.593 220.766C722.578 220.807 722.556 220.844 722.527 220.876C722.498 220.907 722.463 220.933 722.424 220.951C722.385 220.969 722.343 220.979 722.3 220.98H722.28ZM722.18 217.69C722.095 217.688 722.014 217.653 721.953 217.594C721.892 217.535 721.855 217.455 721.85 217.37V216.37C721.849 216.327 721.856 216.283 721.871 216.243C721.887 216.202 721.91 216.165 721.94 216.134C721.969 216.102 722.005 216.077 722.044 216.059C722.084 216.041 722.127 216.031 722.17 216.03C722.213 216.029 722.257 216.036 722.297 216.051C722.338 216.067 722.375 216.09 722.406 216.12C722.438 216.149 722.463 216.185 722.481 216.224C722.499 216.264 722.509 216.307 722.51 216.35V217.35C722.513 217.394 722.506 217.437 722.492 217.479C722.477 217.52 722.454 217.557 722.424 217.589C722.394 217.621 722.357 217.647 722.317 217.664C722.277 217.681 722.234 217.69 722.19 217.69H722.18ZM722.08 214.4C721.996 214.4 721.915 214.368 721.853 214.311C721.792 214.253 721.755 214.174 721.75 214.09V213.09C721.75 213.003 721.783 212.92 721.842 212.856C721.902 212.793 721.983 212.755 722.07 212.75C722.113 212.749 722.157 212.756 722.197 212.771C722.238 212.787 722.275 212.81 722.306 212.84C722.338 212.869 722.363 212.905 722.381 212.944C722.399 212.984 722.409 213.027 722.41 213.07V214.07C722.411 214.113 722.404 214.156 722.389 214.196C722.373 214.235 722.35 214.272 722.32 214.303C722.29 214.334 722.254 214.358 722.215 214.375C722.175 214.391 722.133 214.4 722.09 214.4H722.08ZM721.98 211.12C721.894 211.12 721.812 211.087 721.75 211.027C721.689 210.967 721.653 210.886 721.65 210.8V209.8C721.649 209.757 721.656 209.713 721.671 209.673C721.687 209.632 721.71 209.595 721.74 209.564C721.769 209.532 721.805 209.507 721.844 209.489C721.884 209.471 721.927 209.461 721.97 209.46C722.057 209.46 722.14 209.493 722.204 209.552C722.267 209.612 722.305 209.693 722.31 209.78V210.78C722.31 210.867 722.277 210.95 722.218 211.014C722.158 211.077 722.077 211.115 721.99 211.12H721.98ZM721.88 207.83C721.837 207.831 721.794 207.824 721.754 207.809C721.714 207.793 721.678 207.77 721.647 207.74C721.616 207.71 721.592 207.674 721.575 207.635C721.559 207.595 721.55 207.553 721.55 207.51V206.51C721.549 206.467 721.556 206.423 721.571 206.383C721.587 206.342 721.61 206.305 721.64 206.274C721.669 206.242 721.705 206.217 721.744 206.199C721.784 206.181 721.827 206.171 721.87 206.17C721.957 206.17 722.04 206.203 722.104 206.262C722.167 206.322 722.205 206.403 722.21 206.49V207.49C722.21 207.577 722.177 207.66 722.118 207.724C722.058 207.787 721.977 207.825 721.89 207.83H721.88ZM721.77 204.54C721.685 204.54 721.604 204.506 721.544 204.446C721.484 204.386 721.45 204.305 721.45 204.22V203.22C721.442 203.173 721.444 203.124 721.456 203.077C721.469 203.031 721.491 202.988 721.522 202.951C721.553 202.914 721.592 202.884 721.636 202.864C721.679 202.843 721.727 202.833 721.775 202.833C721.823 202.833 721.871 202.843 721.914 202.864C721.958 202.884 721.997 202.914 722.028 202.951C722.059 202.988 722.081 203.031 722.094 203.077C722.106 203.124 722.108 203.173 722.1 203.22V204.22C722.103 204.263 722.097 204.306 722.083 204.346C722.068 204.387 722.046 204.424 722.017 204.456C721.988 204.487 721.953 204.513 721.914 204.531C721.875 204.549 721.833 204.559 721.79 204.56L721.77 204.54Z" fill="#65637C"/>
<path d="M760.07 261C759.982 261 759.899 260.965 759.837 260.903C759.775 260.841 759.74 260.758 759.74 260.67V259.67C759.74 259.582 759.775 259.499 759.837 259.437C759.899 259.375 759.982 259.34 760.07 259.34C760.158 259.34 760.241 259.375 760.303 259.437C760.365 259.499 760.4 259.582 760.4 259.67V260.67C760.4 260.758 760.365 260.841 760.303 260.903C760.241 260.965 760.158 261 760.07 261V261ZM760.07 257.71C759.982 257.71 759.899 257.675 759.837 257.613C759.775 257.551 759.74 257.468 759.74 257.38V256.38C759.74 256.292 759.775 256.209 759.837 256.147C759.899 256.085 759.982 256.05 760.07 256.05C760.158 256.05 760.241 256.085 760.303 256.147C760.365 256.209 760.4 256.292 760.4 256.38V257.38C760.4 257.468 760.365 257.551 760.303 257.613C760.241 257.675 760.158 257.71 760.07 257.71V257.71ZM760.07 254.42C759.982 254.42 759.899 254.385 759.837 254.323C759.775 254.261 759.74 254.178 759.74 254.09V253.09C759.74 253.047 759.749 253.004 759.765 252.964C759.782 252.924 759.806 252.887 759.837 252.857C759.867 252.826 759.904 252.802 759.944 252.785C759.984 252.769 760.027 252.76 760.07 252.76C760.113 252.76 760.156 252.769 760.196 252.785C760.236 252.802 760.273 252.826 760.303 252.857C760.334 252.887 760.358 252.924 760.375 252.964C760.391 253.004 760.4 253.047 760.4 253.09V254.09C760.4 254.178 760.365 254.261 760.303 254.323C760.241 254.385 760.158 254.42 760.07 254.42V254.42ZM760.07 251.13C760.027 251.13 759.984 251.121 759.944 251.105C759.904 251.088 759.867 251.064 759.837 251.033C759.806 251.003 759.782 250.966 759.765 250.926C759.749 250.886 759.74 250.843 759.74 250.8V249.8C759.74 249.712 759.775 249.629 759.837 249.567C759.899 249.505 759.982 249.47 760.07 249.47C760.158 249.47 760.241 249.505 760.303 249.567C760.365 249.629 760.4 249.712 760.4 249.8V250.8C760.4 250.888 760.365 250.971 760.303 251.033C760.241 251.095 760.158 251.13 760.07 251.13V251.13ZM760.07 247.84C759.982 247.84 759.899 247.805 759.837 247.743C759.775 247.681 759.74 247.598 759.74 247.51V246.51C759.74 246.467 759.749 246.424 759.765 246.384C759.782 246.344 759.806 246.307 759.837 246.277C759.867 246.246 759.904 246.222 759.944 246.205C759.984 246.189 760.027 246.18 760.07 246.18C760.113 246.18 760.156 246.189 760.196 246.205C760.236 246.222 760.273 246.246 760.303 246.277C760.334 246.307 760.358 246.344 760.375 246.384C760.391 246.424 760.4 246.467 760.4 246.51V247.51C760.4 247.598 760.365 247.681 760.303 247.743C760.241 247.805 760.158 247.84 760.07 247.84V247.84ZM760.07 244.55C759.982 244.55 759.899 244.515 759.837 244.453C759.775 244.391 759.74 244.308 759.74 244.22V243.22C759.74 243.177 759.749 243.134 759.765 243.094C759.782 243.054 759.806 243.017 759.837 242.987C759.867 242.956 759.904 242.932 759.944 242.915C759.984 242.899 760.027 242.89 760.07 242.89C760.113 242.89 760.156 242.899 760.196 242.915C760.236 242.932 760.273 242.956 760.303 242.987C760.334 243.017 760.358 243.054 760.375 243.094C760.391 243.134 760.4 243.177 760.4 243.22V244.22C760.4 244.308 760.365 244.391 760.303 244.453C760.241 244.515 760.158 244.55 760.07 244.55V244.55ZM760.07 241.26C759.982 241.26 759.899 241.225 759.837 241.163C759.775 241.101 759.74 241.017 759.74 240.93V239.93C759.74 239.842 759.775 239.759 759.837 239.697C759.899 239.635 759.982 239.6 760.07 239.6C760.158 239.6 760.241 239.635 760.303 239.697C760.365 239.759 760.4 239.842 760.4 239.93V240.93C760.4 241.017 760.365 241.101 760.303 241.163C760.241 241.225 760.158 241.26 760.07 241.26V241.26ZM760.07 237.97C760.027 237.97 759.984 237.961 759.944 237.945C759.904 237.928 759.867 237.904 759.837 237.873C759.806 237.843 759.782 237.806 759.765 237.766C759.749 237.726 759.74 237.683 759.74 237.64V236.64C759.74 236.552 759.775 236.469 759.837 236.407C759.899 236.345 759.982 236.31 760.07 236.31C760.158 236.31 760.241 236.345 760.303 236.407C760.365 236.469 760.4 236.552 760.4 236.64V237.64C760.404 237.686 760.399 237.732 760.384 237.775C760.369 237.819 760.346 237.859 760.315 237.893C760.284 237.927 760.246 237.954 760.204 237.972C760.161 237.991 760.116 238 760.07 238V237.97ZM760.07 234.68C759.982 234.68 759.899 234.645 759.837 234.583C759.775 234.521 759.74 234.438 759.74 234.35V233.35C759.74 233.307 759.749 233.264 759.765 233.224C759.782 233.184 759.806 233.147 759.837 233.117C759.867 233.086 759.904 233.062 759.944 233.045C759.984 233.029 760.027 233.02 760.07 233.02C760.113 233.02 760.156 233.029 760.196 233.045C760.236 233.062 760.273 233.086 760.303 233.117C760.334 233.147 760.358 233.184 760.375 233.224C760.391 233.264 760.4 233.307 760.4 233.35V234.35C760.4 234.438 760.365 234.521 760.303 234.583C760.241 234.645 760.158 234.68 760.07 234.68V234.68ZM760.07 231.39C759.982 231.39 759.899 231.355 759.837 231.293C759.775 231.231 759.74 231.148 759.74 231.06V230.06C759.74 230.017 759.749 229.974 759.765 229.934C759.782 229.894 759.806 229.857 759.837 229.827C759.867 229.796 759.904 229.772 759.944 229.755C759.984 229.739 760.027 229.73 760.07 229.73C760.113 229.73 760.156 229.739 760.196 229.755C760.236 229.772 760.273 229.796 760.303 229.827C760.334 229.857 760.358 229.894 760.375 229.934C760.391 229.974 760.4 230.017 760.4 230.06V231.06C760.4 231.148 760.365 231.231 760.303 231.293C760.241 231.355 760.158 231.39 760.07 231.39V231.39Z" fill="#65637C"/>
<path d="M581.14 271.27C581.016 271.273 580.896 271.228 580.804 271.144C580.713 271.06 580.658 270.944 580.65 270.82L570.19 147.3C570.179 147.167 570.222 147.036 570.308 146.935C570.394 146.833 570.517 146.771 570.65 146.76C570.783 146.749 570.914 146.792 571.015 146.878C571.117 146.964 571.179 147.087 571.19 147.22L581.65 270.74C581.656 270.804 581.648 270.869 581.628 270.931C581.609 270.992 581.577 271.049 581.535 271.099C581.493 271.148 581.442 271.188 581.385 271.218C581.327 271.247 581.264 271.265 581.2 271.27H581.14Z" fill="#9393A3"/>
<path d="M569.18 149.36L570.71 147.55L572.51 149.08L572.39 147.66L570.59 146.14L569.06 147.95L569.18 149.36Z" fill="#9393A3"/>
<path d="M786.86 265.56H573.35C573.217 265.56 573.09 265.507 572.996 265.414C572.903 265.32 572.85 265.193 572.85 265.06C572.85 264.927 572.903 264.8 572.996 264.706C573.09 264.613 573.217 264.56 573.35 264.56H786.86C786.993 264.56 787.12 264.613 787.214 264.706C787.307 264.8 787.36 264.927 787.36 265.06C787.36 265.193 787.307 265.32 787.214 265.414C787.12 265.507 786.993 265.56 786.86 265.56Z" fill="#9393A3"/>
<path d="M784.9 266.74L786.57 265.06L784.9 263.39H786.32L787.99 265.06L786.32 266.74H784.9Z" fill="#9393A3"/>
<path d="M743.74 331.09C743.74 331.09 751.16 334.7 752.52 338.85C753.62 342.18 761.83 342.61 762.64 349.15C762.816 350.787 763.526 352.321 764.661 353.515C765.796 354.708 767.293 355.493 768.92 355.75C777.3 357.03 790.22 361.38 792.28 375.94C793.86 387.04 788.2 391.25 782.28 392.71C780.169 393.197 778.327 394.479 777.137 396.289C775.947 398.099 775.5 400.299 775.89 402.43C776.74 406.66 775.48 411.54 768.16 415.43C751.75 424.09 735.36 394.92 735.36 394.92L732 344L743.74 331.09Z" fill="#403D58"/>
<path d="M666.51 304.24C666.51 304.24 687.62 361.79 723.59 379.77C723.59 379.77 711.59 399.31 705.37 400.49C705.37 400.49 666.94 351.31 663.03 311.02L666.51 304.24Z" fill="url(#paint7_linear)"/>
<path d="M811.18 650.43L812.24 659.15C812.334 659.956 812.697 660.706 813.27 661.28C813.844 661.853 814.594 662.216 815.4 662.31C819.276 662.781 823.191 662.842 827.08 662.49C827.533 662.439 827.969 662.288 828.357 662.048C828.745 661.809 829.075 661.486 829.324 661.104C829.572 660.721 829.733 660.289 829.795 659.837C829.856 659.385 829.817 658.925 829.68 658.49C828.6 655.12 826.68 650.06 823.82 647.08H814.14C813.718 647.083 813.302 647.174 812.918 647.349C812.534 647.524 812.191 647.777 811.911 648.094C811.632 648.41 811.423 648.781 811.296 649.184C811.17 649.586 811.131 650.011 811.18 650.43V650.43Z" fill="#437DC0"/>
<path d="M735.34 548.18L733.71 557.8C733.71 557.8 739.18 613.23 740.16 635.4C740.309 638.877 739.41 642.319 737.58 645.28L728.07 660.73L752.25 646.46L752.73 643.46L748.73 638.01L754 576C754.307 572.351 753.554 568.691 751.83 565.46L746.83 556.06L735.34 548.18Z" fill="url(#paint8_linear)"/>
<path d="M726.48 663H734.19C734.903 663.001 735.606 662.838 736.245 662.524C736.885 662.21 737.444 661.754 737.88 661.19C740.29 658.06 745.27 651.96 747.66 651.8C750.87 651.59 750.45 663 750.45 663H752.25L754.53 648.82C754.808 647.082 754.533 645.3 753.744 643.726C752.954 642.152 751.69 640.866 750.13 640.05C750.13 640.05 749.4 645.48 745.42 647.88C741.44 650.28 729.23 658.88 729.23 658.88C728.188 658.754 727.134 658.781 726.1 658.96C725.564 659.01 725.07 659.272 724.727 659.686C724.384 660.1 724.22 660.634 724.27 661.17C724.32 661.706 724.582 662.2 724.996 662.543C725.41 662.886 725.944 663.05 726.48 663Z" fill="#437DC0"/>
<path d="M768.47 552.75C768.47 552.75 800.53 613.56 805.63 627.45C808.867 636.04 811.213 644.94 812.63 654.01C812.73 655.73 814.86 657.37 820.74 657.37C823.74 657.37 825.26 656.16 825.99 654.98C826.291 654.483 826.461 653.917 826.482 653.336C826.503 652.754 826.375 652.178 826.11 651.66C824.26 647.91 818.38 635.91 816.2 630.47C813.59 623.98 808 594.54 804.93 584.31C801.86 574.08 798.33 563 785 552.75C785 552.75 775.79 543.76 768.47 552.75Z" fill="url(#paint9_linear)"/>
<path d="M748.22 453.1C739.95 418.1 760.9 398.24 760.9 398.24C747.68 385.55 723.59 379.77 723.59 379.77C723.59 379.77 700.59 396.58 703.34 409.77C704.93 417.48 719.49 455.94 719.49 455.94C719.49 455.94 733 462.27 748.22 453.1Z" fill="#437DC0"/>
<path d="M766.55 470.45C763.19 460.31 748.22 453.1 748.22 453.1C732.95 462.27 719.49 455.9 719.49 455.9C719.49 455.9 716.49 467.44 718.55 478.16C720.61 488.88 733.71 557.8 733.71 557.8C754.31 561.97 785.98 553.6 785.98 553.6C772.86 530.31 769.92 480.59 766.55 470.45Z" fill="#437DC0"/>
<path d="M738.62 356.62L745.34 386.82C745.98 389.48 743.56 389.04 740.87 388.54C736.47 387.71 730.79 386 728.87 382.54C728.688 382.184 728.573 381.798 728.53 381.4L725.64 360.46C725.519 359.644 725.668 358.812 726.066 358.089C726.463 357.367 727.086 356.794 727.84 356.46L733.41 353.99C733.92 353.763 734.475 353.653 735.033 353.667C735.591 353.681 736.14 353.819 736.638 354.07C737.137 354.322 737.573 354.681 737.916 355.122C738.259 355.563 738.499 356.075 738.62 356.62V356.62Z" fill="url(#paint10_linear)"/>
<path d="M760.9 398.24C760.9 398.24 807.82 431.81 766.9 467.09C765.613 468.37 764.019 469.296 762.27 469.78C760.72 470.24 756.13 473.71 753.81 475.52C753.633 475.656 753.43 475.753 753.213 475.806C752.997 475.858 752.772 475.865 752.552 475.825C752.333 475.786 752.124 475.701 751.939 475.576C751.755 475.451 751.598 475.289 751.48 475.1V475.1C751.287 474.789 751.175 474.435 751.154 474.07C751.133 473.705 751.204 473.341 751.36 473.01L757.17 460.73C757.95 460 758.965 459.572 760.032 459.525C761.099 459.477 762.148 459.812 762.99 460.47V460.47C763.248 460.674 763.548 460.818 763.869 460.891C764.19 460.964 764.523 460.965 764.844 460.893C765.165 460.821 765.466 460.679 765.725 460.476C765.983 460.273 766.194 460.015 766.34 459.72C769.5 453.27 775.48 434.32 751.03 412.91C750.584 412.518 750.283 411.987 750.176 411.402C750.069 410.818 750.162 410.215 750.44 409.69C752.16 406.39 756.08 399.83 760.9 398.24Z" fill="url(#paint11_linear)"/>
<path d="M730.73 327.86C730.73 327.86 722.73 331.22 717.35 342.73C711.97 354.24 715.98 359.55 721.06 360.28C726.14 361.01 733.73 360.9 741.77 353.46C749.81 346.02 741.08 323.87 730.73 327.86Z" fill="url(#paint12_linear)"/>
<path d="M736.37 347.32C736.37 347.32 742.37 330.49 727.45 330.32L723.94 332.77C723.94 332.77 718.46 323.44 727.45 318.98C736.44 314.52 746.96 318.21 750.78 330.32C754.6 342.43 755.26 350.53 748.9 356.32C742.54 362.11 739.9 355.54 739.9 355.54C739.9 355.54 743.37 350.12 741.95 347.22C740.53 344.32 737.29 347.82 737.29 347.82L736.37 347.32Z" fill="#403D58"/>
<path d="M738 349.2C738 349.2 741 340.52 745.09 343.98C749.18 347.44 741.8 351.98 738.92 353.46L738 349.2Z" fill="url(#paint13_linear)"/>
<path d="M664.48 314.71C664.16 315.71 667.89 317.29 670.09 313.11C670.16 311.11 671.38 302.5 670.18 300.86C663.8 292.16 651.41 281.24 651.41 281.24C650.827 281.739 650.462 282.446 650.393 283.21C650.323 283.974 650.556 284.735 651.04 285.33L657.04 291.59C655.78 293.86 654.25 295.78 653.53 298.53C653.006 300.625 653.307 302.841 654.37 304.72C655.43 306.62 656.87 309.09 658.23 311.03C658.926 312.076 659.85 312.95 660.932 313.588C662.015 314.225 663.228 314.609 664.48 314.71Z" fill="url(#paint14_linear)"/>
<path d="M661.4 310.44C660.95 307.92 659.57 301.04 658.62 299.49C658.316 299.1 658.099 298.649 657.983 298.167C657.868 297.686 657.856 297.186 657.95 296.7C658.064 296.347 658.252 296.022 658.502 295.747C658.752 295.473 659.059 295.256 659.4 295.11L659.76 294.93L665.66 299.93L667.44 304.69L666.31 305.12L664.64 300.64L659.64 296.38C659.396 296.522 659.214 296.75 659.13 297.02C659.065 297.675 659.254 298.331 659.66 298.85C660.93 300.91 662.54 309.85 662.66 310.21L661.4 310.44Z" fill="url(#paint15_linear)"/>
<path d="M965.77 570.92C967.77 573.82 975.5 639.34 976.77 663.54C976.788 663.928 976.726 664.315 976.59 664.678C976.454 665.042 976.245 665.374 975.977 665.654C975.709 665.934 975.386 666.157 975.029 666.31C974.672 666.462 974.288 666.54 973.9 666.54V666.54C973.216 666.538 972.555 666.293 972.036 665.847C971.518 665.402 971.175 664.786 971.07 664.11L956.8 573L965.77 570.92Z" fill="#669CD3"/>
<path d="M903.28 570.92C901.33 573.82 893.56 639.34 892.34 663.54C892.323 663.927 892.383 664.313 892.519 664.676C892.655 665.039 892.863 665.37 893.13 665.65C893.397 665.931 893.718 666.154 894.074 666.307C894.43 666.46 894.813 666.539 895.2 666.54V666.54C895.886 666.541 896.549 666.296 897.07 665.851C897.591 665.405 897.935 664.787 898.04 664.11L912.25 573L903.28 570.92Z" fill="#669CD3"/>
<path d="M977.53 565.81V566.53C977.53 571.67 973.15 575.88 967.6 575.98L901.89 577.09C896.43 577.19 891.89 573.24 891.61 568.18V567.52C891.34 562.25 895.82 557.8 901.52 557.7L967.25 556.52C972.85 556.42 977.48 560.6 977.53 565.81Z" fill="#669CD3"/>
<path d="M849.7 661.16C861.38 661.16 866.55 660.16 868.86 659.24C868.634 660.216 868.084 661.086 867.299 661.709C866.514 662.332 865.542 662.671 864.54 662.67H823.22C822.91 662.672 822.604 662.602 822.326 662.466C822.047 662.33 821.804 662.13 821.616 661.884C821.428 661.638 821.3 661.351 821.241 661.047C821.183 660.742 821.196 660.428 821.28 660.13C826 660.51 836 661.16 849.7 661.16Z" fill="#403D58"/>
<path d="M821.28 660.13C821.348 659.877 821.463 659.64 821.62 659.43C824.77 655.43 831.09 649.1 839.69 649.22C852.29 649.4 856.69 650.77 866.48 649.3L868.79 656.96C869.012 657.701 869.036 658.487 868.86 659.24C866.55 660.15 861.38 661.16 849.7 661.16C836 661.16 826 660.51 821.28 660.13Z" fill="#403D58"/>
<path d="M863.64 641.05L866.48 650.69C866.48 650.69 860.2 653.55 854.67 651.25L853.59 642.9L863.64 641.05Z" fill="url(#paint16_linear)"/>
<path d="M778 655.08C787.11 662.4 791.76 664.86 794.13 665.6C793.347 666.22 792.378 666.557 791.38 666.557C790.382 666.557 789.413 666.22 788.63 665.6L756.42 639.71C756.179 639.518 755.986 639.273 755.856 638.994C755.725 638.716 755.661 638.41 755.668 638.103C755.675 637.795 755.752 637.493 755.895 637.22C756.038 636.947 756.241 636.711 756.49 636.53C759.91 639.73 767.31 646.5 778 655.08Z" fill="#403D58"/>
<path d="M756.48 636.49C756.687 636.331 756.926 636.218 757.18 636.16C762.18 635.01 771 634.07 777.63 639.56C787.34 647.56 789.92 651.4 798.47 656.39L795.47 663.78C795.184 664.498 794.711 665.126 794.1 665.6C791.73 664.86 787.1 662.4 777.97 655.08C767.31 646.5 759.91 639.73 756.48 636.49Z" fill="#403D58"/>
<path d="M924.3 531.17C924.3 531.17 854.37 536.88 840.02 543.63C825.67 550.38 851.73 645 851.73 645C851.73 645 855.63 646.88 864.32 644.18C864.32 644.18 855.41 574.33 862.04 559.18L937.76 546.8L924.3 531.17Z" fill="#336C9C"/>
<path d="M805.41 643.1C804.76 643.69 798.47 656.39 798.47 656.39C798.47 656.39 791.47 654.88 790.02 650.44L796.33 639L805.41 643.1Z" fill="url(#paint17_linear)"/>
<path d="M966.42 530.59C967.929 534.676 968.672 539.005 968.61 543.36C968.508 548.224 966.561 552.868 963.163 556.349C959.765 559.831 955.17 561.89 950.31 562.11L867.64 565.88C866.79 565.926 865.977 566.241 865.319 566.781C864.661 567.32 864.192 568.056 863.98 568.88C861.98 576.4 852.54 599.48 806.12 645.52C805.52 646.116 804.735 646.491 803.894 646.584C803.053 646.676 802.206 646.481 801.49 646.03L794.88 641.85C794.548 641.64 794.31 641.308 794.216 640.926C794.123 640.544 794.182 640.14 794.38 639.8L842.52 557.6C845.046 553.424 849.111 550.407 853.84 549.2L924.3 531.2L966.42 530.59Z" fill="#437DC0"/>
<path d="M885 402.18C885 402.18 893.85 417.84 902.88 425.43L884.22 435.84C884.22 435.84 880.01 419.26 870.41 414.41L885 402.18Z" fill="url(#paint18_linear)"/>
<path d="M967.92 531.17C967.92 531.17 945.6 536.61 924.3 531.17C924.3 531.17 894.49 491.1 882.96 480.17C882.96 480.17 864.56 509.17 823.62 513.31L821.33 508.21C821.33 508.21 853.93 493.21 863.97 470.09C874.01 446.97 878.03 437.16 887.16 431.09C892.85 427.34 896.25 424.78 898.01 423.38C898.477 423.006 899.049 422.784 899.647 422.747C900.245 422.709 900.839 422.857 901.35 423.17C911 429.13 956.63 460.36 967.92 531.17Z" fill="#F15931"/>
<path d="M884.17 479.39C884.362 479.398 884.554 479.36 884.728 479.278C884.902 479.196 885.054 479.073 885.17 478.92C889.74 472.811 893.504 466.14 896.37 459.07C896.476 458.775 896.462 458.45 896.331 458.165C896.201 457.879 895.963 457.657 895.671 457.544C895.378 457.432 895.053 457.439 894.765 457.563C894.477 457.688 894.249 457.92 894.13 458.21C891.335 465.058 887.686 471.526 883.27 477.46C883.077 477.712 882.992 478.031 883.033 478.345C883.074 478.66 883.238 478.946 883.49 479.14C883.685 479.293 883.923 479.381 884.17 479.39Z" fill="#D84427"/>
<path d="M826.08 505.56L821.47 504.34L807.47 501.1C806.636 500.905 805.772 500.877 804.928 501.018C804.083 501.158 803.275 501.465 802.55 501.92L790.55 509.49L823.77 509.44L826.08 505.56Z" fill="url(#paint19_linear)"/>
<path d="M870.89 378.7C870.89 378.7 862.28 393.01 860.79 400.92C859.3 408.83 856.89 413.77 865.89 416.58C874.89 419.39 883.26 415.84 888.51 408.45C888.51 408.45 896.71 397.09 895.89 391.89C895.07 386.69 870.89 378.7 870.89 378.7Z" fill="url(#paint20_linear)"/>
<path d="M886.11 402.33L884.95 402.18C884.95 402.18 891.04 392.97 887.05 390.69C883.06 388.41 866.82 382.8 864 376.4C861.28 370.23 865.35 363.26 870.26 361.8C870.412 361.759 870.575 361.777 870.714 361.851C870.854 361.926 870.96 362.05 871.01 362.2L871.3 362.97C871.347 363.087 871.427 363.187 871.532 363.258C871.636 363.328 871.759 363.366 871.885 363.366C872.011 363.366 872.134 363.328 872.238 363.258C872.343 363.187 872.423 363.087 872.47 362.97V362.97C872.518 362.858 872.597 362.763 872.699 362.696C872.8 362.63 872.919 362.594 873.04 362.594C873.161 362.594 873.28 362.63 873.381 362.696C873.483 362.763 873.562 362.858 873.61 362.97C874.48 364.89 877.09 368.17 884.9 370.7C895.99 374.29 902.9 379.88 902.05 387.76C902.037 387.872 902.054 387.986 902.1 388.089C902.146 388.192 902.219 388.281 902.311 388.346C902.403 388.412 902.511 388.451 902.623 388.461C902.735 388.47 902.848 388.449 902.95 388.4C903.86 388 905.23 387.94 906.83 389.69C909.6 392.69 907.43 399.36 899.83 404.06C899.745 404.109 899.673 404.178 899.62 404.26C899.567 404.343 899.534 404.437 899.524 404.534C899.515 404.632 899.528 404.731 899.564 404.822C899.6 404.913 899.657 404.995 899.73 405.06C900.86 406.06 902.46 408.2 897.33 410.13C892.2 412.06 889.22 411.44 888.16 411.01C888.024 410.953 887.912 410.852 887.841 410.723C887.77 410.594 887.745 410.445 887.77 410.3L889.12 403.4C889.136 403.315 889.134 403.228 889.115 403.144C889.096 403.059 889.06 402.98 889.01 402.91C888.96 402.84 888.896 402.781 888.822 402.736C888.748 402.691 888.666 402.662 888.58 402.65L886.11 402.33Z" fill="url(#paint21_linear)"/>
<path d="M885.63 403.75C885.63 403.75 889.43 394.39 893.42 397.68C897.41 400.97 889.73 408.25 886.19 408.15L885.63 403.75Z" fill="url(#paint22_linear)"/>
<path d="M838.92 516H838.75L767.75 515.93C766.939 515.884 766.176 515.53 765.617 514.94C765.059 514.349 764.748 513.568 764.748 512.755C764.748 511.942 765.059 511.161 765.617 510.57C766.176 509.98 766.939 509.626 767.75 509.58L838.75 509.65C839.166 509.639 839.581 509.711 839.969 509.861C840.358 510.01 840.713 510.235 841.015 510.522C841.317 510.809 841.559 511.152 841.728 511.533C841.897 511.914 841.989 512.324 842 512.74C842.011 513.156 841.939 513.571 841.789 513.959C841.64 514.348 841.415 514.703 841.128 515.005C840.841 515.307 840.498 515.549 840.117 515.718C839.736 515.887 839.326 515.979 838.91 515.99L838.92 516Z" fill="#20B24D"/>
<path d="M740.28 446.5C740.307 446.545 740.331 446.591 740.35 446.64L770.22 511C770.564 511.761 770.594 512.627 770.303 513.41C770.012 514.193 769.424 514.829 768.666 515.181C767.909 515.532 767.043 515.571 766.258 515.288C765.472 515.005 764.829 514.424 764.47 513.67L734.6 449.27C734.257 448.521 734.22 447.667 734.495 446.891C734.771 446.114 735.338 445.475 736.077 445.11C736.816 444.745 737.668 444.681 738.452 444.933C739.237 445.185 739.892 445.733 740.28 446.46V446.5Z" fill="#20B24D"/>
<path d="M807.31 519.58C807.62 520.86 837.24 631.94 844.75 660.1C844.955 660.853 844.985 661.643 844.836 662.41C844.688 663.176 844.365 663.898 843.894 664.52C843.423 665.143 842.815 665.648 842.117 665.998C841.419 666.349 840.651 666.534 839.87 666.54V666.54C838.74 666.534 837.644 666.149 836.758 665.448C835.872 664.746 835.246 663.769 834.98 662.67L802.1 529.36L807.31 519.58Z" fill="#C0CFEB"/>
<path d="M791.09 519.58C790.78 520.86 761.16 631.94 753.65 660.1C753.445 660.853 753.415 661.643 753.564 662.41C753.712 663.176 754.035 663.898 754.506 664.52C754.977 665.143 755.585 665.648 756.283 665.998C756.981 666.349 757.749 666.534 758.53 666.54V666.54C759.66 666.534 760.756 666.149 761.642 665.448C762.528 664.746 763.154 663.769 763.42 662.67L796.3 529.36L791.09 519.58Z" fill="#C0CFEB"/>
<path d="M789.86 515.94H808.3V530.76C808.304 531.263 808.208 531.762 808.019 532.229C807.829 532.695 807.549 533.119 807.195 533.477C806.841 533.835 806.42 534.119 805.956 534.313C805.491 534.508 804.993 534.609 804.49 534.61H802V567.89C802.003 568.27 801.93 568.647 801.787 569C801.643 569.352 801.432 569.673 801.164 569.943C800.897 570.213 800.578 570.428 800.228 570.575C799.877 570.722 799.5 570.799 799.12 570.8V570.8C798.74 570.799 798.363 570.722 798.012 570.575C797.662 570.428 797.343 570.213 797.076 569.943C796.808 569.673 796.597 569.352 796.453 569C796.31 568.647 796.237 568.27 796.24 567.89V534.61H794.95C793.611 534.589 792.335 534.04 791.399 533.083C790.463 532.126 789.942 530.839 789.95 529.5L789.86 515.94Z" fill="#C0CFEB"/>
<path d="M853.66 512.38H750.66C749.956 512.383 749.273 512.621 748.719 513.056C748.165 513.49 747.771 514.097 747.6 514.78L746.17 520.42C746.044 520.891 746.029 521.384 746.124 521.862C746.219 522.34 746.423 522.79 746.72 523.176C747.016 523.563 747.398 523.876 747.835 524.092C748.272 524.307 748.753 524.42 749.24 524.42L854.93 523.81C855.411 523.797 855.882 523.676 856.309 523.455C856.737 523.234 857.108 522.92 857.397 522.535C857.685 522.15 857.883 521.706 857.976 521.234C858.068 520.762 858.052 520.275 857.93 519.81L856.68 514.81C856.518 514.127 856.133 513.518 855.586 513.078C855.04 512.638 854.362 512.392 853.66 512.38V512.38Z" fill="#C0CFEB"/>
<defs>
<linearGradient id="paint0_linear" x1="269.44" y1="627.68" x2="283.28" y2="627.68" gradientUnits="userSpaceOnUse">
<stop stop-color="#F9BABA"/>
<stop offset="1" stop-color="#F5928F"/>
</linearGradient>
<linearGradient id="paint1_linear" x1="78912.5" y1="10011.8" x2="79081.7" y2="10011.8" gradientUnits="userSpaceOnUse">
<stop stop-color="#F9BABA"/>
<stop offset="1" stop-color="#F5928F"/>
</linearGradient>
<linearGradient id="paint2_linear" x1="275829" y1="12565.8" x2="277884" y2="12565.8" gradientUnits="userSpaceOnUse">
<stop stop-color="#F9BABA"/>
<stop offset="1" stop-color="#F5928F"/>
</linearGradient>
<linearGradient id="paint3_linear" x1="181760" y1="12326.7" x2="182665" y2="12326.7" gradientUnits="userSpaceOnUse">
<stop stop-color="#F9BABA"/>
<stop offset="1" stop-color="#F5928F"/>
</linearGradient>
<linearGradient id="paint4_linear" x1="559192" y1="14405" x2="557906" y2="21729.9" gradientUnits="userSpaceOnUse">
<stop stop-color="#F9BABA"/>
<stop offset="1" stop-color="#F5928F"/>
</linearGradient>
<linearGradient id="paint5_linear" x1="146647" y1="32793.7" x2="145573" y2="34291.3" gradientUnits="userSpaceOnUse">
<stop stop-color="#F9BABA"/>
<stop offset="1" stop-color="#F5928F"/>
</linearGradient>
<linearGradient id="paint6_linear" x1="53933.5" y1="10772.1" x2="54225.8" y2="10414" gradientUnits="userSpaceOnUse">
<stop stop-color="#F9BABA"/>
<stop offset="1" stop-color="#F5928F"/>
</linearGradient>
<linearGradient id="paint7_linear" x1="685.27" y1="333.29" x2="725.94" y2="425.82" gradientUnits="userSpaceOnUse">
<stop stop-color="#F5928F"/>
<stop offset="1" stop-color="#F8B2B1"/>
</linearGradient>
<linearGradient id="paint8_linear" x1="-95743" y1="82542" x2="-84149.9" y2="51243.6" gradientUnits="userSpaceOnUse">
<stop stop-color="#F5928F"/>
<stop offset="1" stop-color="#F8B2B1"/>
</linearGradient>
<linearGradient id="paint9_linear" x1="-211377" y1="80183.5" x2="-206012" y2="46685.6" gradientUnits="userSpaceOnUse">
<stop stop-color="#F5928F"/>
<stop offset="1" stop-color="#F8B2B1"/>
</linearGradient>
<linearGradient id="paint10_linear" x1="15125.4" y1="13443.6" x2="15518.9" y2="13443.6" gradientUnits="userSpaceOnUse">
<stop stop-color="#F5928F"/>
<stop offset="1" stop-color="#F8B2B1"/>
</linearGradient>
<linearGradient id="paint11_linear" x1="-123036" y1="34317.2" x2="-121912" y2="34317.2" gradientUnits="userSpaceOnUse">
<stop stop-color="#F5928F"/>
<stop offset="1" stop-color="#F8B2B1"/>
</linearGradient>
<linearGradient id="paint12_linear" x1="-111535" y1="12655.5" x2="-110004" y2="10182.2" gradientUnits="userSpaceOnUse">
<stop stop-color="#F5928F"/>
<stop offset="1" stop-color="#F8B2B1"/>
</linearGradient>
<linearGradient id="paint13_linear" x1="-30103.9" y1="4221.49" x2="-29606" y2="3507.36" gradientUnits="userSpaceOnUse">
<stop stop-color="#F5928F"/>
<stop offset="1" stop-color="#F8B2B1"/>
</linearGradient>
<linearGradient id="paint14_linear" x1="-75892" y1="11939.4" x2="-74058.7" y2="14388.7" gradientUnits="userSpaceOnUse">
<stop stop-color="#F5928F"/>
<stop offset="1" stop-color="#F8B2B1"/>
</linearGradient>
<linearGradient id="paint15_linear" x1="-35502" y1="4989.5" x2="-35410.5" y2="4989.5" gradientUnits="userSpaceOnUse">
<stop stop-color="#F5928F"/>
<stop offset="1" stop-color="#F8B2B1"/>
</linearGradient>
<linearGradient id="paint16_linear" x1="195895" y1="7814.97" x2="195729" y2="7814.97" gradientUnits="userSpaceOnUse">
<stop stop-color="#F5928F"/>
<stop offset="1" stop-color="#F8B2B1"/>
</linearGradient>
<linearGradient id="paint17_linear" x1="236206" y1="11902.2" x2="235969" y2="11902.2" gradientUnits="userSpaceOnUse">
<stop stop-color="#F5928F"/>
<stop offset="1" stop-color="#F8B2B1"/>
</linearGradient>
<linearGradient id="paint18_linear" x1="518533" y1="13747" x2="519491" y2="15033.2" gradientUnits="userSpaceOnUse">
<stop stop-color="#F5928F"/>
<stop offset="1" stop-color="#F8B2B1"/>
</linearGradient>
<linearGradient id="paint19_linear" x1="567510" y1="4825.79" x2="566246" y2="4825.79" gradientUnits="userSpaceOnUse">
<stop stop-color="#F5928F"/>
<stop offset="1" stop-color="#F8B2B1"/>
</linearGradient>
<linearGradient id="paint20_linear" x1="534575" y1="19657.7" x2="533172" y2="21306.1" gradientUnits="userSpaceOnUse">
<stop stop-color="#F5928F"/>
<stop offset="1" stop-color="#F8B2B1"/>
</linearGradient>
<linearGradient id="paint21_linear" x1="876.654" y1="364.633" x2="836.724" y2="404.124" gradientUnits="userSpaceOnUse">
<stop stop-color="#201B59"/>
<stop offset="1" stop-color="#2D2D84"/>
</linearGradient>
<linearGradient id="paint22_linear" x1="119534" y1="2105.25" x2="119118" y2="2522.49" gradientUnits="userSpaceOnUse">
<stop stop-color="#F5928F"/>
<stop offset="1" stop-color="#F8B2B1"/>
</linearGradient>
</defs>
</svg>
