<?xml version="1.0" encoding="utf-8"?>
<!-- Generator: Adobe Illustrator 24.1.2, SVG Export Plug-In . SVG Version: 6.00 Build 0)  -->
<svg version="1.1" id="Layer_1" xmlns="http://www.w3.org/2000/svg" xmlns:xlink="http://www.w3.org/1999/xlink" x="0px" y="0px"
	 viewBox="0 0 1088 688" style="enable-background:new 0 0 1088 688;" xml:space="preserve">
<style type="text/css">
	.st0{fill:#3A68B2;}
	.st1{fill:url(#SVGID_1_);}
	.st2{fill:#4D83C3;}
	.st3{fill:url(#SVGID_2_);}
	.st4{fill:url(#SVGID_3_);}
	.st5{fill:url(#SVGID_4_);}
	.st6{fill:url(#SVGID_5_);}
	.st7{fill:#4E83C2;}
	.st8{fill:#3968B2;}
	.st9{fill:url(#SVGID_6_);}
	.st10{fill:#669CD3;}
	.st11{fill:#3A374F;}
	.st12{fill:#534E66;}
	.st13{fill:#53506D;}
	.st14{fill:#C0CFEB;}
	.st15{fill:#F05781;}
	.st16{opacity:0.63;fill:#4E83C2;enable-background:new    ;}
	.st17{opacity:0.7;}
	.st18{fill:#FFFFFF;}
	.st19{fill:url(#SVGID_7_);}
	.st20{fill:url(#SVGID_8_);}
	.st21{fill:url(#SVGID_9_);}
	.st22{fill:url(#SVGID_10_);}
	.st23{fill:#403D58;}
	.st24{fill:url(#SVGID_11_);}
	.st25{fill:url(#SVGID_12_);}
	.st26{fill:url(#SVGID_13_);}
	.st27{fill:url(#SVGID_14_);}
	.st28{fill:url(#SVGID_15_);}
	.st29{fill:url(#SVGID_16_);}
	.st30{fill:#8193CA;}
	.st31{fill:#DBDAD9;}
	.st32{fill:#C4C4C4;}
	.st33{opacity:0.39;fill:#FFFFFF;enable-background:new    ;}
	.st34{opacity:0.78;fill:#FFFFFF;enable-background:new    ;}
</style>
<path class="st0" d="M523.8,492.6V516l0,0c-1.4,14.2-60.6,40.2-146.6,40.6c-126.5,0.7-169.2-27.5-171.1-42l0,0v-21.6L523.8,492.6z"
	/>
<linearGradient id="SVGID_1_" gradientUnits="userSpaceOnUse" x1="373.6887" y1="477.4821" x2="352.1786" y2="-209.468" gradientTransform="matrix(1 0 0 -1 0 687.962)">
	<stop  offset="0" style="stop-color:#5560AB"/>
	<stop  offset="1" style="stop-color:#4C57A6"/>
</linearGradient>
<path class="st1" d="M205.9,493.2c0,14.6,73,26.1,161.5,25.7c87-0.4,156.4-12.1,156.4-26.2s-69.4-25.7-156.4-25.7
	C278.9,466.8,205.9,478.6,205.9,493.2z"/>
<path class="st0" d="M207.1,491.4c0,14.5,72.4,25.9,160.3,25.6c86.4-0.3,155.3-12,155.3-26s-68.9-25.5-155.3-25.6
	C279.5,465.3,207.1,476.9,207.1,491.4z"/>
<polygon class="st0" points="205.9,514.7 205.9,493.1 523.8,492.6 523.8,516 "/>
<path class="st2" d="M205.9,493.2c0,14.6,73,26.1,161.5,25.7c87-0.4,156.4-12.1,156.4-26.2s-69.4-25.7-156.4-25.7
	C278.9,466.8,205.9,478.6,205.9,493.2z"/>
<path class="st0" d="M523.8,448.1v23.5l0,0c-1.4,14.1-60.6,38.9-146.6,38.5C240.8,509.4,208,484.7,206,470.2l0,0v-21.6L523.8,448.1z
	"/>
<linearGradient id="SVGID_2_" gradientUnits="userSpaceOnUse" x1="372.298" y1="477.5221" x2="350.7881" y2="-209.4179" gradientTransform="matrix(1 0 0 -1 0 687.962)">
	<stop  offset="0" style="stop-color:#5560AB"/>
	<stop  offset="1" style="stop-color:#4C57A6"/>
</linearGradient>
<path class="st3" d="M205.9,448.7c0,14.6,73,26.1,161.5,25.7c87-0.4,156.4-12.1,156.4-26.2s-69.4-25.6-156.4-25.7
	C278.9,422.4,205.9,434.1,205.9,448.7z"/>
<path class="st0" d="M207.1,446.9c0,14.5,72.4,25.9,160.3,25.6c86.4-0.3,155.3-12,155.3-26s-68.9-25.5-155.3-25.6
	C279.5,420.8,207.1,432.5,207.1,446.9z"/>
<polygon class="st0" points="205.9,470.2 205.9,448.6 523.8,448.1 523.8,471.6 "/>
<path class="st2" d="M205.9,448.7c0,14.6,73,26.1,161.5,25.7c87-0.4,156.4-12.1,156.4-26.2s-69.4-25.6-156.4-25.7
	C278.9,422.4,205.9,434.1,205.9,448.7z"/>
<path class="st0" d="M523.8,403.6V427l0,0c-1.5,14.2-60.7,39-146.7,38.5c-136.3-0.7-169.2-25.4-171.1-39.8l0,0v-21.6L523.8,403.6z"
	/>
<linearGradient id="SVGID_3_" gradientUnits="userSpaceOnUse" x1="370.9038" y1="477.5619" x2="349.3938" y2="-209.3782" gradientTransform="matrix(1 0 0 -1 0 687.962)">
	<stop  offset="0" style="stop-color:#5560AB"/>
	<stop  offset="1" style="stop-color:#4C57A6"/>
</linearGradient>
<path class="st4" d="M205.9,404.1c0,14.6,73,26.1,161.5,25.7c87-0.4,156.4-12.1,156.4-26.2s-69.4-25.7-156.4-25.7
	C278.9,377.8,205.9,389.6,205.9,404.1z"/>
<path class="st0" d="M207.1,402.4c0,14.5,72.4,25.9,160.3,25.6c86.4-0.3,155.3-12,155.3-26s-68.9-25.5-155.3-25.6
	C279.5,376.3,207.1,387.9,207.1,402.4z"/>
<polygon class="st0" points="205.9,425.7 205.9,404.1 523.8,403.6 523.8,427 "/>
<path class="st2" d="M205.9,404.1c0,14.6,73,26.1,161.5,25.7c87-0.4,156.4-12.1,156.4-26.2s-69.4-25.7-156.4-25.7
	C278.9,377.8,205.9,389.6,205.9,404.1z"/>
<path class="st0" d="M523.8,359v23.5l0,0c-1.4,14.2-60.6,38.9-146.6,38.5C240.8,420.2,208,395.6,206,381.1l0,0v-21.6L523.8,359z"/>
<linearGradient id="SVGID_4_" gradientUnits="userSpaceOnUse" x1="369.5099" y1="477.612" x2="348" y2="-209.3279" gradientTransform="matrix(1 0 0 -1 0 687.962)">
	<stop  offset="0" style="stop-color:#5560AB"/>
	<stop  offset="1" style="stop-color:#4C57A6"/>
</linearGradient>
<path class="st5" d="M205.9,359.6c0,14.6,73,26.1,161.5,25.7c87-0.4,156.4-12.1,156.4-26.2s-69.4-25.6-156.4-25.7
	C278.9,333.3,205.9,345,205.9,359.6z"/>
<path class="st0" d="M207.1,357.8c0,14.5,72.4,25.9,160.3,25.6c86.4-0.3,155.3-12,155.3-26s-68.9-25.5-155.3-25.6
	C279.5,331.7,207.1,343.3,207.1,357.8z"/>
<polygon class="st0" points="205.9,381.1 205.9,359.5 523.8,359 523.8,382.5 "/>
<path class="st2" d="M205.9,359.6c0,14.6,73,26.1,161.5,25.7c87-0.4,156.4-12.1,156.4-26.2s-69.4-25.6-156.4-25.7
	C278.9,333.3,205.9,345,205.9,359.6z"/>
<path class="st0" d="M523.8,314.4v23.5l0,0c-1.4,14.2-60.6,38.9-146.6,38.5C240.8,375.7,207.9,351,206,336.5l0,0v-21.6L523.8,314.4z
	"/>
<linearGradient id="SVGID_5_" gradientUnits="userSpaceOnUse" x1="368.1153" y1="477.6522" x2="346.6053" y2="-209.2878" gradientTransform="matrix(1 0 0 -1 0 687.962)">
	<stop  offset="0" style="stop-color:#5560AB"/>
	<stop  offset="1" style="stop-color:#4C57A6"/>
</linearGradient>
<path class="st6" d="M205.9,315c0,14.6,73,26.1,161.5,25.7c87-0.4,156.4-12.1,156.4-26.2s-69.4-25.6-156.4-25.7
	C278.9,288.7,205.9,300.4,205.9,315z"/>
<path class="st0" d="M207.1,313.2c0,14.5,72.4,25.9,160.3,25.6c86.4-0.3,155.3-12,155.3-26s-68.9-25.5-155.3-25.6
	C279.5,287.1,207.1,298.8,207.1,313.2z"/>
<polygon class="st0" points="205.9,336.5 205.9,314.9 523.8,314.4 523.8,337.9 "/>
<path class="st7" d="M205.9,315c0,14.6,73,26.1,161.5,25.7c87-0.4,156.4-12.1,156.4-26.2s-69.4-25.6-156.4-25.7
	C278.9,288.7,205.9,300.4,205.9,315z"/>
<path class="st8" d="M523.8,269.9v23.5l0,0c-1.4,14.2-60.6,38.9-146.6,38.5C240.8,331.1,207.9,306.4,206,292l0,0v-21.6L523.8,269.9z
	"/>
<linearGradient id="SVGID_6_" gradientUnits="userSpaceOnUse" x1="366.7214" y1="477.692" x2="345.2114" y2="-209.248" gradientTransform="matrix(1 0 0 -1 0 687.962)">
	<stop  offset="0" style="stop-color:#5560AB"/>
	<stop  offset="1" style="stop-color:#4C57A6"/>
</linearGradient>
<path class="st9" d="M205.9,270.4c0,14.6,73,26.1,161.5,25.7c87-0.4,156.4-12.1,156.4-26.2s-69.4-25.6-156.4-25.7
	C278.9,244.1,205.9,255.9,205.9,270.4z"/>
<path class="st0" d="M207.1,268.7c0,14.5,72.4,25.9,160.3,25.6c86.4-0.3,155.3-12,155.3-26s-68.9-25.4-155.3-25.6
	C279.5,242.6,207.1,254.2,207.1,268.7z"/>
<polygon class="st0" points="205.9,292 205.9,270.4 523.8,269.9 523.8,293.3 "/>
<path class="st7" d="M205.9,270.4c0,14.6,73,26.1,161.5,25.7c87-0.4,156.4-12.1,156.4-26.2s-69.4-25.6-156.4-25.7
	C278.9,244.1,205.9,255.9,205.9,270.4z"/>
<path class="st2" d="M730.6,93.7c-1,0-1.8-0.8-1.8-1.8c-0.2-10.2-3.3-60.6-47.8-71.2c-49.5-11.7-72.1,38.6-72.1,38.6
	S547.7,35.8,536,98.7c-38.4,9.2-48.4,59.3-23.4,83.8c4,3.9,9.3,6.1,14.8,6.1l240.4,2.2c7.1,0.1,13.3-4.6,15.3-11.3
	C790.6,154.1,800.4,95.3,730.6,93.7z"/>
<path class="st10" d="M725.1,94.7c-1,0-1.8-0.8-1.8-1.8c-0.2-9.7-3.3-56.5-45.2-66.3c-46.8-11-68.2,36-68.2,36s-57.9-21.9-69,36.8
	c-35.9,8.5-45.5,54.5-22.8,77.6c4,4.1,9.4,6.4,15.1,6.4l226.3,2c7.1,0.1,13.3-4.6,15.3-11.4C781.9,150,790.3,96.3,725.1,94.7z"/>
<polygon class="st11" points="550.8,524.4 542,602.9 643.6,602.9 630.3,524.4 "/>
<path class="st12" d="M374.1,325.4v185c0,15.2,12.1,27.7,27.3,28.1c67.6,1.7,303.9,6,368.3,5c11.1-0.2,20-9,20.3-20
	c1.2-43,3.3-146.3-4.2-194.3c-1.6-10.1-10.1-17.7-20.3-18c-56.6-1.8-307.2-7.5-371.5-6.1C382.9,305.3,374.1,314.3,374.1,325.4z"/>
<path class="st11" d="M385.7,324.5v175.8c0,8.9,7.1,16.1,16,16.3l358.7,4.5c8.7,0.1,15.9-6.8,16.1-15.6c0-0.1,0-0.1,0-0.2l0.6-174.2
	c0-6.3-5-11.5-11.3-11.6L398.5,312c-6.9-0.2-12.7,5.3-12.8,12.2C385.7,324.3,385.7,324.4,385.7,324.5z"/>
<path class="st12" d="M665.5,619H516.8c-4,0-7.1-2.9-6.3-6l1.9-7.5c0.6-2.3,3.1-3.9,6-4l143.3-4.5c3.1-0.1,5.8,1.5,6.5,3.9l3.4,12
	C672.6,616,669.5,619,665.5,619z"/>
<circle class="st13" cx="606.2" cy="413.8" r="58.5"/>
<path class="st11" d="M602,449.5c-2.6,0-5-1.4-6.3-3.6l-17.4-18.1c-2.1-3.5-1-8,2.5-10.2c3.5-2.1,7-1.2,10,2.5l9.1,9.8l21.9-43.8
	c1.8-3.6,6.2-5.1,9.8-3.3c0,0,0.1,0,0.1,0c3.6,1.9,5.1,6.4,3.2,10l-26.4,52.5c-1.2,2.4-3.6,3.9-6.3,4L602,449.5z"/>
<path class="st12" d="M217.7,642.6c0,3.1,2.5,5.7,5.7,5.7h307c3.1,0,5.7-2.5,5.7-5.7l2.6-176.4c0-3.1-3.7-9.2-10.4-8.8l-300-7.8
	c-7.9-0.2-14.5,6-14.7,13.9c0,0.2,0,0.5,0,0.7L217.7,642.6z"/>
<path class="st12" d="M549.1,663H198.5c-3.1,0-5.7-2.5-5.7-5.7v-4.2c0-3.1,2.5-5.7,5.7-5.7h350.6c3.1,0,5.7,2.5,5.7,5.7v4.2
	C554.7,660.4,552.2,663,549.1,663z"/>
<path class="st11" d="M223.3,637.2c0,3,2.4,5.4,5.4,5.4H523c3,0,5.4-2.4,5.4-5.4l2.4-160.2c-0.3-9.6-8.7-13.1-13.8-12.9l-287.5-7.7
	c-5.5-0.2-10.1,4.2-10.3,9.7c0,0.2,0,0.4,0,0.6L223.3,637.2z"/>
<path class="st14" d="M728.2,438.3L728.2,438.3c-1.4,0-2.4-1.2-2.4-2.5c0-1.4,1.1-2.5,2.5-2.5c1.3,0,2.4,1.1,2.4,2.4c0,0,0,0,0,0
	v0.1C730.7,437.2,729.6,438.3,728.2,438.3C728.2,438.3,728.2,438.3,728.2,438.3z M728.4,430.8L728.4,430.8c-1.4,0-2.4-1.2-2.4-2.5
	c0,0,0,0,0,0l0.2-7.4c0-1.3,1.1-2.4,2.5-2.4h0c1.4,0,2.4,1.2,2.4,2.5c0,0,0,0,0,0l-0.2,7.4C730.9,429.8,729.8,430.9,728.4,430.8
	L728.4,430.8z M728.7,416.1L728.7,416.1c-1.4,0-2.5-1.2-2.5-2.5c0,0,0,0,0,0l0.2-7.4c0-1.3,1.1-2.4,2.5-2.4l0,0
	c1.4,0,2.4,1.1,2.4,2.5c0,0,0,0,0,0l-0.2,7.4C731.1,415,730,416.1,728.7,416.1z M729,401.3L729,401.3c-1.4,0-2.5-1.2-2.4-2.5
	l0.2-7.4c0-1.3,1.1-2.4,2.5-2.4h0.1c1.4,0,2.4,1.2,2.4,2.5l-0.2,7.4C731.5,400.3,730.4,401.4,729,401.3
	C729,401.3,729,401.3,729,401.3L729,401.3z M729.3,386.6L729.3,386.6c-1.4,0-2.5-1.2-2.5-2.5c0,0,0,0,0,0l0.2-7.4
	c0-1.3,1.1-2.4,2.5-2.4l0,0c1.4,0,2.4,1.2,2.4,2.5c0,0,0,0,0,0l-0.2,7.4C731.7,385.5,730.7,386.6,729.3,386.6z M729.7,371.8
	L729.7,371.8c-1.4,0-2.4-1.2-2.4-2.5c0,0,0,0,0,0l0.2-7.4c0-1.4,1.2-2.4,2.5-2.4c1.4,0,2.4,1.2,2.4,2.5l-0.2,7.4
	C732.1,370.8,731,371.9,729.7,371.8z M730,357.1L730,357.1c-1.4,0-2.5-1.2-2.5-2.5l0.2-7.4c0-1.3,1.1-2.4,2.5-2.4h0.1
	c1.4,0,2.4,1.1,2.4,2.5c0,0,0,0,0,0l-0.2,7.4C732.4,356,731.3,357.1,730,357.1L730,357.1z M730.3,342.3L730.3,342.3
	c-1.4,0-2.4-1.1-2.4-2.5c0,0,0,0,0,0l0.2-7.4c0-1.3,1.1-2.4,2.5-2.4h0.1c1.4,0,2.4,1.2,2.4,2.5l-0.2,7.4
	C732.8,341.3,731.7,342.4,730.3,342.3C730.3,342.3,730.3,342.3,730.3,342.3z M730.6,327.6L730.6,327.6c-1.4,0-2.4-1.2-2.4-2.5
	c0,0,0,0,0,0l0.2-7.4c0-1.4,1.2-2.4,2.5-2.4c1.4,0,2.4,1.2,2.4,2.5l-0.2,7.4C733.1,326.5,732,327.6,730.6,327.6
	C730.6,327.6,730.6,327.6,730.6,327.6z M730.9,312.8L730.9,312.8c-1.4,0-2.5-1.2-2.5-2.5c0,0,0,0,0,0l0.2-7.4c0-1.3,1.1-2.4,2.5-2.4
	l0,0c1.4,0,2.4,1.2,2.4,2.5l-0.2,7.4C733.3,311.8,732.3,312.8,730.9,312.8z M731.3,298.1L731.3,298.1c-1.4,0-2.5-1.1-2.5-2.5
	c0,0,0,0,0,0l0.2-7.4c0-1.3,1.1-2.4,2.5-2.4h0.1c1.4,0,2.4,1.2,2.4,2.5l-0.2,7.4C733.7,297,732.6,298.1,731.3,298.1z M729,285.8
	L729,285.8l-7.5-0.2c-1.4,0-2.4-1.2-2.4-2.5c0-1.4,1.2-2.4,2.5-2.4l7.4,0.3c1.4,0.1,2.4,1.3,2.3,2.6
	C731.2,284.7,730.2,285.7,729,285.8L729,285.8z M714.2,285.3L714.2,285.3l-7.5-0.2c-1.4,0-2.4-1.2-2.4-2.5c0-1.4,1.2-2.4,2.5-2.4
	l0,0l7.4,0.3c1.4,0.1,2.4,1.3,2.3,2.6C716.5,284.2,715.5,285.2,714.2,285.3L714.2,285.3z M699.5,284.8L699.5,284.8l-7.5-0.2
	c-1.4,0-2.4-1.2-2.4-2.5c0-1.4,1.2-2.4,2.5-2.4l0,0l7.4,0.3c1.4,0,2.4,1.1,2.4,2.5C702,283.7,700.9,284.8,699.5,284.8L699.5,284.8z
	 M684.8,284.2L684.8,284.2h-0.9c-1.3,0-2.4-1.2-2.4-2.5l0.1-6.6c0-1.3,1.1-2.4,2.5-2.4l0,0c1.4,0,2.4,1.2,2.4,2.5l-0.1,4.8
	c1,0.9,1,2.5,0.1,3.5C686,284,685.4,284.3,684.8,284.2L684.8,284.2z M684.2,270.2L684.2,270.2c-1.4,0-2.4-1.2-2.4-2.5c0,0,0,0,0,0
	l0.2-7.4c0-1.3,1.1-2.4,2.5-2.4h0c1.4,0,2.4,1.2,2.4,2.5l-0.2,7.4C686.7,269.2,685.6,270.3,684.2,270.2
	C684.3,270.3,684.3,270.3,684.2,270.2L684.2,270.2z M684.5,255.5L684.5,255.5c-1.4,0-2.5-1.2-2.5-2.5c0,0,0,0,0,0l0.2-7.4
	c0-1.3,1.1-2.4,2.4-2.4c0,0,0,0,0.1,0c1.4,0,2.4,1.2,2.4,2.5l-0.2,7.4C687,254.4,685.9,255.5,684.5,255.5L684.5,255.5z M684.8,240.7
	L684.8,240.7c-1.4,0-2.4-1.2-2.4-2.5c0,0,0,0,0,0l0.2-7.4c0-1.3,1.1-2.4,2.5-2.4h0c1.4,0,2.4,1.2,2.4,2.5l-0.2,7.4
	C687.3,239.7,686.2,240.8,684.8,240.7L684.8,240.7z M685.1,226L685.1,226c-1.4,0-2.4-1.2-2.4-2.5c0,0,0,0,0,0l0.2-7.4
	c0-1.3,1.1-2.4,2.5-2.4l0,0c1.4,0,2.4,1.2,2.4,2.5c0,0,0,0,0,0l-0.2,7.4C687.6,224.9,686.5,226,685.1,226L685.1,226z M685.4,211.2
	L685.4,211.2c-1.4,0-2.5-1.2-2.5-2.5c0,0,0,0,0,0l0.2-7.4c0-1.3,1.1-2.4,2.4-2.4c0,0,0,0,0.1,0c1.4,0,2.4,1.2,2.4,2.5c0,0,0,0,0,0
	l-0.2,7.4C687.9,210.2,686.8,211.2,685.4,211.2L685.4,211.2z"/>
<path class="st14" d="M530.6,441.2L530.6,441.2c-1.4,0-2.4-1.1-2.4-2.5c0,0,0,0,0,0l0.1-7.4c0-1.3,1.1-2.4,2.5-2.4l0,0
	c1.4,0,2.4,1.1,2.4,2.5l-0.1,7.4C533,440.1,531.9,441.2,530.6,441.2z M530.8,426.5L530.8,426.5c-1.4,0-2.4-1.1-2.4-2.5c0,0,0,0,0,0
	l0.1-7.4c0-1.3,1.1-2.4,2.5-2.4l0,0c1.4,0,2.4,1.1,2.4,2.5c0,0,0,0,0,0l-0.1,7.4C533.2,425.4,532.1,426.5,530.8,426.5z M531,411.7
	L531,411.7c-1.4,0-2.4-1.1-2.4-2.5c0,0,0,0,0,0l0.1-7.4c0-1.4,1.1-2.4,2.5-2.4c1.4,0,2.4,1.1,2.4,2.5l0,0l-0.1,7.4
	C533.5,410.6,532.4,411.7,531,411.7C531,411.7,531,411.7,531,411.7z M531.2,397L531.2,397c-1.4,0-2.4-1.1-2.4-2.5c0,0,0,0,0,0
	l0.1-7.4c0.1-1.4,1.3-2.4,2.6-2.3c1.2,0.1,2.2,1.1,2.3,2.3l-0.1,7.4C533.7,395.9,532.6,397,531.2,397C531.3,397,531.3,397,531.2,397
	L531.2,397z M531.5,382.2L531.5,382.2c-1.4,0-2.4-1.1-2.4-2.5c0,0,0,0,0,0l0.1-7.4c0-1.4,1.1-2.4,2.5-2.4c1.4,0,2.4,1.1,2.4,2.5
	l-0.1,7.4C534,381.1,532.9,382.2,531.5,382.2L531.5,382.2z M531.7,367.5L531.7,367.5c-1.4,0-2.4-1.1-2.4-2.5c0,0,0,0,0,0l0.1-7.4
	c0-1.4,1.1-2.4,2.5-2.4c1.4,0,2.4,1.1,2.4,2.5l0,0l-0.1,7.4C534.2,366.4,533.1,367.4,531.7,367.5L531.7,367.5z M532,352.7L532,352.7
	c-1.4,0-2.4-1.1-2.4-2.5l0.1-7.4c0-1.4,1.1-2.4,2.5-2.4c1.4,0,2.4,1.1,2.4,2.5l0,0l-0.1,7.4C534.5,351.6,533.4,352.7,532,352.7
	C532,352.7,532,352.7,532,352.7z M532.2,337.9L532.2,337.9c-1.4,0-2.4-1.1-2.4-2.5l0.1-7.4c0-1.3,1.1-2.4,2.5-2.4l0,0
	c1.4,0,2.4,1.1,2.4,2.5c0,0,0,0,0,0l-0.1,7.4C534.7,336.9,533.6,337.9,532.2,337.9L532.2,337.9z M532.5,323.2L532.5,323.2
	c-1.4,0-2.4-1.1-2.4-2.5c0,0,0,0,0,0l0.1-7.4c0-1.3,1.1-2.4,2.5-2.4l0,0c1.4,0,2.4,1.1,2.4,2.5c0,0,0,0,0,0l-0.1,7.4
	C534.9,322.1,533.8,323.2,532.5,323.2L532.5,323.2z M532.7,308.4L532.7,308.4c-1.4,0-2.4-1.1-2.4-2.5c0,0,0,0,0,0l0.1-7.4
	c0-1.3,1.1-2.4,2.5-2.4l0,0c1.4,0,2.4,1.1,2.4,2.5c0,0,0,0,0,0l-0.1,7.4C535.2,307.4,534.1,308.4,532.7,308.4L532.7,308.4z
	 M533,293.7L533,293.7c-1.4,0-2.4-1.1-2.4-2.5c0,0,0,0,0,0l0.1-7.4c0-1.3,1.1-2.4,2.5-2.4l0,0c1.4,0,2.4,1.1,2.4,2.5c0,0,0,0,0,0
	l-0.1,7.4C535.4,292.6,534.3,293.7,533,293.7L533,293.7z M536.3,282c-1.4-0.1-2.4-1.3-2.3-2.6c0.1-1.2,1.1-2.2,2.3-2.3l7.4-0.1
	c1.3,0,2.5,1.1,2.5,2.4c0,1.4-1.1,2.5-2.4,2.5c0,0,0,0,0,0L536.3,282L536.3,282z M551,281.8c-1.4,0-2.5-1.1-2.5-2.5
	c0-1.4,1.1-2.5,2.5-2.5l7.4-0.1c1.4-0.1,2.5,0.9,2.6,2.3c0.1,1.4-0.9,2.5-2.3,2.6c-0.1,0-0.2,0-0.3,0L551,281.8L551,281.8z
	 M565.8,281.6c-1.4,0-2.5-1.1-2.5-2.5c0-1.4,1.1-2.5,2.5-2.5h1.2v-1.3c0-1.4,1.1-2.4,2.5-2.4c1.4,0,2.4,1.1,2.4,2.5l0,0l-0.1,3.7
	c0,1.3-1.1,2.4-2.4,2.4L565.8,281.6L565.8,281.6z M569.6,270.5L569.6,270.5c-1.4,0-2.4-1.1-2.4-2.5c0,0,0,0,0,0l0.1-7.4
	c0-1.3,1.1-2.4,2.4-2.4c0,0,0,0,0.1,0c1.4,0,2.4,1.1,2.4,2.5c0,0,0,0,0,0l-0.1,7.4C572.1,269.4,571,270.5,569.6,270.5L569.6,270.5z
	 M569.8,255.7L569.8,255.7c-1.4,0-2.4-1.1-2.4-2.5l0.1-7.4c0-1.3,1.1-2.4,2.5-2.4c0,0,0,0,0,0c1.4,0,2.4,1.1,2.4,2.5l-0.1,7.4
	C572.3,254.7,571.2,255.8,569.8,255.7L569.8,255.7z M570.1,241L570.1,241c-1.4,0-2.4-1.1-2.4-2.5l0.1-7.4c0-1.4,1.1-2.4,2.5-2.4
	c1.4,0,2.4,1.1,2.4,2.5l0,0l-0.1,7.4C572.6,239.9,571.5,241,570.1,241C570.1,241,570.1,241,570.1,241L570.1,241z M570.3,226.2
	L570.3,226.2c-1.4,0-2.4-1.1-2.4-2.5c0,0,0,0,0,0l0.1-7.4c0-1.4,1.1-2.4,2.5-2.4c1.4,0,2.4,1.1,2.4,2.5l0,0l-0.1,7.4
	C572.8,225.2,571.7,226.3,570.3,226.2L570.3,226.2z M570.5,211.5L570.5,211.5c-1.4,0-2.4-1.1-2.4-2.5c0,0,0,0,0,0l0.1-7.4
	c0-1.4,1.1-2.4,2.5-2.4c1.4,0,2.4,1.1,2.4,2.5l0,0l-0.1,7.4C573,210.4,571.9,211.5,570.5,211.5L570.5,211.5z"/>
<path class="st14" d="M620.6,352L620.6,352c-1.4,0-2.5-1.1-2.5-2.4c0,0,0,0,0,0v-2.2c0-1.4,1.1-2.5,2.4-2.5c0,0,0,0,0,0l0,0
	c1.4,0,2.5,1.1,2.5,2.5c0,0,0,0,0,0v2.2C623.1,350.9,622,352,620.6,352z M620.6,342.4L620.6,342.4c-1.4,0-2.5-1.1-2.5-2.5
	c0,0,0,0,0,0v-7.4c0-1.4,1.1-2.5,2.5-2.5l0,0c1.4,0,2.5,1.1,2.5,2.5v7.4C623,341.3,622,342.4,620.6,342.4L620.6,342.4z M620.7,327.7
	L620.7,327.7c-1.4,0-2.5-1.1-2.5-2.5c0,0,0,0,0,0v-7.4c0-1.4,1.1-2.4,2.5-2.5l0,0c1.4,0,2.5,1.1,2.5,2.5c0,0,0,0,0,0v7.4
	C623.1,326.6,622,327.6,620.7,327.7L620.7,327.7z M620.7,312.9L620.7,312.9c-1.4,0-2.5-1.1-2.5-2.5v-7.4c0-1.4,1.1-2.5,2.5-2.5l0,0
	c1.4,0,2.5,1.1,2.5,2.5c0,0,0,0,0,0v7.4C623.1,311.8,622,312.8,620.7,312.9L620.7,312.9z M620.7,298.2L620.7,298.2
	c-1.4,0-2.5-1.1-2.5-2.4c0,0,0,0,0,0v-7.4c0-1.4,1.1-2.5,2.5-2.5l0,0c1.4,0,2.5,1.1,2.5,2.4c0,0,0,0,0,0v7.4c0,1.3-1,2.3-2.3,2.4
	L620.7,298.2z M620.7,283.4L620.7,283.4c-1.4,0-2.5-1.1-2.5-2.5c0,0,0,0,0,0v-7.4c0-1.4,1.1-2.5,2.5-2.5l0,0c1.4,0,2.5,1.1,2.5,2.5
	c0,0,0,0,0,0v7.4c0,1.3-1,2.3-2.3,2.4L620.7,283.4z M620.7,268.7L620.7,268.7c-1.4,0-2.5-1.1-2.5-2.5v-7.4c0-1.4,1.1-2.5,2.5-2.5
	l0,0c1.4,0,2.5,1.1,2.5,2.5c0,0,0,0,0,0v7.4c0,1.3-1,2.3-2.3,2.4L620.7,268.7z M620.8,253.9L620.8,253.9c-1.4,0-2.5-1.1-2.5-2.4
	c0,0,0,0,0,0v-7.4c0-1.4,1.1-2.4,2.5-2.4c1.4,0,2.5,1.1,2.5,2.4c0,0,0,0,0,0v7.4c0,1.3-1,2.3-2.2,2.4L620.8,253.9z M620.8,239.2
	L620.8,239.2c-1.4,0-2.5-1.1-2.5-2.5c0,0,0,0,0,0v-7.4c0-1.4,1.1-2.5,2.5-2.5c0,0,0,0,0,0l0,0c1.4,0,2.5,1.1,2.5,2.5v7.4
	c0,1.3-1,2.3-2.2,2.4L620.8,239.2z M620.8,224.4L620.8,224.4c-1.4,0-2.5-1.1-2.5-2.5v-7.4c0-1.4,1.1-2.4,2.5-2.4l0,0
	c1.4,0,2.5,1.1,2.5,2.5c0,0,0,0,0,0v7.4c0,1.2-1,2.3-2.2,2.4L620.8,224.4z M620.8,209.7L620.8,209.7c-1.4,0-2.5-1.1-2.5-2.4
	c0,0,0,0,0,0v-7.4c0-1.4,1.1-2.4,2.5-2.4l0,0l0,0c1.4,0,2.5,1.1,2.5,2.5c0,0,0,0,0,0v7.4c0,1.2-0.9,2.3-2.2,2.4L620.8,209.7z"/>
<path class="st8" d="M716.4,418c-1.2,41.1-4.9,183.1-3.1,233.3c0.2,5.3,5,9.6,11,9.8c29.8,0.9,138.9,3,187.6,1.2
	c10.1-0.4,18.2-7.7,18.4-16.6c1-43.2,3.2-164.6-2.1-220.3c-0.6-6.7-6.5-12-14.1-12.6c-32.4-2.9-142-9.9-184.1-7.5
	C722.5,405.8,716.6,411.3,716.4,418z"/>
<path class="st7" d="M729.7,427.6c-1.6,9.6-6.7,41.6-5,53.4c0.2,1.7,5.5,3.1,12.3,3.2c27.7,0.4,122.4,1.3,163.1,0.5
	c7.3-0.1,13.1-1.7,13.5-3.5c2.1-9.8,8-39.6,6.4-51.3c-0.2-1.9-5.9-3.4-13.1-3.6c-30-0.7-130.6-2.3-165.1-1.9
	C735.1,424.6,729.9,425.9,729.7,427.6z"/>
<path class="st10" d="M907.2,435.9c-1.5-1.5-3.5-2.4-5.6-2.4L745.7,431c-4.2-0.1-7.7,3.1-8.1,7.2l-3.2,34.6
	c-0.3,2.8,4.4,5.2,10.3,5.3L898,480c5.9,0.1,10.8-2.2,10.9-5l0.6-33.3C909.5,439.5,908.7,437.5,907.2,435.9z"/>
<path class="st7" d="M740.6,507h13.7c6.2,0,11.1,5,11.1,11.1v0.2c0,6.2-5,11.1-11.1,11.1h-13.7c-6.2,0-11.1-5-11.1-11.1v-0.2
	C729.4,512,734.4,507,740.6,507z"/>
<path class="st7" d="M791.2,507H805c6.2,0,11.1,5,11.1,11.1v0.2c0,6.2-5,11.1-11.1,11.1h-13.7c-6.2,0-11.1-5-11.1-11.1v-0.2
	C780.1,512,785.1,507,791.2,507z"/>
<path class="st7" d="M839.6,507h13.8c6.2,0,11.1,5,11.1,11.1v0.2c0,6.2-5,11.1-11.1,11.1h-13.8c-6.2,0-11.1-5-11.1-11.1v-0.2
	C828.5,512,833.5,507,839.6,507z"/>
<path class="st15" d="M914.4,520.1c0,6.2-5.1,11.3-11.3,11.3c0,0,0,0,0,0H890c-6.3,0-11.3-5.1-11.3-11.3l0,0l0,0
	c0-6.3,5.1-11.3,11.3-11.3c0,0,0,0,0,0h13.1C909.4,508.8,914.4,513.8,914.4,520.1C914.4,520.1,914.4,520.1,914.4,520.1L914.4,520.1z
	"/>
<path class="st16" d="M740.6,541.9h13.7c6.2,0,11.1,5,11.1,11.1v0.2c0,6.2-5,11.1-11.1,11.1h-13.7c-6.2,0-11.1-5-11.1-11.1v-0.2
	C729.4,546.9,734.4,541.9,740.6,541.9z"/>
<path class="st16" d="M791.2,541.9H805c6.2,0,11.1,5,11.1,11.1v0.2c0,6.2-5,11.1-11.1,11.1h-13.7c-6.2,0-11.1-5-11.1-11.1v-0.2
	C780.1,546.9,785.1,541.9,791.2,541.9z"/>
<path class="st16" d="M839.6,541.9h13.8c6.2,0,11.1,5,11.1,11.1v0.2c0,6.2-5,11.1-11.1,11.1h-13.8c-6.2,0-11.1-5-11.1-11.1v-0.2
	C828.5,546.9,833.5,541.9,839.6,541.9z"/>
<path class="st7" d="M890.3,541.9H904c6.2,0,11.1,5,11.1,11.1v0.2c0,6.2-5,11.1-11.1,11.1h-13.7c-6.2,0-11.1-5-11.1-11.1v-0.2
	C879.2,546.9,884.1,541.9,890.3,541.9z"/>
<path class="st16" d="M740.6,575.7h13.7c6.2,0,11.1,5,11.1,11.1v0.2c0,6.2-5,11.1-11.1,11.1h-13.7c-6.2,0-11.1-5-11.1-11.1v-0.2
	C729.4,580.7,734.4,575.7,740.6,575.7z"/>
<path class="st16" d="M791.2,575.7H805c6.2,0,11.1,5,11.1,11.1v0.2c0,6.2-5,11.1-11.1,11.1h-13.7c-6.2,0-11.1-5-11.1-11.1v-0.2
	C780.1,580.7,785.1,575.7,791.2,575.7z"/>
<path class="st16" d="M839.6,575.7h13.8c6.2,0,11.1,5,11.1,11.1v0.2c0,6.2-5,11.1-11.1,11.1h-13.8c-6.2,0-11.1-5-11.1-11.1v-0.2
	C828.5,580.7,833.5,575.7,839.6,575.7z"/>
<path class="st16" d="M740.6,609.5h13.7c6.2,0,11.1,5,11.1,11.1v0.2c0,6.2-5,11.1-11.1,11.1h-13.7c-6.2,0-11.1-5-11.1-11.1v-0.2
	C729.4,614.5,734.4,609.5,740.6,609.5z"/>
<path class="st16" d="M791.2,609.5H805c6.2,0,11.1,5,11.1,11.1v0.2c0,6.2-5,11.1-11.1,11.1h-13.7c-6.2,0-11.1-5-11.1-11.1v-0.2
	C780.1,614.5,785.1,609.5,791.2,609.5z"/>
<path class="st16" d="M839.6,609.5h13.8c6.2,0,11.1,5,11.1,11.1v0.2c0,6.2-5,11.1-11.1,11.1h-13.8c-6.2,0-11.1-5-11.1-11.1v-0.2
	C828.5,614.5,833.5,609.5,839.6,609.5z"/>
<path class="st7" d="M895.5,576.8h1.1c7.8,0,14.1,6.3,14.1,14.1v27c0,7.8-6.3,14.1-14.1,14.1h-1.1c-7.8,0-14.1-6.3-14.1-14.1v-27
	C881.4,583.1,887.7,576.8,895.5,576.8z"/>
<g class="st17">
	<path class="st18" d="M890.4,440.6c0,1.2-1,2.2-2.2,2.2l0,0h-6.8c-1.2,0-2.2-1-2.2-2.2l0,0l0,0c0-1.2,1-2.2,2.2-2.2l0,0h6.8
		C889.4,438.4,890.4,439.4,890.4,440.6L890.4,440.6z"/>
	<path class="st18" d="M890.4,474.4c0,1.2-1,2.2-2.2,2.2l0,0h-6.8c-1.2,0-2.2-1-2.2-2.2l0,0l0,0c0-1.2,1-2.2,2.2-2.2l0,0h6.8
		C889.4,472.1,890.4,473.1,890.4,474.4L890.4,474.4z"/>
	<path class="st18" d="M879.2,454.1c0,1.2-1,2.2-2.2,2.2l0,0l0,0c-1.2,0-2.2-1-2.2-2.2l0,0v-6.8c0-1.2,1-2.2,2.2-2.2l0,0l0,0
		c1.2,0,2.2,1,2.2,2.2l0,0V454.1z"/>
	<path class="st18" d="M879.2,467.6c0,1.2-1,2.2-2.2,2.2l0,0l0,0c-1.2,0-2.2-1-2.2-2.2l0,0v-6.8c0-1.2,1-2.2,2.2-2.2l0,0l0,0
		c1.2,0,2.2,1,2.2,2.2l0,0V467.6z"/>
	<path class="st18" d="M896,454.1c0,1.2-1,2.2-2.2,2.2l0,0l0,0c-1.2,0-2.3-1-2.3-2.2v-6.8c0-1.2,1-2.3,2.3-2.2l0,0
		c1.2,0,2.2,1,2.2,2.2l0,0V454.1z"/>
	<path class="st18" d="M896,467.6c0,1.2-1,2.2-2.2,2.2l0,0l0,0c-1.2,0-2.3-1-2.3-2.2v-6.8c0-1.2,1-2.3,2.3-2.2l0,0
		c1.2,0,2.2,1,2.2,2.2l0,0V467.6z"/>
</g>
<linearGradient id="SVGID_7_" gradientUnits="userSpaceOnUse" x1="-4185.5957" y1="270.2524" x2="-4171.6455" y2="131.7225" gradientTransform="matrix(1 0 0 -1 4953.4902 687.962)">
	<stop  offset="0" style="stop-color:#F5928F"/>
	<stop  offset="1" style="stop-color:#F8B2B1"/>
</linearGradient>
<path class="st19" d="M726.6,461.8c0.1,0,48.3-84.4,54.8-92.3c1.1-1.3,2.8-2,4.5-1.8l13.4,1.6l15.8,34.2l-26.3-15.3
	c2.6,18-31.2,44.8-42.8,54.5c-1.1,0.9-1.3,2.6-0.3,3.7c0,0,0.1,0.1,0.1,0.1l4.6,4.9c-7.1,7.4-16.2,12.6-26.3,14.9L726.6,461.8z"/>
<linearGradient id="SVGID_8_" gradientUnits="userSpaceOnUse" x1="-13613.5674" y1="7943.0684" x2="-13619.4072" y2="7853.6685" gradientTransform="matrix(0.8974 -0.4412 -0.4412 -0.8974 16446.3047 1556.2456)">
	<stop  offset="0" style="stop-color:#201B59"/>
	<stop  offset="1" style="stop-color:#2D2D84"/>
</linearGradient>
<path class="st20" d="M747.7,448.7c1.8,0.6,3.2,1.9,4,3.6c0.4,1.3,0,2.7-1.1,3.5c-4.9,3.5-20.9,14.7-28.3,16.9
	c-0.4,0.1-0.9-0.2-1-0.6c0-0.1,0-0.3,0-0.4c0.4-1.7,1.6-5.2,5.6-10.2l-0.4,0.7c-0.3,0.5-0.2,1.1,0.3,1.4c0.3,0.2,0.8,0.2,1.1,0
	C732.8,460.8,742.9,454.7,747.7,448.7z"/>
<linearGradient id="SVGID_9_" gradientUnits="userSpaceOnUse" x1="-4181.7222" y1="359.0518" x2="-4175.2422" y2="284.3018" gradientTransform="matrix(1 0 0 -1 4953.4902 687.962)">
	<stop  offset="0" style="stop-color:#F5928F"/>
	<stop  offset="1" style="stop-color:#F8B2B1"/>
</linearGradient>
<path class="st21" d="M745.3,482.5c0.1-0.1,7.3-17.5,7.4-17.5c6.6-40.4,22.8-74.9,27.6-84c0.8-1.5,2.3-2.5,4-2.7l13.5-1.1l22.4,30.3
	l-28.9-9.7c6.2,17.1-21.5,50.2-30.9,62.1c-0.9,1.2-0.7,2.8,0.4,3.7c0,0,0.1,0.1,0.1,0.1l5.5,3.8c-5.5,8.7-13.4,15.6-22.7,20
	L745.3,482.5z"/>
<linearGradient id="SVGID_10_" gradientUnits="userSpaceOnUse" x1="-11657.1885" y1="10892.5713" x2="-11663.0176" y2="10803.1816" gradientTransform="matrix(0.79 -0.61 -0.61 -0.79 16579.666 1931.99)">
	<stop  offset="0" style="stop-color:#201B59"/>
	<stop  offset="1" style="stop-color:#2D2D84"/>
</linearGradient>
<path class="st22" d="M763.4,465.4c1.8,0.2,3.5,1.2,4.6,2.7c0.7,1.2,0.5,2.6-0.4,3.6c-4.1,4.4-17.5,18.7-24.3,22.3
	c-0.4,0.2-0.9,0.1-1.1-0.3c-0.1-0.1-0.1-0.3-0.1-0.4c0-1.8,0.5-5.4,3.4-11.1l-0.2,0.8c-0.2,0.5,0,1.1,0.5,1.3
	c0.4,0.2,0.8,0.1,1.1-0.3C751.2,480.3,759.9,472.3,763.4,465.4z"/>
<path class="st23" d="M861,370.8c0,0,12.2,18.2,13.2,26.4s-3.4,11.1-16.2,12.2c-38,3.1-56.8-8.2-56.8-8.2
	c-2.6-16.6-4.5-20.8-26.2-29.8c0,0,27.5,2.2,33,0S861,370.8,861,370.8z"/>
<path class="st15" d="M828,368.4c0,0-14.2-13.5-21.2-22.5c-3.8-4.8-5-11.2-3.2-17.1c3.2-10.8,8.9-21.9,9.4-23.6
	c0.8-2.7,16.7-2.5,16.7-2.5s31.4,20.4,43.7,54.8l-13.8,4.3c0,0-8.2-13.7-16.3-22.5c0,0,14,18.5,14.5,26.1L828,368.4z"/>
<linearGradient id="SVGID_11_" gradientUnits="userSpaceOnUse" x1="-4135.3672" y1="397.2497" x2="-4120.9175" y2="350.8997" gradientTransform="matrix(1 0 0 -1 4953.4902 687.962)">
	<stop  offset="0" style="stop-color:#F5928F"/>
	<stop  offset="1" style="stop-color:#F8B2B1"/>
</linearGradient>
<path class="st24" d="M811,290.2c0.2,0.5,4.3,14.3,4.7,14.6s9.1,0.8,13.3-2.1l-8.5-18.7L811,290.2z"/>
<linearGradient id="SVGID_12_" gradientUnits="userSpaceOnUse" x1="-4990.4214" y1="12501.3164" x2="-5026.8018" y2="12500.8164" gradientTransform="matrix(0.72 -0.69 -0.69 -0.72 16950.8828 1978.2627)">
	<stop  offset="0" style="stop-color:#F5928F"/>
	<stop  offset="1" style="stop-color:#F8B2B1"/>
</linearGradient>
<path class="st25" d="M799.6,274.8c0,0-3,6.8,0.5,17.2s9.2,11.3,12.8,8.7s8.3-7.2,8.9-16.6S803.7,266.1,799.6,274.8z"/>
<path class="st23" d="M814.7,283.5c0,0-6.3-14.1-15.7-5.3l-0.7,3.6c0,0-9-2.5-6-10.7c3.3-8.5,12.9-12.6,21.4-9.3
	c0.6,0.3,1.3,0.6,1.9,0.9c9.6,5.3,12.9,11.5,12.3,18.9s-6.1,4.9-6.1,4.9s-1.1-5.5-3.7-6.4s-2.5,3.1-2.5,3.1L814.7,283.5z"/>
<linearGradient id="SVGID_13_" gradientUnits="userSpaceOnUse" x1="-4990.3813" y1="12497.4053" x2="-5026.7612" y2="12496.9053" gradientTransform="matrix(0.72 -0.69 -0.69 -0.72 16950.8828 1978.2627)">
	<stop  offset="0" style="stop-color:#F5928F"/>
	<stop  offset="1" style="stop-color:#F8B2B1"/>
</linearGradient>
<path class="st26" d="M816.8,283.7c0,0-3.3-7.2,1.3-7.5s2.7,7,1.8,9.6L816.8,283.7z"/>
<linearGradient id="SVGID_14_" gradientUnits="userSpaceOnUse" x1="-4104.4829" y1="385.8425" x2="-4116.4429" y2="306.1125" gradientTransform="matrix(1 0 0 -1 4953.4902 687.962)">
	<stop  offset="0" style="stop-color:#F5928F"/>
	<stop  offset="1" style="stop-color:#F8B2B1"/>
</linearGradient>
<path class="st27" d="M800.9,373.7l10.7-11.6l12.3,3.3c0,0,14.4,2.2,22.6,0l8.2-2.2l18.6-5.8l2.9,8.3c0.7,2.1,0,4.4-1.8,5.7
	c-1.5,1.1-3,2.1-4.7,2.9c-2.5,1.1-56.4,0.3-56.4,0.3L800.9,373.7z"/>
<path class="st23" d="M819.4,268c-1.8-0.3-3-1.9-2.7-3.6c0.1-0.7,0.4-1.3,0.9-1.7c5.6-6.2,16.3-13,31.4-2.5
	c17.1,11.8,26.3,17.2,30.5,16c1.7-0.5,3.5,0.4,4,2.2c0.2,0.8,0.2,1.6-0.2,2.4c-1,1.9-2.9,3.8-6.5,5.6
	C848.9,300.1,834.5,269.8,819.4,268z"/>
<linearGradient id="SVGID_15_" gradientUnits="userSpaceOnUse" x1="-15815.8643" y1="927.6833" x2="-15855.4434" y2="916.8433" gradientTransform="matrix(0.9988 -4.937274e-02 -4.937274e-02 -0.9988 16687.3672 510.783)">
	<stop  offset="0" style="stop-color:#201B59"/>
	<stop  offset="1" style="stop-color:#2D2D84"/>
</linearGradient>
<path class="st28" d="M836.2,378.3h-0.1l-49.1,0c-1.2,0-2.2-1-2.2-2.2c0-1.2,1-2.2,2.2-2.2h49.1c1.2,0,2.2,0.9,2.3,2.1
	C838.4,377.2,837.4,378.2,836.2,378.3L836.2,378.3L836.2,378.3z"/>
<linearGradient id="SVGID_16_" gradientUnits="userSpaceOnUse" x1="-15832.1152" y1="348.2776" x2="-15860.1953" y2="318.5976" gradientTransform="matrix(1 0 0 -1 16623.1309 687.962)">
	<stop  offset="0" style="stop-color:#201B59"/>
	<stop  offset="1" style="stop-color:#2D2D84"/>
</linearGradient>
<path class="st29" d="M742.9,333.7h40.9c3,0,5.8,1.7,7,4.5l18.9,40.1h-50.8c-1.9,0-3.7-1.2-4.4-3l-14.7-37.1
	c-0.7-1.7,0.2-3.6,1.9-4.2C742.1,333.8,742.5,333.7,742.9,333.7z"/>
<path class="st30" d="M771.7,354.3c0.9,2.8,0.2,5.4-1.5,6s-3.8-1.2-4.7-4s-0.2-5.4,1.5-6S770.8,351.5,771.7,354.3z"/>
<path class="st31" d="M450.2,380.1l-177.9-1.1c-5.6,0-10.2,4.5-10.2,10.1c0,0.2,0,0.4,0,0.6l12.2,252.7h198l11-225.8L450.2,380.1z"
	/>
<path class="st32" d="M457.6,415.6c-5.6-0.2-10-4.9-9.8-10.6c0-0.1,0-0.3,0-0.4l1.9-24.1l33.6,36L457.6,415.6z"/>
<path class="st33" d="M451,508.4H296.7c-4.7,0-8.5-2.1-8.6-4.8l-3.2-60.9c-0.1-2.8,3.8-5.1,8.6-5.1H451c4.8,0,8.6,2.2,8.6,5v60.9
	C459.6,506.2,455.8,508.4,451,508.4z"/>
<path class="st18" d="M450.8,509H296.4c-5,0-9-2.3-9.1-5.3l-3.2-60.9c0-1.1,0.4-2.2,1.2-2.9c1.6-1.7,4.7-2.8,8-2.8h157.5
	c5.1,0,9.2,2.4,9.2,5.5v60.9C459.9,506.6,455.9,509,450.8,509z M293.2,438.2c-3,0-5.8,0.9-7.2,2.4c-0.6,0.5-0.9,1.3-0.9,2.1
	l3.2,60.9c0.1,2.4,3.8,4.3,8.1,4.3h154.3c4.4,0,8.1-2,8.1-4.4v-60.9c0-2.4-3.7-4.4-8.1-4.4L293.2,438.2z"/>
<rect x="294.4" y="472.3" transform="matrix(4.886881e-03 -1 1 4.886881e-03 -144.3695 800.5323)" class="st18" width="71.3" height="1.1"/>
<rect x="385.1" y="472.3" transform="matrix(4.886881e-03 -1 1 4.886881e-03 -54.0806 891.2656)" class="st18" width="71.3" height="1.1"/>
<rect x="394.2" y="392.8" transform="matrix(4.886881e-03 -1 1 4.886881e-03 -64.4998 849.9139)" class="st18" width="1.1" height="129.1"/>
<rect x="329.9" y="484.5" class="st18" width="129.5" height="1.1"/>
<path class="st33" d="M451.3,626.8H297c-4.6,0-8.5-2.1-8.6-4.8l-3.2-60.9c-0.1-2.8,3.8-5.1,8.6-5.1h157.5c4.8,0,8.6,2.2,8.6,5v60.9
	C459.9,624.5,456,626.8,451.3,626.8z"/>
<path class="st18" d="M451,627.3H296.7c-5,0-9-2.3-9.2-5.3l-3.2-60.9c0-1.1,0.4-2.2,1.2-2.9c1.6-1.7,4.7-2.8,8-2.8H451
	c5.1,0,9.2,2.4,9.2,5.5v60.9C460.2,624.9,456.1,627.3,451,627.3z M293.5,556.5c-3,0-5.8,0.9-7.2,2.4c-0.6,0.5-0.9,1.3-0.9,2.1
	l3.2,60.9c0.1,2.4,3.7,4.3,8.1,4.3H451c4.4,0,8.1-2,8.1-4.4v-60.9c0-2.4-3.7-4.4-8.1-4.4H293.5z"/>
<rect x="294.7" y="590.6" transform="matrix(4.886881e-03 -1 1 4.886881e-03 -262.4376 918.542)" class="st18" width="71.3" height="1.1"/>
<rect x="385.4" y="590.6" transform="matrix(4.886881e-03 -1 1 4.886881e-03 -172.1387 1009.2655)" class="st18" width="71.3" height="1.1"/>
<rect x="394.5" y="511.1" transform="matrix(4.886881e-03 -1 1 4.886881e-03 -182.5481 967.9238)" class="st18" width="1.1" height="129.2"/>
<rect x="330.1" y="602.8" class="st18" width="129.5" height="1.1"/>
<path class="st32" d="M303.7,413.1h133.4c3.5,0,6.3,2.8,6.3,6.3v0c0,3.5-2.8,6.3-6.3,6.3H303.7c-3.5,0-6.3-2.8-6.3-6.3v0
	C297.4,415.9,300.2,413.1,303.7,413.1z"/>
<path class="st32" d="M293.2,520.2h159.5c2.6,0,4.7,2.1,4.7,4.7v0c0,2.6-2.1,4.7-4.7,4.7H293.2c-2.6,0-4.7-2.1-4.7-4.7v0
	C288.5,522.3,290.6,520.2,293.2,520.2z"/>
<path class="st32" d="M292.8,534.8h159.5c2.6,0,4.7,2.1,4.7,4.7v0c0,2.6-2.1,4.7-4.7,4.7H292.8c-2.6,0-4.7-2.1-4.7-4.7v0
	C288,536.9,290.2,534.8,292.8,534.8z"/>
<ellipse transform="matrix(0.4538 -0.8911 0.8911 0.4538 -285.0178 383.6263)" class="st15" cx="170.4" cy="424.3" rx="13.9" ry="13.9"/>
<ellipse transform="matrix(0.9487 -0.3161 0.3161 0.9487 -125.4053 75.6359)" class="st15" cx="170.4" cy="424.3" rx="13.5" ry="13.5"/>
<ellipse transform="matrix(0.7882 -0.6154 0.6154 0.7882 -225.1318 194.9788)" class="st34" cx="170.7" cy="424.6" rx="11.4" ry="11.4"/>
<path class="st15" d="M169.6,433.1v-1.2c-1.2,0-2.4-0.3-3.5-0.8c-0.3-0.1-0.5-0.5-0.4-0.9l0.3-1.1c0.1-0.4,0.5-0.6,0.9-0.5
	c0,0,0.1,0,0.1,0c1,0.4,2.1,0.7,3.2,0.7c1.2,0,2.2-0.4,2.2-1.3s-0.7-1.2-2.4-1.7c-2.5-0.7-4.2-1.8-4.2-3.9c0-2,1.4-3.5,3.9-3.9v-1.2
	c0-0.4,0.3-0.7,0.7-0.7l0,0h0.7c0.4,0,0.7,0.3,0.7,0.7l0,0v1.1c0.9,0,1.9,0.2,2.8,0.5c0.4,0.1,0.6,0.5,0.4,0.9l-0.3,1.1
	c-0.1,0.4-0.5,0.6-0.9,0.5c0,0-0.1,0-0.1,0c-0.9-0.3-1.8-0.5-2.7-0.5c-1.5,0-1.9,0.6-1.9,1.2s0.9,1.1,2.8,1.7c2.7,0.8,3.9,2,3.9,4
	c0,1.9-1.4,3.6-4.1,4v1.4c0,0.4-0.3,0.7-0.7,0.7h-0.7C169.9,433.8,169.6,433.4,169.6,433.1z"/>
<ellipse transform="matrix(0.7071 -0.7071 0.7071 0.7071 -215.9026 254.3353)" class="st15" cx="199.1" cy="387.8" rx="24.2" ry="24.2"/>
<circle class="st15" cx="199.1" cy="387.8" r="23.4"/>
<circle class="st34" cx="199.6" cy="388.3" r="19.8"/>
<path class="st15" d="M197.6,403v-2.1c-2.1-0.1-4.1-0.5-6.1-1.3c-0.6-0.3-0.9-0.9-0.7-1.5l0.6-2c0.2-0.7,0.9-1.1,1.6-0.9
	c0.1,0,0.1,0,0.2,0.1c1.8,0.8,3.7,1.1,5.6,1.2c2.2,0,3.8-0.7,3.8-2.2c0-1.4-1.2-2.2-4.3-3c-4.3-1.2-7.4-3-7.4-6.8
	c0-3.4,2.5-6,6.8-6.7v-2.1c0-0.7,0.5-1.3,1.2-1.3c0,0,0,0,0,0h1.3c0.7,0,1.3,0.6,1.3,1.2c0,0,0,0,0,0v1.9c1.6,0,3.3,0.3,4.8,0.9
	c0.6,0.2,1,0.9,0.8,1.5l-0.5,1.9c-0.2,0.7-0.9,1.1-1.5,0.9c0,0-0.1,0-0.1,0c-1.5-0.6-3.1-0.9-4.7-0.9c-2.6,0-3.3,1.1-3.3,2
	c0,1.2,1.6,2,4.9,3c4.8,1.4,6.8,3.4,6.8,7c0,3.3-2.4,6.2-7.1,6.9v2.4c0,0.7-0.5,1.3-1.2,1.3c0,0,0,0,0,0h-1.3
	C198.2,404.3,197.6,403.7,197.6,403C197.6,403,197.6,403,197.6,403z"/>
<circle class="st15" cx="215.8" cy="441.9" r="24.9"/>
<ellipse transform="matrix(0.5696 -0.8219 0.8219 0.5696 -270.3257 367.5683)" class="st15" cx="215.8" cy="441.9" rx="24.1" ry="24.1"/>
<circle class="st34" cx="216.3" cy="442.4" r="20.4"/>
<path class="st15" d="M214.3,457.6v-2.2c-2.1-0.1-4.2-0.5-6.2-1.4c-0.6-0.3-0.9-0.9-0.7-1.5l0.6-2.1c0.2-0.7,0.9-1.1,1.6-0.9
	c0.1,0,0.1,0,0.2,0.1c1.8,0.8,3.8,1.2,5.8,1.2c2.2,0,3.9-0.8,3.9-2.3s-1.3-2.2-4.4-3.1c-4.4-1.2-7.6-3.1-7.6-7c0-3.5,2.6-6.2,7-6.9
	v-2.2c0-0.7,0.6-1.3,1.3-1.3h1.4c0.7,0,1.3,0.6,1.3,1.3v2c1.7,0,3.3,0.3,4.9,0.9c0.6,0.2,1,0.9,0.8,1.5l-0.5,1.9
	c-0.2,0.7-0.9,1.1-1.6,0.9c0,0-0.1,0-0.1,0c-1.5-0.6-3.2-0.9-4.9-0.9c-2.6,0-3.4,1.1-3.4,2.1c0,1.2,1.6,2,5,3.1c4.9,1.5,7,3.5,7,7.2
	c0,3.4-2.5,6.4-7.3,7.1v2.5c0,0.7-0.6,1.3-1.3,1.3l0,0h-1.3C214.9,459,214.3,458.4,214.3,457.6C214.3,457.7,214.3,457.6,214.3,457.6
	z"/>
<circle class="st15" cx="247.8" cy="407.9" r="18.3"/>
<ellipse transform="matrix(0.5941 -0.8044 0.8044 0.5941 -227.5764 364.8831)" class="st15" cx="247.8" cy="407.9" rx="17.7" ry="17.7"/>
<circle class="st34" cx="248.1" cy="408.3" r="15"/>
<path class="st15" d="M246.7,419.4v-1.6c-1.6-0.1-3.1-0.4-4.6-1c-0.4-0.2-0.6-0.7-0.5-1.1l0.4-1.5c0.1-0.5,0.6-0.8,1.1-0.7
	c0,0,0.1,0,0.1,0c1.3,0.6,2.8,0.9,4.2,0.9c1.6,0,2.9-0.5,2.9-1.7s-0.9-1.6-3.2-2.2c-3.2-0.9-5.6-2.3-5.6-5.1c0-2.6,1.9-4.5,5.1-5.1
	v-1.6c0-0.5,0.4-0.9,0.9-1h0.9c0.5,0,1,0.4,1,1v1.5c1.2,0,2.5,0.3,3.6,0.6c0.4,0.2,0.7,0.7,0.6,1.1l-0.4,1.4
	c-0.2,0.5-0.7,0.8-1.2,0.6c-1.1-0.4-2.3-0.6-3.6-0.6c-1.9,0-2.5,0.8-2.5,1.5c0,0.9,1.2,1.5,3.7,2.3c3.6,1.1,5.1,2.6,5.1,5.3
	c0,2.5-1.8,4.7-5.4,5.2v1.8c0,0.5-0.4,0.9-0.9,1h-1C247.1,420.4,246.7,420,246.7,419.4z"/>
</svg>
